<svg xmlns="http://www.w3.org/2000/svg" width="289" height="475" fill="none"><g opacity=".45"><mask id="a" width="474" height="475" x="-185" y="0" maskUnits="userSpaceOnUse" style="mask-type:luminance"><path fill="#fff" d="M-185 .67h473.881v473.882H-185z"/></mask><g mask="url(#a)"><mask id="b" width="474" height="475" x="-185" y="0" maskUnits="userSpaceOnUse" style="mask-type:luminance"><path fill="#fff" d="M281.332 9.285V.67h-1.419v8.614h-16.169V.67h-1.419v8.614h-16.169V.67h-1.425v8.614h-16.168V.67h-1.42v8.614h-16.168V.67h-1.425v8.614h-16.169V.67h-1.419v8.614h-16.168V.67h-1.426v8.614H158.2V.67h-1.419v8.614h-16.169V.67h-1.419v8.614h-16.174V.67h-1.42v8.614h-16.168V.67h-1.425v8.614H87.837V.67h-1.42v8.614H70.25V.67h-1.425v8.614H52.656V.67h-1.42v8.614H35.069V.67h-1.425v8.614H17.475V.67h-1.42v8.614H-.113V.67h-1.425v8.614h-16.169V.67h-1.42v8.614h-16.168V.67h-1.425v8.614h-16.168V.67h-1.42v8.614h-16.174V.67h-1.42v8.614H-88.07V.67h-1.419v8.614h-16.174V.67h-1.419v8.614h-16.169V.67h-1.425v8.614h-16.168V.67h-1.42v8.614h-16.174V.67h-1.419v8.614h-16.175V.67h-1.419v8.614H-185v1.419h7.549v16.168H-185v1.425h7.549v16.169H-185v1.42h7.549v16.168H-185v1.425h7.549v16.168H-185v1.42h7.549v16.168H-185v1.425h7.549v16.169H-185v1.419h7.549v16.174H-185v1.42h7.549v16.168H-185v1.419h7.549v16.175H-185v1.419h7.549v16.168H-185v1.425h7.549v16.169H-185v1.419h7.549v16.174H-185v1.42h7.549v16.168H-185v1.42h7.549v16.174H-185v1.419h7.549v16.169H-185v1.419h7.549v16.168H-185v1.426h7.549v16.168H-185v1.419h7.549v16.169H-185v1.425h7.549v16.168H-185v1.42h7.549v16.168H-185v1.425h7.549v16.169H-185v1.419h7.549v16.169H-185v1.419h7.549v16.174H-185v1.42h7.549v16.168H-185v1.419h7.549v16.174H-185v1.42h7.549v16.168H-185v1.425h7.549v6.485h1.419v-6.485h16.175v6.485h1.419v-6.485h16.168v6.485h1.426v-6.485h16.168v6.485h1.419v-6.485h16.169v6.485h1.425v-6.485h16.168v6.485h1.425v-6.485H-71.9v6.485h1.42v-6.485h16.168v6.485h1.425v-6.485h16.168v6.485h1.42v-6.485h16.168v6.485h1.425v-6.485h16.169v6.485H-.12v-6.485h16.174v6.485h1.42v-6.485h16.168v6.485h1.42v-6.485h16.174v6.485h1.419v-6.485h16.168v6.485h1.42v-6.485h16.174v6.485h1.42v-6.485h16.168v6.485h1.419v-6.485h16.169v6.485h1.425v-6.485h16.168v6.485h1.425v-6.485h16.169v6.485h1.419v-6.485h16.168v6.485h1.42v-6.485h16.174v6.485h1.419v-6.485h16.169v6.485h1.419v-6.485h16.169v6.485h1.425v-6.485h16.168v6.485h1.42v-6.485h16.168v6.485h1.425v-6.485h16.169v6.485h1.419v-6.485h7.549v-1.425h-7.549v-16.168h7.549v-1.42h-7.549V432.88h7.549v-1.419h-7.549v-16.168h7.549v-1.42h-7.549v-16.174h7.549v-1.419h-7.549v-16.169h7.549v-1.419h-7.549v-16.169h7.549v-1.425h-7.549V344.93h7.549v-1.42h-7.549v-16.168h7.549v-1.425h-7.549v-16.169h7.549v-1.419h-7.549v-16.168h7.549v-1.426h-7.549v-16.168h7.549v-1.419h-7.549v-16.169h7.549v-1.419h-7.549v-16.174h7.549v-1.42h-7.549v-16.168h7.549v-1.42h-7.549v-16.174h7.549v-1.419h-7.549v-16.169h7.549v-1.425h-7.549v-16.168h7.549v-1.419h-7.549v-16.175h7.549v-1.419h-7.549v-16.168h7.549v-1.42h-7.549v-16.174h7.549v-1.419h-7.549V98.66h7.549v-1.425h-7.549V81.067h7.549v-1.42h-7.549V63.48h7.549v-1.425h-7.549V45.885h7.549v-1.42h-7.549V28.298h7.549v-1.425h-7.549V10.704h7.549v-1.42zM51.231 237.966H35.062v-16.168h16.169zm0 1.42v16.168H35.062v-16.168zm1.42 0h16.168v16.168H52.65zm0-1.42v-16.168h16.168v16.168zm16.168-17.593H52.65v-16.174H68.82zm-17.588 0H35.057v-16.174H51.23zm-17.594 0H17.47v-16.174h16.168zm0 1.419v16.169H17.47v-16.169zm0 17.594v16.168H17.47v-16.168zm0 17.593v16.169H17.47v-16.169zm1.42 0H51.23v16.169H35.057zm17.593 0H68.82v16.169H52.65zm17.594 0h16.168v16.169H70.244zm0-1.425v-16.168h16.168v16.168zm0-17.588v-16.168h16.168v16.168zm0-17.593v-16.174h16.168v16.174zm16.168-17.594H70.244v-16.168h16.168zm-17.593 0H52.65v-16.168H68.82zm-17.588 0H35.057v-16.168H51.23zm-17.594 0H17.47v-16.168h16.168zm-17.593 0H-.125v-16.168h16.169zm0 1.42v16.174H-.125v-16.174zm0 17.593v16.169H-.125v-16.169zm0 17.594v16.168H-.125v-16.168zm0 17.593v16.169H-.125v-16.169zm0 17.588v16.168H-.125v-16.168zm1.425 0h16.168v16.168H17.47zm17.588 0H51.23v16.168H35.057zm17.593 0H68.82v16.168H52.65zm17.594 0h16.168v16.168H70.244zm17.588 0H104v16.168H87.832zm0-1.419v-16.169H104v16.169zm0-17.594v-16.168H104v16.168zm0-17.588v-16.168H104v16.168zm0-17.593v-16.174H104v16.174zm0-17.594v-16.168H104v16.168zM104 185.186H87.832v-16.169H104zm-17.588 0H70.238v-16.169h16.174zm-17.593 0H52.65v-16.169H68.82zm-17.594 0H35.057v-16.169h16.168zm-17.588 0H17.47v-16.169h16.168zm-17.593 0H-.125v-16.169h16.169zm-17.594 0h-16.168v-16.169H-1.55zm0 1.425v16.168h-16.168v-16.168zm0 17.588v16.174h-16.168v-16.174zm0 17.593v16.169h-16.168v-16.169zm0 17.594v16.168h-16.168v-16.168zm0 17.593v16.169h-16.168v-16.169zm0 17.588v16.168h-16.168v-16.168zm0 17.594v16.168h-16.168v-16.168zm1.425 0h16.169v16.168H-.125zm17.588 0h16.169v16.168H17.463zm17.594 0h16.168v16.168H35.057zm17.593 0H68.82v16.168H52.65zm17.588 0h16.174v16.168H70.238zm17.594 0H104v16.168H87.832zm17.593 0h16.169v16.168h-16.169zm0-1.42v-16.168h16.169v16.168zm0-17.593v-16.169h16.169v16.169zm0-17.594v-16.168h16.169v16.168zm0-17.588v-16.168h16.169v16.168zm0-17.593v-16.174h16.169v16.174zm0-17.594v-16.168h16.169v16.168zm0-17.593v-16.169h16.169v16.169zm16.169-17.588h-16.169v-16.174h16.169zm-17.594 0H87.832v-16.174H104zm-17.594 0H70.238v-16.174h16.168zm-17.587 0H52.65v-16.174H68.82zm-17.594 0H35.057v-16.174h16.168zm-17.593 0H17.463v-16.174h16.169zm-17.588 0H-.13v-16.174h16.174zm-17.594 0h-16.168v-16.174H-1.55zm-17.593 0h-16.169v-16.174h16.169zm0 1.419v16.169h-16.169v-16.169zm0 17.594v16.168h-16.169v-16.168zm0 17.588v16.174h-16.169v-16.174zm0 17.593v16.169h-16.169v-16.169zm0 17.594v16.168h-16.169v-16.168zm0 17.593v16.169h-16.169v-16.169zm0 17.588v16.168h-16.169v-16.168zm0 17.594v16.168h-16.169v-16.168zm0 17.593v16.169h-16.169v-16.169zm1.425 0H-1.55v16.169h-16.168zm17.588 0h16.174v16.169H-.13zm17.593 0h16.169v16.169H17.463zm17.594 0h16.168v16.169H35.057zm17.588 0h16.168v16.169H52.644zm17.593 0h16.168v16.169H70.238zm17.594 0H104v16.169H87.832zm17.587 0h16.169v16.169h-16.169zm17.594 0h16.168v16.169h-16.168zm0-1.425v-16.168h16.168v16.168zm0-17.588v-16.168h16.168v16.168zm0-17.593v-16.169h16.168v16.169zm0-17.594v-16.168h16.168v16.168zm0-17.588v-16.168h16.168v16.168zm0-17.593v-16.174h16.168v16.174zm0-17.594v-16.168h16.168v16.168zm0-17.593v-16.169h16.168v16.169zm0-17.588v-16.174h16.168v16.174zm16.168-17.594h-16.168v-16.168h16.168zm-17.587 0h-16.169v-16.168h16.169zm-17.594 0H87.832v-16.168H104zm-17.594 0H70.238v-16.168h16.168zm-17.587 0H52.65v-16.168H68.82zm-17.594 0H35.057v-16.168h16.168zm-17.593 0H17.463v-16.168h16.169zm-17.588 0H-.13v-16.168h16.174zm-17.594 0h-16.168v-16.168H-1.55zm-17.593 0h-16.169v-16.168h16.169zm-17.594 0h-16.168v-16.168h16.168zm0 1.42v16.174h-16.168v-16.174zm0 17.593v16.169h-16.168v-16.169zm0 17.594v16.168h-16.168v-16.168zm0 17.588v16.174h-16.168v-16.174zm0 17.593v16.169h-16.168v-16.169zm0 17.594v16.168h-16.168v-16.168zm0 17.593v16.169h-16.168v-16.169zm0 17.588v16.168h-16.168v-16.168zm0 17.594v16.168h-16.168v-16.168zm0 17.593v16.169h-16.168v-16.169zm0 17.588v16.168h-16.168v-16.168zm1.425 0h16.169v16.168h-16.169zm17.594 0H-1.55v16.168h-16.168zm17.588 0h16.174v16.168H-.13zm17.593 0h16.169v16.168H17.463zm17.594 0h16.168v16.168H35.057zm17.588 0h16.168v16.168H52.644zm17.593 0h16.168v16.168H70.238zm17.594 0H104v16.168H87.832zm17.587 0h16.169v16.168h-16.169zm17.594 0h16.168v16.168h-16.168zm17.594 0h16.168v16.168h-16.168zm0-1.419v-16.169h16.168v16.169zm0-17.594v-16.168h16.168v16.168zm0-17.588v-16.168h16.168v16.168zm0-17.593v-16.169h16.168v16.169zm0-17.594v-16.168h16.168v16.168zm0-17.588v-16.168h16.168v16.168zm0-17.593v-16.174h16.168v16.174zm0-17.594v-16.168h16.168v16.168zm0-17.593v-16.169h16.168v16.169zm0-17.588v-16.174h16.168v16.174zm0-17.594v-16.168h16.168v16.168zm16.168-17.593h-16.168v-16.169h16.168zm-17.594 0h-16.168v-16.169h16.168zm-17.593 0h-16.169v-16.169h16.169zm-17.588 0H87.832v-16.169H104zm-17.594 0H70.238v-16.169h16.168zm-17.593 0H52.644v-16.169h16.169zm-17.588 0H35.051v-16.169h16.174zm-17.593 0H17.463v-16.169h16.169zm-17.594 0H-.13v-16.169h16.168zm-17.588 0h-16.174v-16.169H-1.55zm-17.593 0h-16.169v-16.169h16.169zm-17.594 0h-16.168v-16.169h16.168zm-17.593 0H-70.5v-16.169h16.169zm0 1.425v16.168H-70.5v-16.168zm0 17.588v16.174H-70.5v-16.174zm0 17.593v16.169H-70.5v-16.169zm0 17.594v16.168H-70.5v-16.168zm0 17.588v16.174H-70.5v-16.174zm0 17.593v16.169H-70.5v-16.169zm0 17.594v16.168H-70.5v-16.168zm0 17.593v16.169H-70.5v-16.169zm0 17.588v16.168H-70.5v-16.168zm0 17.594v16.168H-70.5v-16.168zm0 17.593v16.169H-70.5v-16.169zm0 17.588v16.168H-70.5v-16.168zm0 17.593v16.169H-70.5v-16.169zm1.425 0h16.168v16.169h-16.168zm17.588 0h16.168v16.169h-16.169zm17.593 0H-1.55v16.169h-16.174zm17.594 0h16.168v16.169H-.13zm17.593 0h16.169v16.169H17.463zm17.588 0h16.174v16.169H35.051zm17.594 0h16.168v16.169H52.644zm17.593 0h16.168v16.169H70.238zm17.588 0h16.168v16.169H87.826zm17.593 0h16.169v16.169h-16.169zm17.594 0h16.168v16.169h-16.168zm17.588 0h16.168v16.169h-16.168zm17.593 0h16.169v16.169h-16.169zm0-1.419v-16.168h16.169v16.168zm0-17.593v-16.169h16.169v16.169zm0-17.594v-16.168h16.169v16.168zm0-17.588v-16.168h16.169v16.168zm0-17.593v-16.169h16.169v16.169zm0-17.594v-16.168h16.169v16.168zm0-17.588v-16.168h16.169v16.168zm0-17.593v-16.174h16.169v16.174zm0-17.594v-16.168h16.169v16.168zm0-17.593v-16.169h16.169v16.169zm0-17.588v-16.174h16.169v16.174zm0-17.594v-16.168h16.169v16.168zm0-17.593v-16.169h16.169v16.169zm16.169-17.588h-16.169V98.649h16.169zm-17.594 0h-16.168V98.649h16.168zm-17.588 0h-16.174V98.649h16.174zm-17.593 0h-16.169V98.649h16.169zm-17.594 0H87.826V98.649h16.168zm-17.588 0H70.232V98.649h16.174zm-17.593 0H52.644V98.649h16.169zm-17.594 0H35.051V98.649h16.168zm-17.587 0H17.463V98.649h16.169zm-17.594 0H-.13V98.649h16.168zm-17.594 0h-16.168V98.649h16.168zm-17.593 0h-16.169V98.649h16.169zm-17.588 0H-52.91V98.649h16.174zm-17.593 0H-70.5V98.649h16.169zm-17.594 0h-16.168V98.649h16.168zm0 1.419v16.169h-16.168v-16.169zm0 17.594v16.168h-16.168v-16.168zm0 17.588v16.174h-16.168v-16.174zm0 17.593v16.169h-16.168v-16.169zm0 17.594v16.168h-16.168v-16.168zm0 17.588v16.174h-16.168v-16.174zm0 17.593v16.169h-16.168v-16.169zm0 17.594v16.168h-16.168v-16.168zm0 17.593v16.169h-16.168v-16.169zm0 17.588v16.168h-16.168v-16.168zm0 17.594v16.168h-16.168v-16.168zm0 17.593v16.169h-16.168v-16.169zm0 17.588v16.168h-16.168v-16.168zm0 17.593v16.169h-16.168v-16.169zm0 17.594v16.168h-16.168v-16.168zm1.425 0h16.169v16.168H-70.5zm17.588 0h16.174v16.168H-52.91zm17.594 0h16.168v16.168h-16.169zm17.593 0h16.168v16.168h-16.168zm17.594 0h16.168v16.168H-.13zm17.587 0h16.169v16.168H17.457zm17.594 0h16.168v16.168H35.051zm17.594 0h16.168v16.168H52.644zm17.587 0h16.174v16.168H70.232zm17.594 0h16.168v16.168H87.826zm17.593 0h16.169v16.168h-16.169zm17.588 0h16.174v16.168h-16.174zm17.594 0h16.168v16.168h-16.168zm17.593 0h16.169v16.168h-16.169zm17.594 0h16.168v16.168h-16.168zm0-1.425v-16.169h16.168v16.169zm0-17.588v-16.168h16.168v16.168zm0-17.593v-16.169h16.168v16.169zm0-17.594v-16.168h16.168v16.168zm0-17.588v-16.168h16.168v16.168zm0-17.593v-16.169h16.168v16.169zm0-17.594v-16.168h16.168v16.168zm0-17.588v-16.168h16.168v16.168zm0-17.593v-16.174h16.168v16.174zm0-17.594v-16.168h16.168v16.168zm0-17.593v-16.169h16.168v16.169zm0-17.588v-16.174h16.168v16.174zm0-17.594v-16.168h16.168v16.168zm0-17.593v-16.169h16.168v16.169zm0-17.588V98.649h16.168v16.174zm16.168-17.594h-16.168V81.061h16.168zm-17.593 0h-16.169V81.061h16.169zm-17.594 0h-16.168V81.061h16.168zm-17.588 0h-16.174V81.061h16.174zm-17.593 0h-16.169V81.061h16.169zm-17.594 0H87.826V81.061h16.168zm-17.588 0H70.232V81.061h16.174zm-17.593 0H52.644V81.061h16.169zm-17.594 0H35.051V81.061h16.168zm-17.587 0H17.463V81.061h16.169zm-17.594 0H-.13V81.061h16.168zm-17.594 0h-16.168V81.061h16.168zm-17.593 0h-16.169V81.061h16.169zm-17.588 0H-52.91V81.061h16.174zm-17.593 0H-70.5V81.061h16.169zm-17.594 0h-16.168V81.061h16.168zm-17.588 0h-16.174V81.061h16.174zm0 1.42v16.174h-16.174V98.649zm0 17.593v16.169h-16.174v-16.169zm0 17.594v16.168h-16.174v-16.168zm0 17.588v16.174h-16.174v-16.174zm0 17.593v16.169h-16.174v-16.169zm0 17.594v16.168h-16.174v-16.168zm0 17.588v16.174h-16.174v-16.174zm0 17.593v16.169h-16.174v-16.169zm0 17.594v16.168h-16.174v-16.168zm0 17.593v16.169h-16.174v-16.169zm0 17.588v16.168h-16.174v-16.168zm0 17.594v16.168h-16.174v-16.168zm0 17.593v16.169h-16.174v-16.169zm0 17.588v16.168h-16.174v-16.168zm0 17.593v16.169h-16.174v-16.169zm0 17.594v16.168h-16.174v-16.168zm0 17.588v16.168h-16.174v-16.168zm1.42 0h16.168v16.168h-16.168zm17.593 0h16.169v16.168H-70.5zm17.588 0h16.174v16.168H-52.91zm17.594 0h16.168v16.168h-16.169zm17.593 0h16.168v16.168h-16.168zm17.594 0h16.168v16.168H-.13zm17.587 0h16.169v16.168H17.457zm17.594 0h16.168v16.168H35.051zm17.594 0h16.168v16.168H52.644zm17.587 0h16.174v16.168H70.232zm17.594 0h16.168v16.168H87.826zm17.593 0h16.169v16.168h-16.169zm17.588 0h16.174v16.168h-16.174zm17.594 0h16.168v16.168h-16.168zm17.593 0h16.169v16.168h-16.169zm17.594 0h16.168v16.168h-16.168zm17.588 0h16.168v16.168h-16.168zm0-1.42v-16.168h16.168v16.168zm0-17.593v-16.169h16.168v16.169zm0-17.588v-16.168h16.168v16.168zm0-17.593v-16.169h16.168v16.169zm0-17.594v-16.168h16.168v16.168zm0-17.588v-16.168h16.168v16.168zm0-17.593v-16.169h16.168v16.169zm0-17.594v-16.168h16.168v16.168zm0-17.588v-16.168h16.168v16.168zm0-17.593v-16.174h16.168v16.174zm0-17.594v-16.168h16.168v16.168zm0-17.593v-16.169h16.168v16.169zm0-17.588v-16.174h16.168v16.174zm0-17.594v-16.168h16.168v16.168zm0-17.593v-16.169h16.168v16.169zm0-17.588V98.649h16.168v16.174zm0-17.594V81.061h16.168v16.168zm16.168-17.593h-16.168V63.467h16.168zm-17.593 0h-16.169V63.467h16.169zm-17.588 0h-16.169V63.467h16.169zm-17.594 0h-16.168V63.467h16.168zm-17.593 0h-16.169V63.467h16.169zm-17.588 0h-16.169V63.467h16.169zm-17.594 0H87.826V63.467h16.168zm-17.593 0H70.232V63.467h16.169zm-17.588 0H52.644V63.467h16.169zm-17.594 0H35.051V63.467h16.168zm-17.593 0H17.457V63.467h16.169zm-17.594 0H-.136V63.467h16.168zm-17.588 0H-17.73V63.467h16.174zm-17.593 0h-16.169V63.467h16.169zm-17.594 0H-52.91V63.467h16.168zm-17.587 0h-16.175V63.467h16.175zm-17.594 0h-16.168V63.467h16.168zm-17.593 0h-16.169V63.467h16.169zm-17.588 0h-16.175V63.467h16.175zm0 1.425v16.168h-16.175V81.061zm0 17.588v16.174h-16.175V98.649zm0 17.593v16.169h-16.175v-16.169zm0 17.594v16.168h-16.175v-16.168zm0 17.588v16.174h-16.175v-16.174zm0 17.593v16.169h-16.175v-16.169zm0 17.594v16.168h-16.175v-16.168zm0 17.588v16.174h-16.175v-16.174zm0 17.593v16.169h-16.175v-16.169zm0 17.594v16.168h-16.175v-16.168zm0 17.593v16.169h-16.175v-16.169zm0 17.588v16.168h-16.175v-16.168zm0 17.594v16.168h-16.175v-16.168zm0 17.593v16.169h-16.175v-16.169zm0 17.588v16.168h-16.175v-16.168zm0 17.593v16.169h-16.175v-16.169zm0 17.594v16.168h-16.175v-16.168zm0 17.588v16.168h-16.175v-16.168zm0 17.593v16.175h-16.175V397.71zm1.419 0h16.169v16.175h-16.169zm17.594 0h16.168v16.175h-16.168zm17.587 0h16.175v16.175h-16.175zm17.594 0h16.168v16.175H-52.91zm17.594 0h16.168v16.175h-16.169zm17.587 0h16.174v16.175H-17.73zm17.594 0h16.168v16.175H-.136zm17.593 0h16.169v16.175H17.457zm17.594 0h16.168v16.175H35.051zm17.588 0h16.168v16.175H52.64zm17.593 0h16.169v16.175H70.232zm17.594 0h16.168v16.175H87.826zm17.588 0h16.168v16.175h-16.168zm17.593 0h16.169v16.175h-16.169zm17.594 0h16.168v16.175h-16.168zm17.588 0h16.168v16.175h-16.168zm17.593 0h16.169v16.175h-16.169zm17.594 0h16.168v16.175h-16.168zm17.593 0h16.169v16.175h-16.169zm0-1.419v-16.168h16.169v16.168zm0-17.594v-16.168h16.169v16.168zm0-17.593v-16.169h16.169v16.169zm0-17.588v-16.168h16.169v16.168zm0-17.593v-16.169h16.169v16.169zm0-17.594v-16.168h16.169v16.168zm0-17.588v-16.168h16.169v16.168zm0-17.593v-16.169h16.169v16.169zm0-17.594v-16.168h16.169v16.168zm0-17.588v-16.168h16.169v16.168zm0-17.593v-16.174h16.169v16.174zm0-17.594v-16.168h16.169v16.168zm0-17.593v-16.169h16.169v16.169zm0-17.588v-16.174h16.169v16.174zm0-17.594v-16.168h16.169v16.168zm0-17.593v-16.169h16.169v16.169zm0-17.588V98.649h16.169v16.174zm0-17.594V81.061h16.169v16.168zm0-17.593V63.467h16.169v16.169zm16.169-17.588h-16.169V45.874h16.169zm-17.594 0h-16.168V45.874h16.168zm-17.593 0h-16.169V45.874h16.169zm-17.594 0h-16.168V45.874h16.168zm-17.588 0h-16.168V45.874h16.168zm-17.593 0h-16.169V45.874h16.169zm-17.594 0h-16.168V45.874h16.168zm-17.588 0H87.826V45.874h16.168zm-17.593 0H70.232V45.874h16.169zm-17.594 0H52.64V45.874h16.168zm-17.588 0H35.045V45.874H51.22zm-17.593 0H17.457V45.874h16.169zm-17.594 0H-.136V45.874h16.168zm-17.593 0H-17.73V45.874H-1.56zm-17.588 0h-16.169V45.874h16.169zm-17.594 0H-52.91V45.874h16.168zm-17.593 0h-16.169V45.874h16.169zm-17.588 0h-16.168V45.874h16.168zm-17.593 0h-16.169V45.874h16.169zm-17.594 0h-16.169V45.874h16.169zm-17.588 0h-16.168V45.874h16.168zm0 1.42v16.168h-16.168V63.467zm0 17.593v16.168h-16.168V81.061zm0 17.588v16.174h-16.168V98.649zm0 17.593v16.169h-16.168v-16.169zm0 17.594v16.168h-16.168v-16.168zm0 17.588v16.174h-16.168v-16.174zm0 17.593v16.169h-16.168v-16.169zm0 17.594v16.168h-16.168v-16.168zm0 17.588v16.174h-16.168v-16.174zm0 17.593v16.169h-16.168v-16.169zm0 17.594v16.168h-16.168v-16.168zm0 17.593v16.169h-16.168v-16.169zm0 17.588v16.168h-16.168v-16.168zm0 17.594v16.168h-16.168v-16.168zm0 17.593v16.169h-16.168v-16.169zm0 17.588v16.168h-16.168v-16.168zm0 17.593v16.169h-16.168v-16.169zm0 17.594v16.168h-16.168v-16.168zm0 17.588v16.168h-16.168v-16.168zm0 17.593v16.175h-16.168V397.71zm0 17.594v16.168h-16.168v-16.168zm1.419 0h16.169v16.168h-16.169zm17.594 0h16.169v16.168h-16.169zm17.588 0h16.168v16.168h-16.168zm17.593 0h16.169v16.168h-16.169zm17.594 0h16.168v16.168H-52.91zm17.588 0h16.168v16.168h-16.168zm17.593 0H-1.56v16.168H-17.73zm17.594 0h16.168v16.168H-.136zm17.593 0H33.62v16.168H17.457zm17.588 0H51.22v16.168H35.045zm17.594 0h16.168v16.168H52.64zm17.593 0h16.169v16.168H70.232zm17.588 0h16.169v16.168H87.82zm17.594 0h16.168v16.168h-16.168zm17.593 0h16.169v16.168h-16.169zm17.588 0h16.168v16.168h-16.168zm17.594 0h16.168v16.168h-16.168zm17.593 0h16.169v16.168h-16.169zm17.594 0h16.162v16.168h-16.162zm17.588 0h16.168v16.168h-16.168zm17.593 0h16.168v16.168h-16.168zm0-1.419V397.71h16.168v16.175zm0-17.594v-16.168h16.168v16.168zm0-17.594v-16.168h16.168v16.168zm0-17.593v-16.169h16.168v16.169zm0-17.588v-16.168h16.168v16.168zm0-17.593v-16.169h16.168v16.169zm0-17.594v-16.168h16.168v16.168zm0-17.588v-16.168h16.168v16.168zm0-17.593v-16.169h16.168v16.169zm0-17.594v-16.168h16.168v16.168zm0-17.588v-16.168h16.168v16.168zm0-17.593v-16.174h16.168v16.174zm0-17.594v-16.168h16.168v16.168zm0-17.593v-16.169h16.168v16.169zm0-17.588v-16.174h16.168v16.174zm0-17.594v-16.168h16.168v16.168zm0-17.593v-16.169h16.168v16.169zm0-17.588V98.649h16.168v16.174zm0-17.594V81.061h16.168v16.168zm0-17.593V63.467h16.168v16.169zm0-17.588V45.874h16.168v16.174zm16.168-17.594h-16.168V28.286h16.168zm-17.587 0h-16.169V28.286h16.169zm-17.594 0h-16.168V28.286h16.168zm-17.593 0h-16.169V28.286h16.169zm-17.594 0h-16.168V28.286h16.168zm-17.588 0h-16.168V28.286h16.168zm-17.593 0h-16.169V28.286h16.169zm-17.594 0h-16.168V28.286h16.168zm-17.588 0H87.826V28.286h16.168zm-17.593 0H70.232V28.286h16.169zm-17.594 0H52.64V28.286h16.168zm-17.588 0H35.045V28.286H51.22zm-17.593 0H17.457V28.286h16.169zm-17.594 0H-.136V28.286h16.168zm-17.593 0H-17.73V28.286H-1.56zm-17.588 0h-16.169V28.286h16.169zm-17.594 0H-52.91V28.286h16.168zm-17.593 0h-16.169V28.286h16.169zm-17.588 0h-16.168V28.286h16.168zm-17.593 0h-16.169V28.286h16.169zm-17.594 0h-16.169V28.286h16.169zm-17.588 0h-16.168V28.286h16.168zm-17.593 0h-16.169V28.286h16.169zm0 1.42v16.174h-16.169V45.874zm0 17.593v16.169h-16.169V63.467zm0 17.594v16.168h-16.169V81.061zm0 17.588v16.174h-16.169V98.649zm0 17.593v16.169h-16.169v-16.169zm0 17.594v16.168h-16.169v-16.168zm0 17.588v16.174h-16.169v-16.174zm0 17.593v16.169h-16.169v-16.169zm0 17.594v16.168h-16.169v-16.168zm0 17.588v16.174h-16.169v-16.174zm0 17.593v16.169h-16.169v-16.169zm0 17.594v16.168h-16.169v-16.168zm0 17.593v16.169h-16.169v-16.169zm0 17.588v16.168h-16.169v-16.168zm0 17.594v16.168h-16.169v-16.168zm0 17.593v16.169h-16.169v-16.169zm0 17.588v16.168h-16.169v-16.168zm0 17.593v16.169h-16.169v-16.169zm0 17.594v16.168h-16.169v-16.168zm0 17.588v16.168h-16.169v-16.168zm0 17.593v16.175h-16.169V397.71zm0 17.594v16.168h-16.169v-16.168zm0 17.593v16.169h-16.169v-16.169zm1.419 0h16.168v16.169h-16.168zm17.593 0h16.169v16.169h-16.169zm17.594 0h16.169v16.169h-16.169zm17.588 0h16.168v16.169h-16.168zm17.593 0h16.169v16.169h-16.169zm17.594 0h16.168v16.169H-52.91zm17.588 0h16.168v16.169h-16.168zm17.593 0H-1.56v16.169H-17.73zm17.594 0h16.168v16.169H-.136zm17.593 0H33.62v16.169H17.457zm17.588 0H51.22v16.169H35.045zm17.594 0h16.168v16.169H52.64zm17.593 0h16.169v16.169H70.232zm17.588 0h16.169v16.169H87.82zm17.594 0h16.168v16.169h-16.168zm17.593 0h16.169v16.169h-16.169zm17.588 0h16.168v16.169h-16.168zm17.594 0h16.168v16.169h-16.168zm17.593 0h16.169v16.169h-16.169zm17.594 0h16.162v16.169h-16.162zm17.588 0h16.168v16.169h-16.168zm17.593 0h16.168v16.169h-16.168zm17.594 0h16.168v16.169h-16.168zm0-1.425v-16.168h16.168v16.168zm0-17.587V397.71h16.168v16.175zm0-17.594v-16.168h16.168v16.168zm0-17.594v-16.168h16.168v16.168zm0-17.593v-16.169h16.168v16.169zm0-17.588v-16.168h16.168v16.168zm0-17.593v-16.169h16.168v16.169zm0-17.594v-16.168h16.168v16.168zm0-17.588v-16.168h16.168v16.168zm0-17.593v-16.169h16.168v16.169zm0-17.594v-16.168h16.168v16.168zm0-17.588v-16.168h16.168v16.168zm0-17.593v-16.174h16.168v16.174zm0-17.594v-16.168h16.168v16.168zm0-17.593v-16.169h16.168v16.169zm0-17.588v-16.174h16.168v16.174zm0-17.594v-16.168h16.168v16.168zm0-17.593v-16.169h16.168v16.169zm0-17.588V98.649h16.168v16.174zm0-17.594V81.061h16.168v16.168zm0-17.593V63.467h16.168v16.169zm0-17.588V45.874h16.168v16.174zm0-17.594V28.286h16.168v16.168zm16.168-17.593h-16.168V10.704h16.168v16.168zm-17.594 0h-16.168V10.704h16.168v16.168zm-17.593 0h-16.168V10.704h16.168v16.168zm-17.594 0h-16.162V10.704h16.162v16.168zm-17.587 0h-16.175V10.704h16.175v16.168zm-17.594 0h-16.168V10.704h16.168v16.168zm-17.594 0h-16.168V10.704h16.168v16.168zm-17.587 0h-16.174V10.704h16.174v16.168zm-17.594 0h-16.168V10.704h16.168v16.168zm-17.593 0H87.82V10.704h16.169v16.168zm-17.588 0H70.227V10.704H86.4v16.168zm-17.594 0H52.64V10.704h16.168v16.168zm-17.593 0H35.045V10.704h16.169v16.168zm-17.588 0H17.457V10.704h16.169v16.168zm-17.594 0H-.142V10.704h16.174v16.168zm-17.593 0H-17.73V10.704H-1.56v16.168zm-17.594 0h-16.168V10.704h16.168v16.168zm-17.588 0h-16.174V10.704h16.174v16.168zm-17.593 0h-16.169V10.704h16.169v16.168zm-17.594 0h-16.168V10.704h16.168v16.168zm-17.587 0h-16.175V10.704h16.174v16.168zm-17.594 0h-16.169V10.704h16.169v16.168zm-17.594 0h-16.168V10.704h16.168v16.168zm-17.587 0h-16.175V10.704h16.175v16.168zm-17.594 0h-16.146V10.704h16.175v16.168zm0 1.42v16.168h-16.146V28.28h16.175zm0 17.593v16.174h-16.146V45.874h16.175zm0 17.593v16.169h-16.146V63.467h16.175zm0 17.594v16.168h-16.146V81.061h16.175zm0 17.588v16.174h-16.146V98.649h16.175zm0 17.593v16.169h-16.146v-16.169h16.175zm0 17.594v16.168h-16.146v-16.168h16.175zm0 17.588v16.174h-16.146v-16.174h16.175zm0 17.593v16.169h-16.146v-16.169h16.175zm0 17.594v16.168h-16.146v-16.168h16.175zm0 17.588v16.174h-16.146v-16.174h16.175zm0 17.593v16.169h-16.146v-16.169h16.175zm0 17.594v16.168h-16.146v-16.168h16.175zm0 17.593v16.169h-16.146v-16.169h16.175zm0 17.588v16.168h-16.146v-16.168h16.175zm0 17.594v16.168h-16.146v-16.168h16.175zm0 17.593v16.169h-16.146v-16.169h16.175zm0 17.588v16.168h-16.146v-16.168h16.175zm0 17.593v16.169h-16.146v-16.169h16.175zm0 17.594v16.168h-16.146v-16.168h16.175zm0 17.588v16.168h-16.146v-16.168h16.175zm0 17.593v16.175h-16.146V397.71h16.175zm0 17.594v16.168h-16.146v-16.168h16.175zm0 17.593v16.169h-16.146v-16.169h16.175zm0 17.588v16.169h-16.146v-16.169h16.175zm1.419 0h16.175v16.169h-16.175zm17.594 0h16.168v16.169h-16.168zm17.593 0h16.169v16.169h-16.169zm17.588 0h16.174v16.169h-16.174zm17.594 0h16.168v16.169h-16.168zm17.593 0h16.169v16.169h-16.169zm17.588 0h16.174v16.169h-16.174zm17.594 0h16.168v16.169h-16.168zm17.593 0H-1.56v16.169H-17.73zm17.588 0h16.174v16.169H-.142zm17.594 0H33.62v16.169H17.452zm17.593 0h16.169v16.169H35.045zm17.594 0h16.168v16.169H52.64zm17.588 0H86.4v16.169H70.227zm17.593 0h16.169v16.169H87.82zm17.594 0h16.168v16.169h-16.168zm17.588 0h16.174v16.169h-16.174zm17.593 0h16.168v16.169h-16.168zm17.594 0h16.168v16.169h-16.168zm17.587 0h16.175v16.169h-16.175zm17.594 0h16.168v16.169H193.37zm17.594 0h16.168v16.169h-16.168zm17.593 0h16.168v16.169h-16.168zm17.588 0h16.168v16.169h-16.168zm17.593 0h16.169v16.169h-16.169zm0-1.419v-16.169h16.169v16.169zm0-17.594v-16.168h16.169v16.168zm0-17.587V397.71h16.169v16.175zm0-17.594v-16.168h16.169v16.168zm0-17.594v-16.168h16.169v16.168zm0-17.593v-16.169h16.169v16.169zm0-17.588v-16.168h16.169v16.168zm0-17.593v-16.169h16.169v16.169zm0-17.594v-16.168h16.169v16.168zm0-17.588v-16.168h16.169v16.168zm0-17.593v-16.169h16.169v16.169zm0-17.594v-16.168h16.169v16.168zm0-17.588v-16.168h16.169v16.168zm0-17.593v-16.174h16.169v16.174zm0-17.594v-16.168h16.169v16.168zm0-17.593v-16.169h16.169v16.169zm0-17.588v-16.174h16.169v16.174zm0-17.594v-16.168h16.169v16.168zm0-17.593v-16.169h16.169v16.169zm0-17.588V98.649h16.169v16.174zm0-17.594V81.061h16.169v16.168zm0-17.593V63.467h16.169v16.169zm0-17.588V45.874h16.169v16.174zm0-17.594V28.286h16.169v16.168zm0-17.593V10.704h16.169v16.168h-16.169z"/></mask><g mask="url(#b)"><path fill="url(#c)" d="M-185 .67h473.881v473.882H-185z"/></g></g></g><defs><radialGradient id="c" cx="0" cy="0" r="1" gradientTransform="rotate(90 -92.835 144.776)scale(236.941)" gradientUnits="userSpaceOnUse"><stop stop-color="#50D2E0"/><stop offset="1" stop-color="#2C727A" stop-opacity="0"/></radialGradient></defs></svg>