<svg xmlns="http://www.w3.org/2000/svg" width="474" height="474" fill="none"><g opacity=".45"><mask id="a" width="474" height="474" x="0" y="0" maskUnits="userSpaceOnUse" style="mask-type:luminance"><path fill="#fff" d="M0 0h473.881v473.881H0z"/></mask><g mask="url(#a)"><mask id="b" width="474" height="474" x="0" y="0" maskUnits="userSpaceOnUse" style="mask-type:luminance"><path fill="#fff" d="M466.332 8.614V0h-1.419v8.614h-16.169V0h-1.419v8.614h-16.169V0h-1.425v8.614h-16.168V0h-1.42v8.614h-16.168V0h-1.425v8.614h-16.169V0h-1.419v8.614h-16.168V0h-1.426v8.614H343.2V0h-1.419v8.614h-16.169V0h-1.419v8.614h-16.174V0h-1.42v8.614h-16.168V0h-1.425v8.614h-16.169V0h-1.419v8.614h-16.169V0h-1.425v8.614h-16.168V0h-1.419v8.614h-16.169V0h-1.425v8.614h-16.168V0h-1.42v8.614h-16.168V0h-1.425v8.614h-16.169V0h-1.419v8.614h-16.169V0h-1.425v8.614h-16.168V0h-1.42v8.614h-16.174V0h-1.419v8.614H96.93V0h-1.419v8.614H79.337V0h-1.42v8.614H61.75V0h-1.425v8.614H44.156V0h-1.42v8.614H26.562V0h-1.42v8.614H8.969V0H7.55v8.614H0v1.419h7.55v16.168H0v1.426h7.55v16.168H0v1.42h7.55v16.168H0v1.425h7.55v16.168H0v1.42h7.55v16.168H0v1.425h7.55v16.169H0v1.419h7.55v16.174H0v1.42h7.55v16.168H0v1.419h7.55v16.175H0v1.419h7.55v16.168H0v1.426h7.55v16.168H0v1.419h7.55v16.175H0v1.419h7.55v16.168H0v1.42h7.55v16.174H0v1.419h7.55v16.169H0v1.419h7.55v16.169H0v1.425h7.55v16.168H0v1.42h7.55v16.168H0v1.425h7.55v16.168H0v1.42h7.55v16.168H0v1.425h7.55v16.169H0v1.419h7.55v16.169H0v1.419h7.55v16.174H0v1.42h7.55v16.168H0v1.419h7.55v16.175H0v1.419h7.55v16.168H0v1.426h7.55v6.484h1.418v-6.484h16.175v6.484h1.419v-6.484H42.73v6.484h1.426v-6.484h16.168v6.484h1.42v-6.484h16.168v6.484h1.425v-6.484h16.168v6.484h1.425v-6.484H113.1v6.484h1.419v-6.484h16.169v6.484h1.425v-6.484h16.168v6.484h1.42v-6.484h16.168v6.484h1.425v-6.484h16.169v6.484h1.419v-6.484h16.174v6.484h1.42v-6.484h16.168v6.484h1.419v-6.484h16.175v6.484h1.419v-6.484h16.168v6.484h1.42v-6.484h16.174v6.484h1.419v-6.484h16.169v6.484h1.419v-6.484h16.169v6.484h1.425v-6.484h16.168v6.484h1.425v-6.484h16.169v6.484h1.419v-6.484h16.168v6.484h1.42v-6.484h16.174v6.484h1.419v-6.484h16.169v6.484h1.419v-6.484h16.169v6.484h1.425v-6.484h16.168v6.484h1.42v-6.484h16.168v6.484h1.425v-6.484h16.169v6.484h1.419v-6.484h7.549v-1.426h-7.549v-16.168h7.549v-1.419h-7.549v-16.175h7.549v-1.419h-7.549v-16.168h7.549v-1.42h-7.549v-16.174h7.549v-1.419h-7.549V379.44h7.549v-1.419h-7.549v-16.169h7.549v-1.425h-7.549v-16.168h7.549v-1.42h-7.549v-16.168h7.549v-1.425h-7.549v-16.168h7.549v-1.42h-7.549V291.49h7.549v-1.425h-7.549v-16.169h7.549v-1.419h-7.549v-16.169h7.549v-1.419h-7.549v-16.174h7.549v-1.42h-7.549v-16.168h7.549v-1.419h-7.549v-16.175h7.549v-1.419h-7.549v-16.168h7.549v-1.426h-7.549v-16.168h7.549v-1.419h-7.549v-16.175h7.549v-1.419h-7.549v-16.168h7.549v-1.42h-7.549v-16.174h7.549v-1.419h-7.549V97.989h7.549v-1.425h-7.549V80.396h7.549v-1.42h-7.549V62.808h7.549v-1.425h-7.549V45.214h7.549v-1.419h-7.549V27.627h7.549V26.2h-7.549V10.033h7.549v-1.42zM236.231 237.295h-16.169v-16.168h16.169zm0 1.42v16.168h-16.169v-16.168zm1.419 0h16.169v16.168H237.65zm0-1.42v-16.168h16.169v16.168zm16.169-17.593H237.65v-16.174h16.169zm-17.588 0h-16.174v-16.174h16.174zm-17.594 0h-16.168v-16.174h16.168zm0 1.419v16.169h-16.168v-16.169zm0 17.594v16.168h-16.168v-16.168zm0 17.593v16.169h-16.168v-16.169zm1.42 0h16.174v16.169h-16.174zm17.593 0h16.169v16.169H237.65zm17.594 0h16.168v16.169h-16.168zm0-1.425v-16.168h16.168v16.168zm0-17.588v-16.168h16.168v16.168zm0-17.593v-16.174h16.168v16.174zm16.168-17.594h-16.168V185.94h16.168zm-17.593 0H237.65V185.94h16.169zm-17.588 0h-16.174V185.94h16.174zm-17.594 0h-16.168V185.94h16.168zm-17.593 0h-16.169V185.94h16.169zm0 1.42v16.174h-16.169v-16.174zm0 17.593v16.169h-16.169v-16.169zm0 17.594v16.168h-16.169v-16.168zm0 17.593v16.169h-16.169v-16.169zm0 17.588v16.169h-16.169v-16.169zm1.425 0h16.168v16.169h-16.168zm17.588 0h16.174v16.169h-16.174zm17.593 0h16.169v16.169H237.65zm17.594 0h16.168v16.169h-16.168zm17.588 0H289v16.169h-16.168zm0-1.419v-16.169H289v16.169zm0-17.594v-16.168H289v16.168zm0-17.588v-16.168H289v16.168zm0-17.593v-16.174H289v16.174zm0-17.594V185.94H289v16.168zM289 184.515h-16.168v-16.169H289zm-17.588 0h-16.174v-16.169h16.174zm-17.593 0H237.65v-16.169h16.169zm-17.594 0h-16.168v-16.169h16.168zm-17.588 0h-16.168v-16.169h16.168zm-17.593 0h-16.169v-16.169h16.169zm-17.594 0h-16.168v-16.169h16.168zm0 1.425v16.168h-16.168V185.94zm0 17.588v16.174h-16.168v-16.174zm0 17.593v16.169h-16.168v-16.169zm0 17.594v16.168h-16.168v-16.168zm0 17.593v16.169h-16.168v-16.169zm0 17.588v16.169h-16.168v-16.169zm0 17.594v16.168h-16.168V291.49zm1.425 0h16.169v16.168h-16.169zm17.588 0h16.169v16.168h-16.169zm17.594 0h16.168v16.168h-16.168zm17.593 0h16.169v16.168H237.65zm17.588 0h16.174v16.168h-16.174zm17.594 0H289v16.168h-16.168zm17.593 0h16.169v16.168h-16.169zm0-1.42v-16.168h16.169v16.168zm0-17.593v-16.169h16.169v16.169zm0-17.594v-16.168h16.169v16.168zm0-17.588v-16.168h16.169v16.168zm0-17.593v-16.174h16.169v16.174zm0-17.594V185.94h16.169v16.168zm0-17.593v-16.169h16.169v16.169zm16.169-17.588h-16.169v-16.174h16.169zm-17.594 0h-16.168v-16.174H289zm-17.594 0h-16.168v-16.174h16.168zm-17.587 0H237.65v-16.174h16.169zm-17.594 0h-16.168v-16.174h16.168zm-17.593 0h-16.169v-16.174h16.169zm-17.588 0H184.87v-16.174h16.174zm-17.594 0h-16.168v-16.174h16.168zm-17.593 0h-16.169v-16.174h16.169zm0 1.419v16.169h-16.169v-16.169zm0 17.594v16.168h-16.169V185.94zm0 17.588v16.174h-16.169v-16.174zm0 17.593v16.169h-16.169v-16.169zm0 17.594v16.168h-16.169v-16.168zm0 17.593v16.169h-16.169v-16.169zm0 17.588v16.169h-16.169v-16.169zm0 17.594v16.168h-16.169V291.49zm0 17.593v16.169h-16.169v-16.169zm1.425 0h16.168v16.169h-16.168zm17.588 0h16.174v16.169H184.87zm17.593 0h16.169v16.169h-16.169zm17.594 0h16.168v16.169h-16.168zm17.588 0h16.168v16.169h-16.168zm17.593 0h16.168v16.169h-16.168zm17.594 0H289v16.169h-16.168zm17.587 0h16.169v16.169h-16.169zm17.594 0h16.168v16.169h-16.168zm0-1.425V291.49h16.168v16.168zm0-17.588v-16.168h16.168v16.168zm0-17.593v-16.169h16.168v16.169zm0-17.594v-16.168h16.168v16.168zm0-17.588v-16.168h16.168v16.168zm0-17.593v-16.174h16.168v16.174zm0-17.594V185.94h16.168v16.168zm0-17.593v-16.169h16.168v16.169zm0-17.588v-16.174h16.168v16.174zm16.168-17.594h-16.168v-16.168h16.168zm-17.587 0h-16.169v-16.168h16.169zm-17.594 0h-16.168v-16.168H289zm-17.594 0h-16.168v-16.168h16.168zm-17.587 0H237.65v-16.168h16.169zm-17.594 0h-16.168v-16.168h16.168zm-17.593 0h-16.169v-16.168h16.169zm-17.588 0H184.87v-16.168h16.174zm-17.594 0h-16.168v-16.168h16.168zm-17.593 0h-16.169v-16.168h16.169zm-17.594 0h-16.168v-16.168h16.168zm0 1.42v16.174h-16.168v-16.174zm0 17.593v16.169h-16.168v-16.169zm0 17.594v16.168h-16.168V185.94zm0 17.588v16.174h-16.168v-16.174zm0 17.593v16.169h-16.168v-16.169zm0 17.594v16.168h-16.168v-16.168zm0 17.593v16.169h-16.168v-16.169zm0 17.588v16.169h-16.168v-16.169zm0 17.594v16.168h-16.168V291.49zm0 17.593v16.169h-16.168v-16.169zm0 17.588v16.168h-16.168v-16.168zm1.425 0h16.169v16.168h-16.169zm17.594 0h16.168v16.168h-16.168zm17.588 0h16.174v16.168H184.87zm17.593 0h16.169v16.168h-16.169zm17.594 0h16.168v16.168h-16.168zm17.588 0h16.168v16.168h-16.168zm17.593 0h16.168v16.168h-16.168zm17.594 0H289v16.168h-16.168zm17.587 0h16.169v16.168h-16.169zm17.594 0h16.168v16.168h-16.168zm17.594 0h16.168v16.168h-16.168zm0-1.419v-16.169h16.168v16.169zm0-17.594V291.49h16.168v16.168zm0-17.588v-16.168h16.168v16.168zm0-17.593v-16.169h16.168v16.169zm0-17.594v-16.168h16.168v16.168zm0-17.588v-16.168h16.168v16.168zm0-17.593v-16.174h16.168v16.174zm0-17.594V185.94h16.168v16.168zm0-17.593v-16.169h16.168v16.169zm0-17.588v-16.174h16.168v16.174zm0-17.594v-16.168h16.168v16.168zm16.168-17.593h-16.168v-16.169h16.168zm-17.594 0h-16.168v-16.169h16.168zm-17.593 0h-16.169v-16.169h16.169zm-17.588 0h-16.168v-16.169H289zm-17.594 0h-16.168v-16.169h16.168zm-17.593 0h-16.168v-16.169h16.168zm-17.588 0h-16.174v-16.169h16.174zm-17.593 0h-16.169v-16.169h16.169zm-17.594 0H184.87v-16.169h16.168zm-17.588 0h-16.174v-16.169h16.174zm-17.593 0h-16.169v-16.169h16.169zm-17.594 0h-16.168v-16.169h16.168zm-17.593 0h-16.169v-16.169h16.169zm0 1.425v16.168h-16.169v-16.168zm0 17.588v16.174h-16.169v-16.174zm0 17.593v16.169h-16.169v-16.169zm0 17.594v16.168h-16.169V185.94zm0 17.588v16.174h-16.169v-16.174zm0 17.593v16.169h-16.169v-16.169zm0 17.594v16.168h-16.169v-16.168zm0 17.593v16.169h-16.169v-16.169zm0 17.588v16.169h-16.169v-16.169zm0 17.594v16.168h-16.169V291.49zm0 17.593v16.169h-16.169v-16.169zm0 17.588v16.168h-16.169v-16.168zm0 17.594v16.168h-16.169v-16.168zm1.425 0h16.168v16.168h-16.168zm17.587 0h16.169v16.168h-16.169zm17.594 0h16.174v16.168h-16.174zm17.594 0h16.168v16.168H184.87zm17.593 0h16.169v16.168h-16.169zm17.588 0h16.174v16.168h-16.174zm17.594 0h16.168v16.168h-16.168zm17.593 0h16.168v16.168h-16.168zm17.588 0h16.168v16.168h-16.168zm17.593 0h16.169v16.168h-16.169zm17.594 0h16.168v16.168h-16.168zm17.588 0h16.168v16.168h-16.168zm17.593 0h16.169v16.168h-16.169zm0-1.42v-16.168h16.169v16.168zm0-17.593v-16.169h16.169v16.169zm0-17.594V291.49h16.169v16.168zm0-17.588v-16.168h16.169v16.168zm0-17.593v-16.169h16.169v16.169zm0-17.594v-16.168h16.169v16.168zm0-17.588v-16.168h16.169v16.168zm0-17.593v-16.174h16.169v16.174zm0-17.594V185.94h16.169v16.168zm0-17.593v-16.169h16.169v16.169zm0-17.588v-16.174h16.169v16.174zm0-17.594v-16.168h16.169v16.168zm0-17.593v-16.169h16.169v16.169zm16.169-17.588h-16.169V97.978h16.169zm-17.594 0h-16.168V97.978h16.168zm-17.588 0h-16.174V97.978h16.174zm-17.593 0h-16.169V97.978h16.169zm-17.594 0h-16.168V97.978h16.168zm-17.588 0h-16.174V97.978h16.174zm-17.593 0h-16.168V97.978h16.168zm-17.594 0h-16.168V97.978h16.168zm-17.587 0h-16.169V97.978h16.169zm-17.594 0H184.87V97.978h16.168zm-17.594 0h-16.168V97.978h16.168zm-17.593 0h-16.169V97.978h16.169zm-17.588 0h-16.174V97.978h16.174zm-17.593 0h-16.169V97.978h16.169zm-17.594 0H96.908V97.978h16.168zm0 1.419v16.169H96.908v-16.169zm0 17.594v16.168H96.908v-16.168zm0 17.588v16.174H96.908v-16.174zm0 17.593v16.169H96.908v-16.169zm0 17.594v16.168H96.908V185.94zm0 17.588v16.174H96.908v-16.174zm0 17.593v16.169H96.908v-16.169zm0 17.594v16.168H96.908v-16.168zm0 17.593v16.169H96.908v-16.169zm0 17.588v16.169H96.908v-16.169zm0 17.594v16.168H96.908V291.49zm0 17.593v16.169H96.908v-16.169zm0 17.588v16.168H96.908v-16.168zm0 17.594v16.168H96.908v-16.168zm0 17.593v16.169H96.908v-16.169zm1.425 0h16.169v16.169h-16.169zm17.588 0h16.174v16.169h-16.174zm17.593 0h16.169v16.169h-16.169zm17.594 0h16.168v16.169h-16.168zm17.594 0h16.168v16.169H184.87zm17.587 0h16.169v16.169h-16.169zm17.594 0h16.168v16.169h-16.168zm17.594 0h16.168v16.169h-16.168zm17.587 0h16.174v16.169h-16.174zm17.594 0h16.168v16.169h-16.168zm17.593 0h16.169v16.169h-16.169zm17.588 0h16.174v16.169h-16.174zm17.594 0h16.168v16.169h-16.168zm17.593 0h16.169v16.169h-16.169zm17.594 0h16.168v16.169h-16.168zm0-1.425v-16.168h16.168v16.168zm0-17.588v-16.168h16.168v16.168zm0-17.593v-16.169h16.168v16.169zm0-17.594V291.49h16.168v16.168zm0-17.588v-16.168h16.168v16.168zm0-17.593v-16.169h16.168v16.169zm0-17.594v-16.168h16.168v16.168zm0-17.588v-16.168h16.168v16.168zm0-17.593v-16.174h16.168v16.174zm0-17.594V185.94h16.168v16.168zm0-17.593v-16.169h16.168v16.169zm0-17.588v-16.174h16.168v16.174zm0-17.594v-16.168h16.168v16.168zm0-17.593v-16.169h16.168v16.169zm0-17.588V97.978h16.168v16.174zm16.168-17.594h-16.168V80.39h16.168zm-17.593 0h-16.169V80.39h16.169zm-17.594 0h-16.168V80.39h16.168zm-17.588 0h-16.174V80.39h16.174zm-17.593 0h-16.169V80.39h16.169zm-17.594 0h-16.168V80.39h16.168zm-17.588 0h-16.174V80.39h16.174zm-17.593 0h-16.168V80.39h16.168zm-17.594 0h-16.168V80.39h16.168zm-17.587 0h-16.169V80.39h16.169zm-17.594 0H184.87V80.39h16.168zm-17.594 0h-16.168V80.39h16.168zm-17.593 0h-16.169V80.39h16.169zm-17.588 0h-16.174V80.39h16.174zm-17.593 0h-16.169V80.39h16.169zm-17.594 0H96.908V80.39h16.168zm-17.588 0H79.314V80.39h16.174zm0 1.42v16.174H79.314V97.978zm0 17.593v16.169H79.314v-16.169zm0 17.594v16.168H79.314v-16.168zm0 17.588v16.174H79.314v-16.174zm0 17.593v16.169H79.314v-16.169zm0 17.594v16.168H79.314V185.94zm0 17.588v16.174H79.314v-16.174zm0 17.593v16.169H79.314v-16.169zm0 17.594v16.168H79.314v-16.168zm0 17.593v16.169H79.314v-16.169zm0 17.588v16.169H79.314v-16.169zm0 17.594v16.168H79.314V291.49zm0 17.593v16.169H79.314v-16.169zm0 17.588v16.168H79.314v-16.168zm0 17.594v16.168H79.314v-16.168zm0 17.593v16.169H79.314v-16.169zm0 17.588v16.168H79.314v-16.168zm1.42 0h16.168v16.168H96.908zm17.593 0h16.169v16.168h-16.169zm17.588 0h16.174v16.168h-16.174zm17.593 0h16.169v16.168h-16.169zm17.594 0h16.168v16.168h-16.168zm17.594 0h16.168v16.168H184.87zm17.587 0h16.169v16.168h-16.169zm17.594 0h16.168v16.168h-16.168zm17.594 0h16.168v16.168h-16.168zm17.587 0h16.174v16.168h-16.174zm17.594 0h16.168v16.168h-16.168zm17.593 0h16.169v16.168h-16.169zm17.588 0h16.174v16.168h-16.174zm17.594 0h16.168v16.168h-16.168zm17.593 0h16.169v16.168h-16.169zm17.594 0h16.168v16.168h-16.168zm17.588 0h16.168v16.168h-16.168zm0-1.419v-16.169h16.168v16.169zm0-17.594v-16.168h16.168v16.168zm0-17.588v-16.168h16.168v16.168zm0-17.593v-16.169h16.168v16.169zm0-17.594V291.49h16.168v16.168zm0-17.588v-16.168h16.168v16.168zm0-17.593v-16.169h16.168v16.169zm0-17.594v-16.168h16.168v16.168zm0-17.588v-16.168h16.168v16.168zm0-17.593v-16.174h16.168v16.174zm0-17.594V185.94h16.168v16.168zm0-17.593v-16.169h16.168v16.169zm0-17.588v-16.174h16.168v16.174zm0-17.594v-16.168h16.168v16.168zm0-17.593v-16.169h16.168v16.169zm0-17.588V97.978h16.168v16.174zm0-17.594V80.39h16.168v16.168zm16.168-17.593h-16.168V62.796h16.168zm-17.593 0h-16.169V62.796h16.169zm-17.588 0h-16.169V62.796h16.169zm-17.594 0h-16.168V62.796h16.168zm-17.593 0h-16.169V62.796h16.169zm-17.588 0h-16.169V62.796h16.169zm-17.594 0h-16.168V62.796h16.168zm-17.593 0h-16.169V62.796h16.169zm-17.588 0h-16.168V62.796h16.168zm-17.594 0h-16.168V62.796h16.168zm-17.593 0h-16.169V62.796h16.169zm-17.594 0h-16.168V62.796h16.168zm-17.588 0H167.27V62.796h16.174zm-17.593 0h-16.169V62.796h16.169zm-17.594 0h-16.168V62.796h16.168zm-17.587 0h-16.175V62.796h16.175zm-17.594 0H96.908V62.796h16.168zm-17.593 0H79.314V62.796h16.169zm-17.588 0H61.72V62.796h16.174zm0 1.425v16.168H61.72V80.39zm0 17.588v16.174H61.72V97.978zm0 17.593v16.169H61.72v-16.169zm0 17.594v16.168H61.72v-16.168zm0 17.588v16.174H61.72v-16.174zm0 17.593v16.169H61.72v-16.169zm0 17.594v16.168H61.72V185.94zm0 17.588v16.174H61.72v-16.174zm0 17.593v16.169H61.72v-16.169zm0 17.594v16.168H61.72v-16.168zm0 17.593v16.169H61.72v-16.169zm0 17.588v16.169H61.72v-16.169zm0 17.594v16.168H61.72V291.49zm0 17.593v16.169H61.72v-16.169zm0 17.588v16.168H61.72v-16.168zm0 17.594v16.168H61.72v-16.168zm0 17.593v16.169H61.72v-16.169zm0 17.588v16.168H61.72v-16.168zm0 17.594v16.174H61.72V397.04zm1.419 0h16.169v16.174H79.314zm17.594 0h16.168v16.174H96.908zm17.587 0h16.175v16.174h-16.175zm17.594 0h16.168v16.174h-16.168zm17.593 0h16.169v16.174h-16.169zm17.588 0h16.174v16.174H167.27zm17.594 0h16.168v16.174h-16.168zm17.593 0h16.169v16.174h-16.169zm17.594 0h16.168v16.174h-16.168zm17.588 0h16.168v16.174h-16.168zm17.593 0h16.169v16.174h-16.169zm17.594 0h16.168v16.174h-16.168zm17.588 0h16.168v16.174h-16.168zm17.593 0h16.169v16.174h-16.169zm17.594 0h16.168v16.174h-16.168zm17.588 0h16.168v16.174h-16.168zm17.593 0h16.169v16.174h-16.169zm17.594 0h16.168v16.174h-16.168zm17.593 0h16.169v16.174h-16.169zm0-1.42v-16.168h16.169v16.168zm0-17.593v-16.169h16.169v16.169zm0-17.594v-16.168h16.169v16.168zm0-17.588v-16.168h16.169v16.168zm0-17.593v-16.169h16.169v16.169zm0-17.594V291.49h16.169v16.168zm0-17.588v-16.168h16.169v16.168zm0-17.593v-16.169h16.169v16.169zm0-17.594v-16.168h16.169v16.168zm0-17.588v-16.168h16.169v16.168zm0-17.593v-16.174h16.169v16.174zm0-17.594V185.94h16.169v16.168zm0-17.593v-16.169h16.169v16.169zm0-17.588v-16.174h16.169v16.174zm0-17.594v-16.168h16.169v16.168zm0-17.593v-16.169h16.169v16.169zm0-17.588V97.978h16.169v16.174zm0-17.594V80.39h16.169v16.168zm0-17.593V62.796h16.169v16.169zm16.169-17.588h-16.169V45.203h16.169zm-17.594 0h-16.168V45.203h16.168zm-17.593 0h-16.169V45.203h16.169zm-17.594 0h-16.168V45.203h16.168zm-17.588 0h-16.168V45.203h16.168zm-17.593 0h-16.169V45.203h16.169zm-17.594 0h-16.168V45.203h16.168zm-17.588 0h-16.168V45.203h16.168zm-17.593 0h-16.169V45.203h16.169zm-17.594 0h-16.168V45.203h16.168zm-17.588 0h-16.174V45.203h16.174zm-17.593 0h-16.169V45.203h16.169zm-17.594 0h-16.168V45.203h16.168zm-17.593 0H167.27V45.203h16.169zm-17.588 0h-16.169V45.203h16.169zm-17.594 0h-16.168V45.203h16.168zm-17.593 0h-16.169V45.203h16.169zm-17.588 0H96.908V45.203h16.168zm-17.593 0H79.314V45.203h16.169zm-17.594 0H61.72V45.203h16.168zm-17.588 0H44.133V45.203H60.3zm0 1.42v16.168H44.133V62.796zm0 17.593v16.168H44.133V80.39zm0 17.588v16.174H44.133V97.978zm0 17.593v16.169H44.133v-16.169zm0 17.594v16.168H44.133v-16.168zm0 17.588v16.174H44.133v-16.174zm0 17.593v16.169H44.133v-16.169zm0 17.594v16.168H44.133V185.94zm0 17.588v16.174H44.133v-16.174zm0 17.593v16.169H44.133v-16.169zm0 17.594v16.168H44.133v-16.168zm0 17.593v16.169H44.133v-16.169zm0 17.588v16.169H44.133v-16.169zm0 17.594v16.168H44.133V291.49zm0 17.593v16.169H44.133v-16.169zm0 17.588v16.168H44.133v-16.168zm0 17.594v16.168H44.133v-16.168zm0 17.593v16.169H44.133v-16.169zm0 17.588v16.168H44.133v-16.168zm0 17.594v16.174H44.133V397.04zm0 17.593v16.168H44.133v-16.168zm1.42 0h16.168v16.168H61.72zm17.593 0h16.169v16.168H79.314zm17.588 0h16.168v16.168H96.902zm17.593 0h16.169v16.168h-16.169zm17.594 0h16.168v16.168h-16.168zm17.588 0h16.168v16.168h-16.168zm17.593 0h16.169v16.168H167.27zm17.594 0h16.168v16.168h-16.168zm17.593 0h16.163v16.168h-16.163zm17.588 0h16.174v16.168h-16.174zm17.594 0h16.168v16.168h-16.168zm17.593 0h16.169v16.168h-16.169zm17.588 0h16.169v16.168H272.82zm17.594 0h16.168v16.168h-16.168zm17.593 0h16.169v16.168h-16.169zm17.588 0h16.168v16.168h-16.168zm17.594 0h16.168v16.168h-16.168zm17.593 0h16.169v16.168h-16.169zm17.594 0h16.162v16.168h-16.162zm17.588 0h16.168v16.168h-16.168zm17.593 0h16.168v16.168h-16.168zm0-1.419V397.04h16.168v16.174zm0-17.594v-16.168h16.168v16.168zm0-17.593v-16.169h16.168v16.169zm0-17.594v-16.168h16.168v16.168zm0-17.588v-16.168h16.168v16.168zm0-17.593v-16.169h16.168v16.169zm0-17.594V291.49h16.168v16.168zm0-17.588v-16.168h16.168v16.168zm0-17.593v-16.169h16.168v16.169zm0-17.594v-16.168h16.168v16.168zm0-17.588v-16.168h16.168v16.168zm0-17.593v-16.174h16.168v16.174zm0-17.594V185.94h16.168v16.168zm0-17.593v-16.169h16.168v16.169zm0-17.588v-16.174h16.168v16.174zm0-17.594v-16.168h16.168v16.168zm0-17.593v-16.169h16.168v16.169zm0-17.588V97.978h16.168v16.174zm0-17.594V80.39h16.168v16.168zm0-17.593V62.796h16.168v16.169zm0-17.588V45.203h16.168v16.174zm16.168-17.594h-16.168V27.615h16.168zm-17.587 0h-16.169V27.615h16.169zm-17.594 0h-16.168V27.615h16.168zm-17.593 0h-16.169V27.615h16.169zm-17.594 0h-16.168V27.615h16.168zm-17.588 0h-16.168V27.615h16.168zm-17.593 0h-16.169V27.615h16.169zm-17.594 0h-16.168V27.615h16.168zm-17.588 0h-16.168V27.615h16.168zm-17.593 0h-16.169V27.615h16.169zm-17.594 0h-16.168V27.615h16.168zm-17.588 0h-16.174V27.615h16.174zm-17.593 0h-16.169V27.615h16.169zm-17.594 0h-16.168V27.615h16.168zm-17.593 0H167.27V27.615h16.169zm-17.588 0h-16.169V27.615h16.169zm-17.594 0h-16.168V27.615h16.168zm-17.593 0h-16.169V27.615h16.169zm-17.588 0H96.908V27.615h16.168zm-17.593 0H79.314V27.615h16.169zm-17.594 0H61.72V27.615h16.168zm-17.588 0H44.133V27.615H60.3zm-17.593 0H26.539V27.615h16.169zm0 1.42v16.174H26.539V45.203zm0 17.594v16.168H26.539V62.796zm0 17.593v16.168H26.539V80.39zm0 17.588v16.174H26.539V97.978zm0 17.593v16.169H26.539v-16.169zm0 17.594v16.168H26.539v-16.168zm0 17.588v16.174H26.539v-16.174zm0 17.593v16.169H26.539v-16.169zm0 17.594v16.168H26.539V185.94zm0 17.588v16.174H26.539v-16.174zm0 17.593v16.169H26.539v-16.169zm0 17.594v16.168H26.539v-16.168zm0 17.593v16.169H26.539v-16.169zm0 17.588v16.169H26.539v-16.169zm0 17.594v16.168H26.539V291.49zm0 17.593v16.169H26.539v-16.169zm0 17.588v16.168H26.539v-16.168zm0 17.594v16.168H26.539v-16.168zm0 17.593v16.169H26.539v-16.169zm0 17.588v16.168H26.539v-16.168zm0 17.594v16.174H26.539V397.04zm0 17.593v16.168H26.539v-16.168zm0 17.594v16.168H26.539v-16.168zm1.419 0h16.168v16.168H44.127zm17.594 0h16.168v16.168H61.72zm17.593 0h16.169v16.168H79.314zm17.588 0h16.168v16.168H96.902zm17.593 0h16.169v16.168h-16.169zm17.594 0h16.168v16.168h-16.168zm17.588 0h16.168v16.168h-16.168zm17.593 0h16.169v16.168H167.27zm17.594 0h16.168v16.168h-16.168zm17.593 0h16.163v16.168h-16.163zm17.588 0h16.174v16.168h-16.174zm17.594 0h16.168v16.168h-16.168zm17.593 0h16.169v16.168h-16.169zm17.588 0h16.169v16.168H272.82zm17.594 0h16.168v16.168h-16.168zm17.593 0h16.169v16.168h-16.169zm17.588 0h16.168v16.168h-16.168zm17.594 0h16.168v16.168h-16.168zm17.593 0h16.169v16.168h-16.169zm17.594 0h16.162v16.168h-16.162zm17.588 0h16.168v16.168h-16.168zm17.593 0h16.168v16.168h-16.168zm17.594 0h16.168v16.168h-16.168zm0-1.426v-16.168h16.168v16.168zm0-17.587V397.04h16.168v16.174zm0-17.594v-16.168h16.168v16.168zm0-17.593v-16.169h16.168v16.169zm0-17.594v-16.168h16.168v16.168zm0-17.588v-16.168h16.168v16.168zm0-17.593v-16.169h16.168v16.169zm0-17.594V291.49h16.168v16.168zm0-17.588v-16.168h16.168v16.168zm0-17.593v-16.169h16.168v16.169zm0-17.594v-16.168h16.168v16.168zm0-17.588v-16.168h16.168v16.168zm0-17.593v-16.174h16.168v16.174zm0-17.594V185.94h16.168v16.168zm0-17.593v-16.169h16.168v16.169zm0-17.588v-16.174h16.168v16.174zm0-17.594v-16.168h16.168v16.168zm0-17.593v-16.169h16.168v16.169zm0-17.588V97.978h16.168v16.174zm0-17.594V80.39h16.168v16.168zm0-17.593V62.796h16.168v16.169zm0-17.588V45.203h16.168v16.174zm0-17.594V27.615h16.168v16.168zm16.168-17.593h-16.168V10.033h16.168v16.168zm-17.594 0h-16.168V10.033h16.168v16.168zm-17.593 0h-16.168V10.033h16.168v16.168zm-17.594 0h-16.162V10.033h16.162v16.168zm-17.587 0h-16.175V10.033h16.175v16.168zm-17.594 0h-16.168V10.033h16.168v16.168zm-17.594 0h-16.168V10.033h16.168v16.168zm-17.587 0h-16.174V10.033h16.174v16.168zm-17.594 0h-16.168V10.033h16.168v16.168zm-17.593 0H272.82V10.033h16.169v16.168zm-17.588 0h-16.174V10.033h16.174v16.168zm-17.594 0h-16.168V10.033h16.168v16.168zm-17.593 0h-16.169V10.033h16.169v16.168zm-17.588 0h-16.169V10.033h16.169v16.168zm-17.594 0h-16.174V10.033h16.174v16.168zm-17.593 0H167.27V10.033h16.169v16.168zm-17.594 0h-16.168V10.033h16.168v16.168zm-17.588 0h-16.174V10.033h16.174v16.168zm-17.593 0h-16.169V10.033h16.169v16.168zm-17.594 0H96.902V10.033h16.168v16.168zm-17.587 0H79.308V10.033h16.174v16.168zm-17.594 0H61.72V10.033h16.168v16.168zm-17.594 0H44.127V10.033h16.168v16.168zm-17.587 0H26.533V10.033h16.175v16.168zm-17.594 0H8.968V10.033h16.175v16.168zm0 1.42v16.168H8.968V27.609h16.175zm0 17.593v16.174H8.968V45.203h16.175zm0 17.594v16.168H8.968V62.796h16.175zm0 17.593v16.168H8.968V80.39h16.175zm0 17.588v16.174H8.968V97.978h16.175zm0 17.593v16.169H8.968v-16.169h16.175zm0 17.594v16.168H8.968v-16.168h16.175zm0 17.588v16.174H8.968v-16.174h16.175zm0 17.593v16.169H8.968v-16.169h16.175zm0 17.594v16.168H8.968V185.94h16.175zm0 17.588v16.174H8.968v-16.174h16.175zm0 17.593v16.169H8.968v-16.169h16.175zm0 17.594v16.168H8.968v-16.168h16.175zm0 17.593v16.169H8.968v-16.169h16.175zm0 17.588v16.169H8.968v-16.169h16.175zm0 17.594v16.168H8.968V291.49h16.175zm0 17.593v16.169H8.968v-16.169h16.175zm0 17.588v16.168H8.968v-16.168h16.175zm0 17.594v16.168H8.968v-16.168h16.175zm0 17.593v16.169H8.968v-16.169h16.175zm0 17.588v16.168H8.968v-16.168h16.175zm0 17.594v16.174H8.968V397.04h16.175zm0 17.593v16.168H8.968v-16.168h16.175zm0 17.594v16.168H8.968v-16.168h16.175zm0 17.587v16.169H8.968v-16.169h16.175zm1.42 0h16.174v16.169H26.533zm17.593 0h16.168v16.169H44.127zm17.594 0h16.168v16.169H61.72zm17.587 0h16.174v16.169H79.309zm17.594 0h16.168v16.169H96.902zm17.593 0h16.169v16.169h-16.169zm17.588 0h16.174v16.169h-16.174zm17.594 0h16.168v16.169h-16.168zm17.593 0h16.169v16.169H167.27zm17.588 0h16.174v16.169h-16.174zm17.594 0h16.168v16.169h-16.168zm17.593 0h16.169v16.169h-16.169zm17.594 0h16.168v16.169h-16.168zm17.588 0h16.174v16.169h-16.174zm17.593 0h16.169v16.169H272.82zm17.594 0h16.168v16.169h-16.168zm17.588 0h16.174v16.169h-16.174zm17.593 0h16.168v16.169h-16.168zm17.594 0h16.168v16.169h-16.168zm17.587 0h16.175v16.169h-16.175zm17.594 0h16.168v16.169H378.37zm17.594 0h16.168v16.169h-16.168zm17.593 0h16.168v16.169h-16.168zm17.588 0h16.168v16.169h-16.168zm17.593 0h16.169v16.169h-16.169zm0-1.419v-16.168h16.169v16.168zm0-17.594v-16.168h16.169v16.168zm0-17.587V397.04h16.169v16.174zm0-17.594v-16.168h16.169v16.168zm0-17.593v-16.169h16.169v16.169zm0-17.594v-16.168h16.169v16.168zm0-17.588v-16.168h16.169v16.168zm0-17.593v-16.169h16.169v16.169zm0-17.594V291.49h16.169v16.168zm0-17.588v-16.168h16.169v16.168zm0-17.593v-16.169h16.169v16.169zm0-17.594v-16.168h16.169v16.168zm0-17.588v-16.168h16.169v16.168zm0-17.593v-16.174h16.169v16.174zm0-17.594V185.94h16.169v16.168zm0-17.593v-16.169h16.169v16.169zm0-17.588v-16.174h16.169v16.174zm0-17.594v-16.168h16.169v16.168zm0-17.593v-16.169h16.169v16.169zm0-17.588V97.978h16.169v16.174zm0-17.594V80.39h16.169v16.168zm0-17.593V62.796h16.169v16.169zm0-17.588V45.203h16.169v16.174zm0-17.594V27.615h16.169v16.168zm0-17.593V10.033h16.169v16.168h-16.169z"/></mask><g mask="url(#b)"><path fill="url(#c)" d="M0 0h473.881v473.881H0z"/></g></g></g><defs><radialGradient id="c" cx="0" cy="0" r="1" gradientTransform="rotate(90 0 236.941)scale(236.941)" gradientUnits="userSpaceOnUse"><stop stop-color="#50D2E0"/><stop offset="1" stop-color="#2C727A" stop-opacity="0"/></radialGradient></defs></svg>