<svg xmlns="http://www.w3.org/2000/svg" width="359" height="306" fill="none"><g opacity=".45"><mask id="a" width="474" height="475" x="0" y="-169" maskUnits="userSpaceOnUse" style="mask-type:luminance"><path fill="#fff" d="M.119-168.43H474v473.881H.119z"/></mask><g mask="url(#a)"><mask id="b" width="474" height="475" x="0" y="-169" maskUnits="userSpaceOnUse" style="mask-type:luminance"><path fill="#fff" d="M466.451-159.816v-8.614h-1.42v8.614h-16.168v-8.614h-1.419v8.614h-16.169v-8.614h-1.425v8.614h-16.168v-8.614h-1.42v8.614h-16.168v-8.614h-1.425v8.614H378.5v-8.614h-1.419v8.614h-16.168v-8.614h-1.426v8.614h-16.168v-8.614H341.9v8.614h-16.169v-8.614h-1.419v8.614h-16.174v-8.614h-1.42v8.614H290.55v-8.614h-1.425v8.614h-16.169v-8.614h-1.419v8.614h-16.169v-8.614h-1.425v8.614h-16.168v-8.614h-1.42v8.614h-16.168v-8.614h-1.425v8.614h-16.169v-8.614h-1.419v8.614h-16.168v-8.614h-1.425v8.614h-16.169v-8.614h-1.419v8.614h-16.169v-8.614h-1.425v8.614h-16.168v-8.614h-1.42v8.614h-16.174v-8.614h-1.419v8.614H97.049v-8.614H95.63v8.614H79.456v-8.614h-1.42v8.614H61.868v-8.614h-1.425v8.614H44.275v-8.614h-1.42v8.614H26.681v-8.614h-1.42v8.614H9.088v-8.614H7.668v8.614H.118v1.419h7.55v16.169H.118v1.425h7.55v16.168H.118v1.42h7.55v16.168H.118v1.425h7.55v16.169H.118v1.42h7.55v16.168H.118v1.425h7.55v16.168H.118v1.42h7.55v16.174H.118v1.419h7.55v16.168H.118v1.42h7.55v16.174H.118v1.42h7.55V16.09H.118v1.425h7.55v16.168H.118v1.42h7.55v16.174H.118v1.42h7.55v16.168H.118v1.42h7.55v16.173H.118v1.42h7.55v16.168H.118v1.419h7.55v16.169H.118v1.425h7.55v16.168H.118v1.42h7.55v16.168H.118v1.425h7.55v16.169H.118v1.419h7.55v16.169H.118v1.425h7.55v16.168H.118v1.42h7.55v16.168H.118v1.419h7.55v16.175H.118v1.419h7.55v16.168H.118v1.42h7.55v16.174H.118v1.419h7.55v16.169H.118v1.425h7.55v6.484h1.42v-6.484h16.174v6.484h1.419v-6.484h16.168v6.484h1.426v-6.484h16.168v6.484h1.42v-6.484H78.03v6.484h1.425v-6.484h16.168v6.484h1.425v-6.484h16.169v6.484h1.419v-6.484h16.169v6.484h1.425v-6.484h16.168v6.484h1.42v-6.484h16.168v6.484h1.425v-6.484h16.169v6.484H185v-6.484h16.174v6.484h1.419v-6.484h16.169v6.484h1.419v-6.484h16.174v6.484h1.42v-6.484h16.168v6.484h1.42v-6.484h16.174v6.484h1.419v-6.484h16.169v6.484h1.419v-6.484h16.168v6.484h1.426v-6.484h16.168v6.484h1.425v-6.484H341.9v6.484h1.419v-6.484h16.168v6.484h1.42v-6.484h16.174v6.484h1.419v-6.484h16.169v6.484h1.419v-6.484h16.169v6.484h1.425v-6.484h16.168v6.484h1.42v-6.484h16.168v6.484h1.425v-6.484h16.168v6.484h1.42v-6.484H474v-1.425h-7.549v-16.169H474v-1.419h-7.549V263.78H474v-1.42h-7.549v-16.168H474v-1.419h-7.549v-16.175H474v-1.419h-7.549v-16.168H474v-1.42h-7.549v-16.168H474v-1.425h-7.549v-16.169H474v-1.419h-7.549v-16.169H474v-1.425h-7.549v-16.168H474v-1.42h-7.549V123.06H474v-1.425h-7.549v-16.169H474v-1.419h-7.549V87.879H474v-1.42h-7.549V70.285H474v-1.42h-7.549V52.698H474v-1.42h-7.549V35.105H474v-1.42h-7.549V17.516H474V16.09h-7.549V-.078H474v-1.419h-7.549v-16.174H474v-1.42h-7.549v-16.168H474v-1.42h-7.549v-16.174H474v-1.419h-7.549V-70.44H474v-1.425h-7.549v-16.169H474v-1.42h-7.549v-16.168H474v-1.425h-7.549v-16.168H474v-1.42h-7.549v-16.168H474v-1.425h-7.549v-16.169H474v-1.419zM236.35 68.866h-16.169V52.697h16.169zm0 1.42v16.168h-16.169V70.285zm1.419 0h16.169v16.168h-16.169zm0-1.42V52.697h16.169v16.169zm16.169-17.594h-16.169V35.098h16.169zm-17.588 0h-16.174V35.098h16.174zm-17.594 0h-16.168V35.098h16.168zm0 1.42V68.86h-16.168V52.691zm0 17.593v16.169h-16.168V70.285zm0 17.594v16.168h-16.168V87.879zm1.42 0h16.174v16.168h-16.174zm17.593 0h16.169v16.168h-16.169zm17.594 0h16.168v16.168h-16.168zm0-1.425V70.285h16.168v16.169zm0-17.588V52.697h16.168v16.169zm0-17.594V35.098h16.168v16.174zm16.168-17.593h-16.168V17.51h16.168zm-17.593 0h-16.169V17.51h16.169zm-17.588 0h-16.174V17.51h16.174zm-17.594 0h-16.168V17.51h16.168zm-17.593 0h-16.169V17.51h16.169zm0 1.419v16.174h-16.169V35.098zm0 17.594V68.86h-16.169V52.691zm0 17.593v16.169h-16.169V70.285zm0 17.594v16.168h-16.169V87.879zm0 17.587v16.169h-16.169v-16.169zm1.425 0h16.168v16.169h-16.168zm17.588 0h16.174v16.169h-16.174zm17.593 0h16.169v16.169h-16.169zm17.594 0h16.168v16.169h-16.168zm17.588 0h16.168v16.169h-16.168zm0-1.419V87.879h16.168v16.168zm0-17.593V70.285h16.168v16.169zm0-17.588V52.697h16.168v16.169zm0-17.594V35.098h16.168v16.174zm0-17.593V17.51h16.168V33.68zm16.168-17.594h-16.168V-.083h16.168zm-17.588 0h-16.174V-.083h16.174zm-17.593 0h-16.169V-.083h16.169zm-17.594 0h-16.168V-.083h16.168zm-17.588 0h-16.168V-.083h16.168zm-17.593 0h-16.169V-.083h16.169zm-17.594 0h-16.168V-.083h16.168zm0 1.425V33.68h-16.168V17.51zm0 17.588v16.174h-16.168V35.098zm0 17.594V68.86h-16.168V52.691zm0 17.593v16.169h-16.168V70.285zm0 17.594v16.168h-16.168V87.879zm0 17.587v16.169h-16.168v-16.169zm0 17.594v16.168h-16.168V123.06zm1.425 0h16.169v16.168h-16.169zm17.588 0h16.168v16.168h-16.168zm17.594 0h16.168v16.168h-16.168zm17.593 0h16.169v16.168h-16.169zm17.588 0h16.174v16.168h-16.174zm17.594 0h16.168v16.168h-16.168zm17.593 0h16.168v16.168h-16.168zm0-1.419v-16.169h16.168v16.169zm0-17.594V87.879h16.168v16.168zm0-17.593V70.285h16.168v16.169zm0-17.588V52.697h16.168v16.169zm0-17.594V35.098h16.168v16.174zm0-17.593V17.51h16.168V33.68zm0-17.594V-.083h16.168v16.168zm16.168-17.588h-16.168v-16.174h16.168zm-17.593 0h-16.168v-16.174h16.168zm-17.594 0h-16.168v-16.174h16.168zm-17.587 0h-16.169v-16.174h16.169zm-17.594 0h-16.168v-16.174h16.168zm-17.594 0h-16.168v-16.174h16.168zm-17.587 0h-16.175v-16.174h16.175zm-17.594 0h-16.168v-16.174h16.168zm-17.593 0h-16.169v-16.174h16.169zm0 1.42v16.168h-16.169V-.083zm0 17.593V33.68h-16.169V17.51zm0 17.588v16.174h-16.169V35.098zm0 17.594V68.86h-16.169V52.691zm0 17.593v16.169h-16.169V70.285zm0 17.594v16.168h-16.169V87.879zm0 17.587v16.169h-16.169v-16.169zm0 17.594v16.168h-16.169V123.06zm0 17.594v16.168h-16.169v-16.168zm1.425 0h16.168v16.168h-16.168zm17.587 0h16.175v16.168h-16.175zm17.594 0h16.168v16.168h-16.168zm17.594 0h16.168v16.168h-16.168zm17.587 0h16.169v16.168h-16.169zm17.594 0h16.168v16.168h-16.168zm17.594 0h16.168v16.168h-16.168zm17.587 0h16.169v16.168h-16.169zm17.594 0H324.3v16.168h-16.168zm0-1.426V123.06H324.3v16.168zm0-17.587v-16.169H324.3v16.169zm0-17.594V87.879H324.3v16.168zm0-17.593V70.285H324.3v16.169zm0-17.588V52.697H324.3v16.169zm0-17.594V35.098H324.3v16.174zm0-17.593V17.51H324.3V33.68zm0-17.594V-.083H324.3v16.168zm0-17.588v-16.174H324.3v16.174zM324.3-19.096h-16.168v-16.169H324.3zm-17.588 0h-16.168v-16.169h16.168zm-17.593 0h-16.168v-16.169h16.168zm-17.594 0h-16.168v-16.169h16.168zm-17.587 0h-16.169v-16.169h16.169zm-17.594 0h-16.168v-16.169h16.168zm-17.594 0h-16.168v-16.169h16.168zm-17.587 0h-16.175v-16.169h16.175zm-17.594 0h-16.168v-16.169h16.168zm-17.593 0h-16.169v-16.169h16.169zm-17.594 0h-16.168v-16.169h16.168zm0 1.42v16.173h-16.168v-16.174zm0 17.593v16.168h-16.168V-.083zm0 17.593V33.68h-16.168V17.51zm0 17.588v16.174h-16.168V35.098zm0 17.594V68.86h-16.168V52.691zm0 17.593v16.169h-16.168V70.285zm0 17.594v16.168h-16.168V87.879zm0 17.587v16.169h-16.168v-16.169zm0 17.594v16.168h-16.168V123.06zm0 17.594v16.168h-16.168v-16.168zm0 17.587v16.169h-16.168v-16.169zm1.425 0h16.169v16.169h-16.169zm17.594 0h16.168v16.169h-16.168zm17.587 0h16.175v16.169h-16.175zm17.594 0h16.168v16.169h-16.168zm17.594 0h16.168v16.169h-16.168zm17.587 0h16.169v16.169h-16.169zm17.594 0h16.168v16.169h-16.168zm17.594 0h16.168v16.169h-16.168zm17.587 0h16.169v16.169h-16.169zm17.594 0H324.3v16.169h-16.168zm17.593 0h16.169v16.169h-16.169zm0-1.419v-16.168h16.169v16.168zm0-17.594V123.06h16.169v16.168zm0-17.587v-16.169h16.169v16.169zm0-17.594V87.879h16.169v16.168zm0-17.593V70.285h16.169v16.169zm0-17.588V52.697h16.169v16.169zm0-17.594V35.098h16.169v16.174zm0-17.593V17.51h16.169V33.68zm0-17.594V-.083h16.169v16.168zm0-17.588v-16.174h16.169v16.174zm0-17.593v-16.169h16.169v16.169zm16.169-17.594h-16.169v-16.168h16.169zm-17.594 0h-16.168v-16.168H324.3zm-17.593 0h-16.169v-16.168h16.169zm-17.588 0h-16.168v-16.168h16.168zm-17.594 0h-16.168v-16.168h16.168zm-17.593 0h-16.169v-16.168h16.169zm-17.588 0H220.17v-16.168h16.174zm-17.594 0h-16.168v-16.168h16.168zm-17.593 0h-16.169v-16.168h16.169zm-17.588 0h-16.174v-16.168h16.174zm-17.593 0h-16.169v-16.168h16.169zm-17.594 0h-16.168v-16.168h16.168zm-17.594 0H114.62v-16.168h16.168zm0 1.425v16.169H114.62v-16.169zm0 17.588v16.174H114.62v-16.174zm0 17.594v16.168H114.62V-.083zm0 17.593V33.68H114.62V17.51zm0 17.588v16.174H114.62V35.098zm0 17.594V68.86H114.62V52.691zm0 17.593v16.169H114.62V70.285zm0 17.594v16.168H114.62V87.879zm0 17.587v16.169H114.62v-16.169zm0 17.594v16.168H114.62V123.06zm0 17.594v16.168H114.62v-16.168zm0 17.587v16.169H114.62v-16.169zm0 17.594v16.168H114.62v-16.168zm1.426 0h16.168v16.168h-16.168zm17.587 0h16.169v16.168h-16.169zm17.594 0h16.174v16.168h-16.174zm17.593 0h16.169v16.168h-16.169zm17.594 0h16.168v16.168h-16.168zm17.588 0h16.174v16.168H220.17zm17.593 0h16.169v16.168h-16.169zm17.594 0h16.168v16.168h-16.168zm17.588 0h16.168v16.168h-16.168zm17.593 0h16.169v16.168h-16.169zm17.594 0H324.3v16.168h-16.168zm17.588 0h16.168v16.168H325.72zm17.593 0h16.169v16.168h-16.169zm0-1.419v-16.169h16.169v16.169zm0-17.594v-16.168h16.169v16.168zm0-17.594V123.06h16.169v16.168zm0-17.587v-16.169h16.169v16.169zm0-17.594V87.879h16.169v16.168zm0-17.593V70.285h16.169v16.169zm0-17.588V52.697h16.169v16.169zm0-17.594V35.098h16.169v16.174zm0-17.593V17.51h16.169V33.68zm0-17.594V-.083h16.169v16.168zm0-17.588v-16.174h16.169v16.174zm0-17.593v-16.169h16.169v16.169zm0-17.594v-16.168h16.169v16.168zm16.169-17.588h-16.169v-16.174h16.169zm-17.594 0H325.72v-16.174h16.168zm-17.588 0h-16.174v-16.174H324.3zm-17.593 0h-16.169v-16.174h16.169zm-17.594 0h-16.168v-16.174h16.168zm-17.588 0h-16.174v-16.174h16.174zm-17.593 0h-16.169v-16.174h16.169zm-17.594 0H220.17v-16.174h16.168zm-17.588 0h-16.168v-16.174h16.168zm-17.593 0h-16.169v-16.174h16.169zm-17.594 0h-16.168v-16.174h16.168zm-17.593 0h-16.169v-16.174h16.169zm-17.588 0h-16.174v-16.174h16.174zm-17.594 0H114.62v-16.174h16.168zm-17.593 0H97.027v-16.174h16.168zm0 1.42v16.168H97.027v-16.168zm0 17.593v16.169H97.027v-16.169zm0 17.588v16.174H97.027v-16.174zm0 17.594v16.168H97.027V-.083zm0 17.593V33.68H97.027V17.51zm0 17.588v16.174H97.027V35.098zm0 17.594V68.86H97.027V52.691zm0 17.593v16.169H97.027V70.285zm0 17.594v16.168H97.027V87.879zm0 17.587v16.169H97.027v-16.169zm0 17.594v16.168H97.027V123.06zm0 17.594v16.168H97.027v-16.168zm0 17.587v16.169H97.027v-16.169zm0 17.594v16.168H97.027v-16.168zm0 17.593v16.169H97.027v-16.169zm1.425 0h16.168v16.169H114.62zm17.588 0h16.174v16.169h-16.174zm17.593 0h16.169v16.169h-16.169zm17.594 0h16.168v16.169h-16.168zm17.593 0h16.169v16.169h-16.169zm17.588 0h16.169v16.169h-16.169zm17.594 0h16.168v16.169H220.17zm17.593 0h16.169v16.169h-16.169zm17.588 0h16.174v16.169h-16.174zm17.594 0h16.168v16.169h-16.168zm17.593 0h16.169v16.169h-16.169zm17.588 0H324.3v16.169h-16.174zm17.594 0h16.168v16.169H325.72zm17.593 0h16.169v16.169h-16.169zm17.594 0h16.168v16.169h-16.168zm0-1.425v-16.168h16.168v16.168zm0-17.587v-16.169h16.168v16.169zm0-17.594v-16.168h16.168v16.168zm0-17.594V123.06h16.168v16.168zm0-17.587v-16.169h16.168v16.169zm0-17.594V87.879h16.168v16.168zm0-17.593V70.285h16.168v16.169zm0-17.588V52.697h16.168v16.169zm0-17.594V35.098h16.168v16.174zm0-17.593V17.51h16.168V33.68zm0-17.594V-.083h16.168v16.168zm0-17.588v-16.174h16.168v16.174zm0-17.593v-16.169h16.168v16.169zm0-17.594v-16.168h16.168v16.168zm0-17.588v-16.174h16.168v16.174zm16.168-17.593h-16.168V-88.04h16.168zm-17.593 0h-16.169V-88.04h16.169zm-17.594 0H325.72V-88.04h16.168zm-17.588 0h-16.174V-88.04H324.3zm-17.593 0h-16.169V-88.04h16.169zm-17.594 0h-16.168V-88.04h16.168zm-17.588 0h-16.174V-88.04h16.174zm-17.593 0h-16.169V-88.04h16.169zm-17.594 0H220.17V-88.04h16.168zm-17.588 0h-16.168V-88.04h16.168zm-17.593 0h-16.169V-88.04h16.169zm-17.594 0h-16.168V-88.04h16.168zm-17.593 0h-16.169V-88.04h16.169zm-17.588 0h-16.174V-88.04h16.174zm-17.594 0H114.62V-88.04h16.168zm-17.593 0H97.027V-88.04h16.168zm-17.588 0H79.433V-88.04h16.174zm0 1.42v16.173H79.433v-16.174zm0 17.593v16.168H79.433v-16.168zm0 17.593v16.169H79.433v-16.169zm0 17.588v16.174H79.433v-16.174zm0 17.594v16.168H79.433V-.083zm0 17.593V33.68H79.433V17.51zm0 17.588v16.174H79.433V35.098zm0 17.594V68.86H79.433V52.691zm0 17.593v16.169H79.433V70.285zm0 17.594v16.168H79.433V87.879zm0 17.587v16.169H79.433v-16.169zm0 17.594v16.168H79.433V123.06zm0 17.594v16.168H79.433v-16.168zm0 17.587v16.169H79.433v-16.169zm0 17.594v16.168H79.433v-16.168zm0 17.593v16.169H79.433v-16.169zm0 17.588v16.169H79.433v-16.169zm1.42 0h16.168v16.169H97.027zm17.593 0h16.168v16.169H114.62zm17.588 0h16.174v16.169h-16.174zm17.593 0h16.169v16.169h-16.169zm17.594 0h16.168v16.169h-16.168zm17.593 0h16.169v16.169h-16.169zm17.588 0h16.169v16.169h-16.169zm17.594 0h16.168v16.169H220.17zm17.593 0h16.169v16.169h-16.169zm17.588 0h16.174v16.169h-16.174zm17.594 0h16.168v16.169h-16.168zm17.593 0h16.169v16.169h-16.169zm17.588 0H324.3v16.169h-16.174zm17.594 0h16.168v16.169H325.72zm17.593 0h16.169v16.169h-16.169zm17.594 0h16.168v16.169h-16.168zm17.588 0h16.168v16.169h-16.168zm0-1.419v-16.169h16.168v16.169zm0-17.594v-16.168h16.168v16.168zm0-17.587v-16.169h16.168v16.169zm0-17.594v-16.168h16.168v16.168zm0-17.594V123.06h16.168v16.168zm0-17.587v-16.169h16.168v16.169zm0-17.594V87.879h16.168v16.168zm0-17.593V70.285h16.168v16.169zm0-17.588V52.697h16.168v16.169zm0-17.594V35.098h16.168v16.174zm0-17.593V17.51h16.168V33.68zm0-17.594V-.083h16.168v16.168zm0-17.588v-16.174h16.168v16.174zm0-17.593v-16.169h16.168v16.169zm0-17.594v-16.168h16.168v16.168zm0-17.588v-16.174h16.168v16.174zm0-17.593V-88.04h16.168v16.169zm16.168-17.594h-16.168v-16.168h16.168zm-17.594 0h-16.168v-16.168h16.168zm-17.587 0h-16.169v-16.168h16.169zm-17.594 0H325.72v-16.168h16.168zm-17.593 0h-16.169v-16.168h16.169zm-17.588 0h-16.169v-16.168h16.169zm-17.594 0h-16.168v-16.168h16.168zm-17.593 0h-16.169v-16.168h16.169zm-17.588 0h-16.169v-16.168h16.169zm-17.594 0H220.17v-16.168h16.168zm-17.593 0h-16.169v-16.168h16.169zm-17.594 0h-16.168v-16.168h16.168zm-17.588 0h-16.174v-16.168h16.174zm-17.593 0h-16.169v-16.168h16.169zm-17.594 0h-16.168v-16.168h16.168zm-17.588 0h-16.174v-16.168h16.174zm-17.593 0H97.027v-16.168h16.168zm-17.594 0H79.433v-16.168H95.6zm-17.588 0H61.84v-16.168h16.174zm0 1.425v16.169H61.84V-88.04zm0 17.588v16.174H61.84v-16.174zm0 17.594v16.168H61.84v-16.168zm0 17.593v16.169H61.84v-16.169zm0 17.588v16.174H61.84v-16.174zm0 17.594v16.168H61.84V-.083zm0 17.593V33.68H61.84V17.51zm0 17.588v16.174H61.84V35.098zm0 17.594V68.86H61.84V52.691zm0 17.593v16.169H61.84V70.285zm0 17.594v16.168H61.84V87.879zm0 17.587v16.169H61.84v-16.169zm0 17.594v16.168H61.84V123.06zm0 17.594v16.168H61.84v-16.168zm0 17.587v16.169H61.84v-16.169zm0 17.594v16.168H61.84v-16.168zm0 17.593v16.169H61.84v-16.169zm0 17.588v16.169H61.84v-16.169zm0 17.594v16.174H61.84V228.61zm1.42 0H95.6v16.174H79.433zm17.593 0h16.169v16.174H97.027zm17.588 0h16.174v16.174h-16.174zm17.594 0h16.168v16.174h-16.168zm17.593 0h16.169v16.174h-16.169zm17.588 0h16.174v16.174h-16.174zm17.594 0h16.168v16.174h-16.168zm17.593 0h16.169v16.174h-16.169zm17.594 0h16.168v16.174H220.17zm17.588 0h16.168v16.174h-16.168zm17.593 0h16.169v16.174h-16.169zm17.594 0h16.168v16.174h-16.168zm17.588 0h16.168v16.174h-16.168zm17.593 0h16.169v16.174h-16.169zm17.594 0h16.168v16.174H325.72zm17.587 0h16.169v16.174h-16.169zm17.594 0h16.168v16.174h-16.168zm17.594 0h16.168v16.174h-16.168zm17.593 0h16.169v16.174h-16.169zm0-1.42v-16.168h16.169v16.168zm0-17.593v-16.169h16.169v16.169zm0-17.594v-16.168h16.169v16.168zm0-17.587v-16.169h16.169v16.169zm0-17.594v-16.168h16.169v16.168zm0-17.594V123.06h16.169v16.168zm0-17.587v-16.169h16.169v16.169zm0-17.594V87.879h16.169v16.168zm0-17.593V70.285h16.169v16.169zm0-17.588V52.697h16.169v16.169zm0-17.594V35.098h16.169v16.174zm0-17.593V17.51h16.169V33.68zm0-17.594V-.083h16.169v16.168zm0-17.588v-16.174h16.169v16.174zm0-17.593v-16.169h16.169v16.169zm0-17.594v-16.168h16.169v16.168zm0-17.588v-16.174h16.169v16.174zm0-17.593V-88.04h16.169v16.169zm0-17.594v-16.168h16.169v16.168zm16.169-17.588h-16.169v-16.174h16.169zm-17.594 0h-16.168v-16.174h16.168zm-17.594 0h-16.168v-16.174h16.168zm-17.593 0h-16.169v-16.174h16.169zm-17.588 0H325.72v-16.174h16.168zm-17.593 0h-16.169v-16.174h16.169zm-17.594 0h-16.168v-16.174h16.168zm-17.588 0h-16.168v-16.174h16.168zm-17.593 0h-16.169v-16.174h16.169zm-17.594 0h-16.168v-16.174h16.168zm-17.588 0h-16.174v-16.174h16.174zm-17.593 0h-16.169v-16.174h16.169zm-17.594 0h-16.168v-16.174h16.168zm-17.593 0h-16.169v-16.174h16.169zm-17.588 0h-16.169v-16.174h16.169zm-17.594 0h-16.168v-16.174h16.168zm-17.593 0h-16.169v-16.174h16.169zm-17.588 0H97.027v-16.174h16.168zm-17.594 0H79.433v-16.174H95.6zm-17.593 0H61.839v-16.174h16.169zm-17.588 0H44.252v-16.174H60.42zm0 1.42v16.168H44.252v-16.168zm0 17.593v16.169H44.252V-88.04zm0 17.588v16.174H44.252v-16.174zm0 17.594v16.168H44.252v-16.168zm0 17.593v16.169H44.252v-16.169zm0 17.588v16.174H44.252v-16.174zm0 17.594v16.168H44.252V-.083zm0 17.593V33.68H44.252V17.51zm0 17.588v16.174H44.252V35.098zm0 17.594V68.86H44.252V52.691zm0 17.593v16.169H44.252V70.285zm0 17.594v16.168H44.252V87.879zm0 17.587v16.169H44.252v-16.169zm0 17.594v16.168H44.252V123.06zm0 17.594v16.168H44.252v-16.168zm0 17.587v16.169H44.252v-16.169zm0 17.594v16.168H44.252v-16.168zm0 17.593v16.169H44.252v-16.169zm0 17.588v16.169H44.252v-16.169zm0 17.594v16.174H44.252V228.61zm0 17.593v16.169H44.252v-16.169zm1.42 0h16.168v16.169H61.839zm17.593 0H95.6v16.169H79.433zm17.588 0h16.168v16.169H97.021zm17.593 0h16.169v16.169h-16.169zm17.594 0h16.168v16.169h-16.168zm17.588 0h16.168v16.169h-16.168zm17.593 0h16.169v16.169h-16.169zm17.594 0h16.168v16.169h-16.168zm17.593 0h16.163v16.169h-16.163zm17.588 0h16.174v16.169h-16.174zm17.594 0h16.168v16.169h-16.168zm17.593 0h16.169v16.169h-16.169zm17.588 0h16.168v16.169h-16.168zm17.594 0h16.168v16.169h-16.168zm17.593 0h16.169v16.169h-16.169zm17.588 0h16.168v16.169h-16.168zm17.593 0h16.169v16.169h-16.169zm17.594 0h16.168v16.169h-16.168zm17.594 0h16.162v16.169h-16.162zm17.587 0h16.169v16.169h-16.169zm17.594 0h16.168v16.169h-16.168zm0-1.419V228.61h16.168v16.174zm0-17.594v-16.168h16.168v16.168zm0-17.593v-16.169h16.168v16.169zm0-17.594v-16.168h16.168v16.168zm0-17.587v-16.169h16.168v16.169zm0-17.594v-16.168h16.168v16.168zm0-17.594V123.06h16.168v16.168zm0-17.587v-16.169h16.168v16.169zm0-17.594V87.879h16.168v16.168zm0-17.593V70.285h16.168v16.169zm0-17.588V52.697h16.168v16.169zm0-17.594V35.098h16.168v16.174zm0-17.593V17.51h16.168V33.68zm0-17.594V-.083h16.168v16.168zm0-17.588v-16.174h16.168v16.174zm0-17.593v-16.169h16.168v16.169zm0-17.594v-16.168h16.168v16.168zm0-17.588v-16.174h16.168v16.174zm0-17.593V-88.04h16.168v16.169zm0-17.594v-16.168h16.168v16.168zm0-17.588v-16.174h16.168v16.174zm16.168-17.593h-16.168v-16.169h16.168zm-17.587 0h-16.169v-16.169h16.169zm-17.594 0h-16.168v-16.169h16.168zm-17.594 0h-16.168v-16.169h16.168zm-17.593 0h-16.169v-16.169h16.169zm-17.588 0H325.72v-16.169h16.168zm-17.593 0h-16.169v-16.169h16.169zm-17.594 0h-16.168v-16.169h16.168zm-17.588 0h-16.168v-16.169h16.168zm-17.593 0h-16.169v-16.169h16.169zm-17.594 0h-16.168v-16.169h16.168zm-17.588 0h-16.174v-16.169h16.174zm-17.593 0h-16.169v-16.169h16.169zm-17.594 0h-16.168v-16.169h16.168zm-17.593 0h-16.169v-16.169h16.169zm-17.588 0h-16.169v-16.169h16.169zm-17.594 0h-16.168v-16.169h16.168zm-17.593 0h-16.169v-16.169h16.169zm-17.588 0H97.027v-16.169h16.168zm-17.594 0H79.433v-16.169H95.6zm-17.593 0H61.839v-16.169h16.169zm-17.588 0H44.252v-16.169H60.42zm-17.593 0H26.658v-16.169h16.169zm0 1.419v16.174H26.658v-16.174zm0 17.594v16.168H26.658v-16.168zm0 17.593v16.169H26.658V-88.04zm0 17.588v16.174H26.658v-16.174zm0 17.594v16.168H26.658v-16.168zm0 17.593v16.169H26.658v-16.169zm0 17.588v16.174H26.658v-16.174zm0 17.594v16.168H26.658V-.083zm0 17.593V33.68H26.658V17.51zm0 17.588v16.174H26.658V35.098zm0 17.594V68.86H26.658V52.691zm0 17.593v16.169H26.658V70.285zm0 17.594v16.168H26.658V87.879zm0 17.587v16.169H26.658v-16.169zm0 17.594v16.168H26.658V123.06zm0 17.594v16.168H26.658v-16.168zm0 17.587v16.169H26.658v-16.169zm0 17.594v16.168H26.658v-16.168zm0 17.593v16.169H26.658v-16.169zm0 17.588v16.169H26.658v-16.169zm0 17.594v16.174H26.658V228.61zm0 17.593v16.169H26.658v-16.169zm0 17.594v16.168H26.658v-16.168zm1.419 0h16.168v16.168H44.246zm17.593 0h16.169v16.168H61.839zm17.594 0H95.6v16.168H79.433zm17.588 0h16.168v16.168H97.021zm17.593 0h16.169v16.168h-16.169zm17.594 0h16.168v16.168h-16.168zm17.588 0h16.168v16.168h-16.168zm17.593 0h16.169v16.168h-16.169zm17.594 0h16.168v16.168h-16.168zm17.593 0h16.163v16.168h-16.163zm17.588 0h16.174v16.168h-16.174zm17.594 0h16.168v16.168h-16.168zm17.593 0h16.169v16.168h-16.169zm17.588 0h16.168v16.168h-16.168zm17.594 0h16.168v16.168h-16.168zm17.593 0h16.169v16.168h-16.169zm17.588 0h16.168v16.168h-16.168zm17.593 0h16.169v16.168h-16.169zm17.594 0h16.168v16.168h-16.168zm17.594 0h16.162v16.168h-16.162zm17.587 0h16.169v16.168h-16.169zm17.594 0h16.168v16.168h-16.168zm17.594 0h16.168v16.168H431.27zm0-1.425v-16.169h16.168v16.169zm0-17.588V228.61h16.168v16.174zm0-17.594v-16.168h16.168v16.168zm0-17.593v-16.169h16.168v16.169zm0-17.594v-16.168h16.168v16.168zm0-17.587v-16.169h16.168v16.169zm0-17.594v-16.168h16.168v16.168zm0-17.594V123.06h16.168v16.168zm0-17.587v-16.169h16.168v16.169zm0-17.594V87.879h16.168v16.168zm0-17.593V70.285h16.168v16.169zm0-17.588V52.697h16.168v16.169zm0-17.594V35.098h16.168v16.174zm0-17.593V17.51h16.168V33.68zm0-17.594V-.083h16.168v16.168zm0-17.588v-16.174h16.168v16.174zm0-17.593v-16.169h16.168v16.169zm0-17.594v-16.168h16.168v16.168zm0-17.588v-16.174h16.168v16.174zm0-17.593V-88.04h16.168v16.169zm0-17.594v-16.168h16.168v16.168zm0-17.588v-16.174h16.168v16.174zm0-17.593v-16.169h16.168v16.169zm16.168-17.594H431.27v-16.157h16.168v16.169zm-17.594 0h-16.168v-16.157h16.168v16.169zm-17.593 0h-16.169v-16.157h16.169v16.169zm-17.594 0h-16.162v-16.157h16.162v16.169zm-17.588 0h-16.174v-16.157h16.174v16.169zm-17.593 0h-16.169v-16.157h16.169v16.169zm-17.594 0h-16.168v-16.157h16.168v16.169zm-17.587 0H308.12v-16.157h16.175v16.169zm-17.594 0h-16.168v-16.157h16.168v16.169zm-17.594 0h-16.168v-16.157h16.168v16.169zm-17.587 0h-16.174v-16.157h16.174v16.169zm-17.594 0h-16.168v-16.157h16.168v16.169zm-17.593 0h-16.169v-16.157h16.169v16.169zm-17.588 0h-16.169v-16.157h16.169v16.169zm-17.594 0h-16.174v-16.157h16.174v16.169zm-17.593 0h-16.169v-16.157h16.169v16.169zm-17.594 0h-16.168v-16.157h16.168v16.169zm-17.588 0h-16.174v-16.157h16.174v16.169zm-17.593 0h-16.169v-16.157h16.169v16.169zm-17.594 0H97.021v-16.157h16.168v16.169zm-17.588 0H79.427v-16.157h16.174v16.169zm-17.593 0H61.839v-16.157h16.169v16.169zm-17.594 0H44.246v-16.157h16.168v16.169zm-17.587 0H26.652v-16.157h16.175v16.169zm-17.594 0H9.087v-16.157h16.175v16.169zm0 1.42v16.168H9.087v-16.168h16.175zm0 17.593v16.174H9.087v-16.174h16.175zm0 17.594v16.168H9.087v-16.168h16.175zm0 17.593v16.169H9.087V-88.04h16.175zm0 17.588v16.174H9.087v-16.174h16.175zm0 17.594v16.168H9.087v-16.168h16.175zm0 17.593v16.169H9.087v-16.169h16.175zm0 17.588v16.174H9.087v-16.174h16.175zm0 17.594v16.168H9.087V-.083h16.175zm0 17.593V33.68H9.087V17.51h16.175zm0 17.588v16.174H9.087V35.098h16.175zm0 17.594V68.86H9.087V52.691h16.175zm0 17.593v16.169H9.087V70.285h16.175zm0 17.594v16.168H9.087V87.879h16.175zm0 17.587v16.169H9.087v-16.169h16.175zm0 17.594v16.168H9.087V123.06h16.175zm0 17.594v16.168H9.087v-16.168h16.175zm0 17.587v16.169H9.087v-16.169h16.175zm0 17.594v16.168H9.087v-16.168h16.175zm0 17.593v16.169H9.087v-16.169h16.175zm0 17.588v16.169H9.087v-16.169h16.175zm0 17.594v16.174H9.087V228.61h16.175zm0 17.593v16.169H9.087v-16.169h16.175zm0 17.594v16.168H9.087v-16.168h16.175zm0 17.588v16.168H9.087v-16.168h16.175zm1.42 0h16.174v16.168H26.652zm17.593 0h16.168v16.168H44.246zm17.593 0h16.169v16.168H61.839zm17.588 0h16.174v16.168H79.427zm17.594 0h16.168v16.168H97.021zm17.593 0h16.169v16.168h-16.169zm17.588 0h16.174v16.168h-16.174zm17.594 0h16.168v16.168h-16.168zm17.593 0h16.169v16.168h-16.169zm17.588 0h16.174v16.168h-16.174zm17.594 0h16.168v16.168h-16.168zm17.593 0h16.169v16.168h-16.169zm17.594 0h16.168v16.168h-16.168zm17.588 0h16.174v16.168h-16.174zm17.593 0h16.168v16.168h-16.168zm17.594 0h16.168v16.168h-16.168zm17.587 0h16.175v16.168H308.12zm17.594 0h16.168v16.168h-16.168zm17.593 0h16.169v16.168h-16.169zm17.588 0h16.174v16.168h-16.174zm17.594 0h16.168v16.168h-16.168zm17.593 0h16.169v16.168h-16.169zm17.594 0h16.168v16.168h-16.168zm17.588 0h16.168v16.168h-16.168zm17.593 0h16.169v16.168h-16.169zm0-1.42v-16.168h16.169v16.168zm0-17.593v-16.169h16.169v16.169zm0-17.588V228.61h16.169v16.174zm0-17.594v-16.168h16.169v16.168zm0-17.593v-16.169h16.169v16.169zm0-17.594v-16.168h16.169v16.168zm0-17.587v-16.169h16.169v16.169zm0-17.594v-16.168h16.169v16.168zm0-17.594V123.06h16.169v16.168zm0-17.587v-16.169h16.169v16.169zm0-17.594V87.879h16.169v16.168zm0-17.593V70.285h16.169v16.169zm0-17.588V52.697h16.169v16.169zm0-17.594V35.098h16.169v16.174zm0-17.593V17.51h16.169V33.68zm0-17.594V-.083h16.169v16.168zm0-17.588v-16.174h16.169v16.174zm0-17.593v-16.169h16.169v16.169zm0-17.594v-16.168h16.169v16.168zm0-17.588v-16.174h16.169v16.174zm0-17.593V-88.04h16.169v16.169zm0-17.594v-16.168h16.169v16.168zm0-17.588v-16.174h16.169v16.174zm0-17.593v-16.169h16.169v16.169zm0-17.594v-16.157h16.169v16.169h-16.169z"/></mask><g mask="url(#b)"><path fill="url(#c)" d="M.119-168.43H474v473.881H.119z"/></g></g></g><defs><radialGradient id="c" cx="0" cy="0" r="1" gradientTransform="rotate(90 84.274 152.785)scale(236.941)" gradientUnits="userSpaceOnUse"><stop stop-color="#50D2E0"/><stop offset="1" stop-color="#2C727A" stop-opacity="0"/></radialGradient></defs></svg>