<svg xmlns="http://www.w3.org/2000/svg" width="40" height="40" fill="none"><g clip-path="url(#a)"><path fill="#FCFAF6" fill-rule="evenodd" d="M28.695 38.07c.934 1.08 1.453 2.162 2.63 1.84.622-.17.944-.781.832-1.438-.113-.663-4.665-5.884-5.194-6.508L16.439 19.341c-1.09-1.013-2.706-.189-2.124 1.38.14.379 1.763 2.19 2.077 2.562 1.536 1.826 10.216 12.153 10.459 12.727-2.068 1.13-6.314 1.78-9.262 1.298C9.302 35.95 2.572 29.263 2.582 19.912c.01-9.267 7.8-17.328 16.869-17.316 14.133.019 20.864 13.769 16.827 23.581-.62 1.508-1.636 3.677-2.662 4.513-.628-.335-3.552-4.036-4.337-4.937-1.549-1.776-2.777-3.28-4.308-5.094-.575-.68-1.425-2.203-2.673-1.646-2.027.906 1.04 3.667 2.567 5.487l12.89 15.182c1.087.852 2.771-.268 1.869-1.721-.72-1.16-3.9-4.218-4.21-5.191.66-1.264 1.974-2.2 3.302-5.806.855-2.324 1.424-5.032 1.254-7.934-.328-5.62-2.727-9.909-5.577-12.906C27.84-.767 16.417-2.454 7.696 4.238c-11.3 8.67-10.743 28.247 5.593 34.563 3.573 1.382 8.157 1.606 12.047.48 1.175-.341 2.415-.983 3.36-1.21" clip-rule="evenodd"/></g><defs><clipPath id="a"><path fill="#fff" d="M0 0h40v40H0z"/></clipPath></defs></svg>