<svg xmlns="http://www.w3.org/2000/svg" width="66" height="69" fill="none" viewBox="0 0 67 71"><path stroke="#fff" d="M29.239 1.426c-9.985 11.41-17.192 31.736-2.853 58.123-26.82 1.07-40.294-50.635 2.853-58.123Z"/><path fill="#FFFEFE" stroke="#fff" d="M56.697 52.119C81.102 22.175 52.06-1.231 31.736 1.484 25.317 6.476 21.752 16.76 21.752 18.9 55.627 6.775 55.627 38.212 47.069 42.134L39.58 33.22l-11.055 7.132 5.706 7.488c-5.42.855-10.698-2.078-12.48-3.624 1.782 4.636 2.139 8.915 6.775 15.39 5.134 1.712 12.955.714 15.69 0l7.844 10.342 11.41-8.202z"/><path stroke="#fff" d="M22.744 9.984a61 61 0 0 0-5.349 2.831M5.985 46.712l13.55-5.705-8.736-6.418M5.985 46.712l15.69 4.636m-15.69-4.636 4.814-12.123m0 0L2.063 28.17c1.036-3.629 4.173-7.15 7.844-10.167m.892 16.586-.892-16.586m0 0 .892-8.019 6.596 2.831m-7.488 5.188c2.413-1.984 5.057-3.75 7.488-5.188m-7.488 5.188 9.628 2.322-2.14-7.51m-7.488 5.188 5.706 9.454"/><ellipse cx="19.191" cy="40.569" fill="#D9D9D9" rx="1.362" ry="1.344"/><ellipse cx="21.33" cy="51.266" fill="#D9D9D9" rx="1.362" ry="1.344"/><ellipse cx="10.633" cy="34.149" fill="#D9D9D9" rx="1.362" ry="1.344"/><ellipse cx="15.625" cy="27.731" fill="#D9D9D9" rx="1.362" ry="1.344"/><ellipse cx="9.919" cy="17.747" fill="#D9D9D9" rx="1.362" ry="1.344"/><ellipse cx="17.764" cy="12.755" fill="#D9D9D9" rx="1.362" ry="1.344"/><ellipse cx="22.757" cy="10.616" fill="#D9D9D9" rx="1.362" ry="1.344"/><ellipse cx="6.841" cy="46.462" fill="#D9D9D9" rx="2.042" ry="2.017"/><ellipse cx="2.042" cy="27.69" fill="#D9D9D9" rx="2.042" ry="2.017"/><ellipse cx="11.313" cy="9.862" fill="#D9D9D9" rx="2.042" ry="2.017"/><ellipse cx="19.774" cy="21.591" fill="#D9D9D9" rx="2.042" ry="2.017"/><ellipse cx="29.142" cy="2.017" fill="#D9D9D9" rx="2.042" ry="2.017"/><ellipse cx="26.322" cy="59.11" fill="#D9D9D9" rx="1.362" ry="1.344"/></svg>