<svg xmlns="http://www.w3.org/2000/svg" width="145" height="197" fill="none"><path stroke="#05AFDB" stroke-linecap="round" stroke-linejoin="round" stroke-miterlimit="10" stroke-width=".739" d="m129.398 19.05-75.49 74.862v16.602l-15.72 15.589"/><path fill="#05AFDB" d="m92.829 59.307-12.726 12.62-3.681-.126 16.28-16.145zM38.198 129.088c1.663 0 3.01-1.337 3.01-2.985 0-1.649-1.347-2.986-3.01-2.986s-3.01 1.337-3.01 2.986c0 1.648 1.347 2.985 3.01 2.985"/><ellipse cx="127.695" cy="2.014" fill="#05AFDB" rx="2.031" ry="2.014"/><path stroke="#05AFDB" stroke-linecap="round" stroke-linejoin="round" stroke-width="4.062" d="M117.73 11.898 62.89 66.28"/><ellipse cx="57.898" cy="71.225" fill="#05AFDB" rx="2.031" ry="2.014"/><path fill="#05AFDB" d="M97.07 105H85.243l-2.664 2.642h11.83zM105.055 97.086H93.226l-2.663 2.642h11.828zM113.04 89.168h-11.829l-2.664 2.641h11.829zM121.009 81.254H109.18l-2.664 2.641h11.829zM128.993 73.34h-11.829L114.5 75.98h11.829zM136.977 65.422h-11.828l-2.665 2.642h11.829zM144.954 57.508h-11.829l-2.664 2.642h11.829z"/><path stroke="#7879F1" stroke-linecap="round" stroke-linejoin="round" stroke-miterlimit="10" stroke-width=".739" d="M66.77 139.242 9.585 195.949"/><path stroke="#05AFDB" stroke-miterlimit="10" stroke-width=".739" d="M21.9 64.925c6.789 0 12.292-5.457 12.292-12.19 0-6.731-5.503-12.188-12.291-12.188S9.609 46.004 9.609 52.736s5.503 12.189 12.292 12.189Z"/><path fill="#7879F1" d="M21.905 58.32c3.11 0 5.63-2.5 5.63-5.584s-2.52-5.584-5.63-5.584-5.632 2.5-5.632 5.584c0 3.085 2.521 5.585 5.631 5.585"/><path stroke="#7879F1" stroke-miterlimit="10" stroke-width=".739" d="M17.036 123.645c.706-4.315-2.249-8.381-6.6-9.081s-8.451 2.23-9.157 6.545c-.707 4.315 2.248 8.381 6.6 9.081 4.35.7 8.45-2.23 9.157-6.545Z"/><path fill="#7879F1" d="M12.765 122.958c.324-1.977-1.03-3.84-3.023-4.16s-3.872 1.021-4.195 2.998 1.03 3.839 3.023 4.16 3.872-1.022 4.195-2.998"/></svg>