<svg xmlns="http://www.w3.org/2000/svg" width="509" height="769" fill="none"><g filter="url(#a)"><g clip-path="url(#b)"><rect width="449" height="709" x="30" y="22" fill="#091416" rx="4"/><g opacity=".15"><path fill="url(#c)" d="M221.877 27h66.246v422.319h-66.246z"/><path fill="url(#d)" d="M221.877 93.246h66.246v422.319h-66.246z"/><path fill="url(#e)" d="M221.877 159.492h66.246v422.319h-66.246z"/><path fill="url(#f)" d="M221.877 237.883h66.246v422.319h-66.246z"/><path fill="url(#g)" d="M221.877 304.682h66.246v422.319h-66.246z"/><path fill="url(#h)" d="M288.124 27h66.246v422.319h-66.246z"/><path fill="url(#i)" d="M288.124 93.246h66.246v422.319h-66.246z"/><path fill="url(#j)" d="M288.124 159.492h66.246v422.319h-66.246z"/><path fill="url(#k)" d="M288.124 237.883h66.246v422.319h-66.246z"/><path fill="url(#l)" d="M288.124 304.682h66.246v422.319h-66.246z"/><path fill="url(#m)" d="M23.14 27h66.246v422.319H23.14z"/><path fill="url(#n)" d="M354.37 27h66.246v422.319H354.37z"/><path fill="url(#o)" d="M23.14 93.246h66.246v422.319H23.14z"/><path fill="url(#p)" d="M354.37 93.246h66.246v422.319H354.37z"/><path fill="url(#q)" d="M23.14 159.492h66.246v422.319H23.14z"/><path fill="url(#r)" d="M23.14 237.883h66.246v422.319H23.14z"/><path fill="url(#s)" d="M23.14 304.682h66.246v422.319H23.14z"/><path fill="url(#t)" d="M354.37 159.492h66.246v422.319H354.37z"/><path fill="url(#u)" d="M354.37 237.883h66.246v422.319H354.37z"/><path fill="url(#v)" d="M354.37 304.682h66.246v422.319H354.37z"/><path fill="url(#w)" d="M89.385 27h66.246v422.319H89.385z"/><path fill="url(#x)" d="M420.615 27h66.246v422.319h-66.246z"/><path fill="url(#y)" d="M89.385 93.246h66.246v422.319H89.385z"/><path fill="url(#z)" d="M420.615 93.246h66.246v422.319h-66.246z"/><path fill="url(#A)" d="M89.385 159.492h66.246v422.319H89.385z"/><path fill="url(#B)" d="M89.385 237.883h66.246v422.319H89.385z"/><path fill="url(#C)" d="M89.385 304.682h66.246v422.319H89.385z"/><path fill="url(#D)" d="M420.615 159.492h66.246v422.319h-66.246z"/><path fill="url(#E)" d="M420.615 237.883h66.246v422.319h-66.246z"/><path fill="url(#F)" d="M420.615 304.682h66.246v422.319h-66.246z"/><path fill="url(#G)" d="M155.631 27h66.246v422.319h-66.246z"/><path fill="url(#H)" d="M155.631 93.246h66.246v422.319h-66.246z"/><path fill="url(#I)" d="M155.631 159.492h66.246v422.319h-66.246z"/><path fill="url(#J)" d="M155.631 237.883h66.246v422.319h-66.246z"/><path fill="url(#K)" d="M155.631 304.682h66.246v422.319h-66.246z"/><path fill="url(#L)" d="M221.877 304.682h66.246v422.319h-66.246z"/><path fill="url(#M)" d="M288.124 304.682h66.246v422.319h-66.246z"/><path fill="url(#N)" d="M23.14 304.682h66.246v422.319H23.14z"/><path fill="url(#O)" d="M354.37 304.682h66.246v422.319H354.37z"/><path fill="url(#P)" d="M89.385 304.682h66.246v422.319H89.385z"/><path fill="url(#Q)" d="M420.615 304.682h66.246v422.319h-66.246z"/><path fill="url(#R)" d="M155.631 304.682h66.246v422.319h-66.246z"/><path fill="url(#S)" d="M221.877 368.168h66.246v358.833h-66.246z"/><path fill="url(#T)" d="M221.877 434.414h66.246v292.587h-66.246z"/><path fill="url(#U)" d="M221.877 500.66h66.246v226.341h-66.246z"/><path fill="url(#V)" d="M288.124 368.168h66.246v358.833h-66.246z"/><path fill="url(#W)" d="M288.124 434.414h66.246v292.587h-66.246z"/><path fill="url(#X)" d="M288.124 500.66h66.246v226.341h-66.246z"/><path fill="url(#Y)" d="M23.14 368.168h66.246v358.833H23.14z"/><path fill="url(#Z)" d="M23.14 434.414h66.246v292.587H23.14z"/><path fill="url(#aa)" d="M23.14 500.66h66.246v226.341H23.14z"/><path fill="url(#ab)" d="M354.37 368.168h66.246v358.833H354.37z"/><path fill="url(#ac)" d="M354.37 434.414h66.246v292.587H354.37z"/><path fill="url(#ad)" d="M354.37 500.66h66.246v226.341H354.37z"/><path fill="url(#ae)" d="M89.385 368.168h66.246v358.833H89.385z"/><path fill="url(#af)" d="M89.385 434.414h66.246v292.587H89.385z"/><path fill="url(#ag)" d="M89.385 500.66h66.246v226.341H89.385z"/><path fill="url(#ah)" d="M420.615 368.168h66.246v358.833h-66.246z"/><path fill="url(#ai)" d="M420.615 434.414h66.246v292.587h-66.246z"/><path fill="url(#aj)" d="M420.615 500.66h66.246v226.341h-66.246z"/><path fill="url(#ak)" d="M155.631 368.168h66.246v358.833h-66.246z"/><path fill="url(#al)" d="M155.631 434.414h66.246v292.587h-66.246z"/><path fill="url(#am)" d="M155.631 500.66h66.246v226.341h-66.246z"/><path fill="url(#an)" d="M221.877 500.66h66.246v226.341h-66.246z"/><path fill="url(#ao)" d="M221.877 566.906h66.246v160.095h-66.246z"/><path fill="url(#ap)" d="M221.877 633.152h66.246v93.849h-66.246z"/><path fill="url(#aq)" d="M288.124 500.66h66.246v226.341h-66.246z"/><path fill="url(#ar)" d="M288.124 566.906h66.246v160.095h-66.246z"/><path fill="url(#as)" d="M288.124 633.152h66.246v93.849h-66.246z"/><path fill="url(#at)" d="M23.14 500.66h66.246v226.341H23.14z"/><path fill="url(#au)" d="M23.14 566.906h66.246v160.095H23.14z"/><path fill="url(#av)" d="M23.14 633.152h66.246v93.849H23.14z"/><path fill="url(#aw)" d="M354.37 500.66h66.246v226.341H354.37z"/><path fill="url(#ax)" d="M354.37 566.906h66.246v160.095H354.37z"/><path fill="url(#ay)" d="M354.37 633.152h66.246v93.849H354.37z"/><path fill="url(#az)" d="M89.385 500.66h66.246v226.341H89.385z"/><path fill="url(#aA)" d="M89.385 566.906h66.246v160.095H89.385z"/><path fill="url(#aB)" d="M89.385 633.152h66.246v93.849H89.385z"/><path fill="url(#aC)" d="M420.615 500.66h66.246v226.341h-66.246z"/><path fill="url(#aD)" d="M420.615 566.906h66.246v160.095h-66.246z"/><path fill="url(#aE)" d="M420.615 633.152h66.246v93.849h-66.246z"/><path fill="url(#aF)" d="M155.631 500.66h66.246v226.341h-66.246z"/><path fill="url(#aG)" d="M155.631 566.906h66.246v160.095h-66.246z"/><path fill="url(#aH)" d="M155.631 633.152h66.246v93.849h-66.246z"/></g></g></g><defs><linearGradient id="c" x1="255" x2="255" y1="27" y2="449.319" gradientUnits="userSpaceOnUse"><stop stop-color="#05C9FA" stop-opacity=".5"/><stop offset="1" stop-color="#0CF" stop-opacity="0"/></linearGradient><linearGradient id="d" x1="255" x2="255" y1="93.246" y2="515.565" gradientUnits="userSpaceOnUse"><stop stop-color="#05C9FA" stop-opacity=".5"/><stop offset="1" stop-color="#0CF" stop-opacity="0"/></linearGradient><linearGradient id="e" x1="255" x2="255" y1="159.492" y2="581.811" gradientUnits="userSpaceOnUse"><stop stop-color="#05C9FA" stop-opacity=".5"/><stop offset="1" stop-color="#0CF" stop-opacity="0"/></linearGradient><linearGradient id="f" x1="255" x2="255" y1="237.883" y2="660.201" gradientUnits="userSpaceOnUse"><stop stop-color="#05C9FA" stop-opacity=".5"/><stop offset="1" stop-color="#0CF" stop-opacity="0"/></linearGradient><linearGradient id="g" x1="255" x2="255" y1="304.682" y2="727" gradientUnits="userSpaceOnUse"><stop stop-color="#05C9FA" stop-opacity=".5"/><stop offset="1" stop-color="#0CF" stop-opacity="0"/></linearGradient><linearGradient id="h" x1="321.247" x2="321.247" y1="27" y2="449.319" gradientUnits="userSpaceOnUse"><stop stop-color="#05C9FA" stop-opacity=".45"/><stop offset="1" stop-color="#0CF" stop-opacity="0"/></linearGradient><linearGradient id="i" x1="321.247" x2="321.247" y1="93.246" y2="515.565" gradientUnits="userSpaceOnUse"><stop stop-color="#05C9FA" stop-opacity=".45"/><stop offset="1" stop-color="#0CF" stop-opacity="0"/></linearGradient><linearGradient id="j" x1="321.247" x2="321.247" y1="159.492" y2="581.811" gradientUnits="userSpaceOnUse"><stop stop-color="#05C9FA" stop-opacity=".45"/><stop offset="1" stop-color="#0CF" stop-opacity="0"/></linearGradient><linearGradient id="k" x1="321.247" x2="321.247" y1="237.883" y2="660.201" gradientUnits="userSpaceOnUse"><stop stop-color="#05C9FA" stop-opacity=".45"/><stop offset="1" stop-color="#0CF" stop-opacity="0"/></linearGradient><linearGradient id="l" x1="321.247" x2="321.247" y1="304.682" y2="727" gradientUnits="userSpaceOnUse"><stop stop-color="#05C9FA" stop-opacity=".45"/><stop offset="1" stop-color="#0CF" stop-opacity="0"/></linearGradient><linearGradient id="m" x1="56.263" x2="56.263" y1="27" y2="449.319" gradientUnits="userSpaceOnUse"><stop stop-color="#05C9FA" stop-opacity=".3"/><stop offset="1" stop-color="#0CF" stop-opacity="0"/></linearGradient><linearGradient id="n" x1="387.493" x2="387.493" y1="27" y2="449.319" gradientUnits="userSpaceOnUse"><stop stop-color="#05C9FA" stop-opacity=".4"/><stop offset="1" stop-color="#0CF" stop-opacity="0"/></linearGradient><linearGradient id="o" x1="56.263" x2="56.263" y1="93.246" y2="515.565" gradientUnits="userSpaceOnUse"><stop stop-color="#05C9FA" stop-opacity=".3"/><stop offset="1" stop-color="#0CF" stop-opacity="0"/></linearGradient><linearGradient id="p" x1="387.493" x2="387.493" y1="93.246" y2="515.565" gradientUnits="userSpaceOnUse"><stop stop-color="#05C9FA" stop-opacity=".4"/><stop offset="1" stop-color="#0CF" stop-opacity="0"/></linearGradient><linearGradient id="q" x1="56.263" x2="56.263" y1="159.492" y2="581.811" gradientUnits="userSpaceOnUse"><stop stop-color="#05C9FA" stop-opacity=".3"/><stop offset="1" stop-color="#0CF" stop-opacity="0"/></linearGradient><linearGradient id="r" x1="56.263" x2="56.263" y1="237.883" y2="660.201" gradientUnits="userSpaceOnUse"><stop stop-color="#05C9FA" stop-opacity=".3"/><stop offset="1" stop-color="#0CF" stop-opacity="0"/></linearGradient><linearGradient id="s" x1="56.263" x2="56.263" y1="304.682" y2="727" gradientUnits="userSpaceOnUse"><stop stop-color="#05C9FA" stop-opacity=".3"/><stop offset="1" stop-color="#0CF" stop-opacity="0"/></linearGradient><linearGradient id="t" x1="387.493" x2="387.493" y1="159.492" y2="581.811" gradientUnits="userSpaceOnUse"><stop stop-color="#05C9FA" stop-opacity=".4"/><stop offset="1" stop-color="#0CF" stop-opacity="0"/></linearGradient><linearGradient id="u" x1="387.493" x2="387.493" y1="237.883" y2="660.201" gradientUnits="userSpaceOnUse"><stop stop-color="#05C9FA" stop-opacity=".4"/><stop offset="1" stop-color="#0CF" stop-opacity="0"/></linearGradient><linearGradient id="v" x1="387.493" x2="387.493" y1="304.682" y2="727" gradientUnits="userSpaceOnUse"><stop stop-color="#05C9FA" stop-opacity=".4"/><stop offset="1" stop-color="#0CF" stop-opacity="0"/></linearGradient><linearGradient id="w" x1="122.508" x2="122.508" y1="27" y2="449.319" gradientUnits="userSpaceOnUse"><stop stop-color="#05C9FA" stop-opacity=".4"/><stop offset="1" stop-color="#0CF" stop-opacity="0"/></linearGradient><linearGradient id="x" x1="453.738" x2="453.738" y1="27" y2="449.319" gradientUnits="userSpaceOnUse"><stop stop-color="#05C9FA" stop-opacity=".3"/><stop offset="1" stop-color="#0CF" stop-opacity="0"/></linearGradient><linearGradient id="y" x1="122.508" x2="122.508" y1="93.246" y2="515.565" gradientUnits="userSpaceOnUse"><stop stop-color="#05C9FA" stop-opacity=".4"/><stop offset="1" stop-color="#0CF" stop-opacity="0"/></linearGradient><linearGradient id="z" x1="453.738" x2="453.738" y1="93.246" y2="515.565" gradientUnits="userSpaceOnUse"><stop stop-color="#05C9FA" stop-opacity=".3"/><stop offset="1" stop-color="#0CF" stop-opacity="0"/></linearGradient><linearGradient id="A" x1="122.508" x2="122.508" y1="159.492" y2="581.811" gradientUnits="userSpaceOnUse"><stop stop-color="#05C9FA" stop-opacity=".4"/><stop offset="1" stop-color="#0CF" stop-opacity="0"/></linearGradient><linearGradient id="B" x1="122.508" x2="122.508" y1="237.883" y2="660.201" gradientUnits="userSpaceOnUse"><stop stop-color="#05C9FA" stop-opacity=".4"/><stop offset="1" stop-color="#0CF" stop-opacity="0"/></linearGradient><linearGradient id="C" x1="122.508" x2="122.508" y1="304.682" y2="727" gradientUnits="userSpaceOnUse"><stop stop-color="#05C9FA" stop-opacity=".4"/><stop offset="1" stop-color="#0CF" stop-opacity="0"/></linearGradient><linearGradient id="D" x1="453.738" x2="453.738" y1="159.492" y2="581.811" gradientUnits="userSpaceOnUse"><stop stop-color="#05C9FA" stop-opacity=".3"/><stop offset="1" stop-color="#0CF" stop-opacity="0"/></linearGradient><linearGradient id="E" x1="453.738" x2="453.738" y1="237.883" y2="660.201" gradientUnits="userSpaceOnUse"><stop stop-color="#05C9FA" stop-opacity=".3"/><stop offset="1" stop-color="#0CF" stop-opacity="0"/></linearGradient><linearGradient id="F" x1="453.738" x2="453.738" y1="304.682" y2="727" gradientUnits="userSpaceOnUse"><stop stop-color="#05C9FA" stop-opacity=".3"/><stop offset="1" stop-color="#0CF" stop-opacity="0"/></linearGradient><linearGradient id="G" x1="188.754" x2="188.754" y1="27" y2="449.319" gradientUnits="userSpaceOnUse"><stop stop-color="#05C9FA" stop-opacity=".45"/><stop offset="1" stop-color="#0CF" stop-opacity="0"/></linearGradient><linearGradient id="H" x1="188.754" x2="188.754" y1="93.246" y2="515.565" gradientUnits="userSpaceOnUse"><stop stop-color="#05C9FA" stop-opacity=".45"/><stop offset="1" stop-color="#0CF" stop-opacity="0"/></linearGradient><linearGradient id="I" x1="188.754" x2="188.754" y1="159.492" y2="581.811" gradientUnits="userSpaceOnUse"><stop stop-color="#05C9FA" stop-opacity=".45"/><stop offset="1" stop-color="#0CF" stop-opacity="0"/></linearGradient><linearGradient id="J" x1="188.754" x2="188.754" y1="237.883" y2="660.201" gradientUnits="userSpaceOnUse"><stop stop-color="#05C9FA" stop-opacity=".45"/><stop offset="1" stop-color="#0CF" stop-opacity="0"/></linearGradient><linearGradient id="K" x1="188.754" x2="188.754" y1="304.682" y2="727" gradientUnits="userSpaceOnUse"><stop stop-color="#05C9FA" stop-opacity=".45"/><stop offset="1" stop-color="#0CF" stop-opacity="0"/></linearGradient><linearGradient id="L" x1="255" x2="255" y1="304.682" y2="727" gradientUnits="userSpaceOnUse"><stop stop-color="#05C9FA" stop-opacity=".5"/><stop offset="1" stop-color="#0CF" stop-opacity="0"/></linearGradient><linearGradient id="M" x1="321.247" x2="321.247" y1="304.682" y2="727" gradientUnits="userSpaceOnUse"><stop stop-color="#05C9FA" stop-opacity=".45"/><stop offset="1" stop-color="#0CF" stop-opacity="0"/></linearGradient><linearGradient id="N" x1="56.263" x2="56.263" y1="304.682" y2="727" gradientUnits="userSpaceOnUse"><stop stop-color="#05C9FA" stop-opacity=".3"/><stop offset="1" stop-color="#0CF" stop-opacity="0"/></linearGradient><linearGradient id="O" x1="387.493" x2="387.493" y1="304.682" y2="727" gradientUnits="userSpaceOnUse"><stop stop-color="#05C9FA" stop-opacity=".4"/><stop offset="1" stop-color="#0CF" stop-opacity="0"/></linearGradient><linearGradient id="P" x1="122.508" x2="122.508" y1="304.682" y2="727" gradientUnits="userSpaceOnUse"><stop stop-color="#05C9FA" stop-opacity=".4"/><stop offset="1" stop-color="#0CF" stop-opacity="0"/></linearGradient><linearGradient id="Q" x1="453.738" x2="453.738" y1="304.682" y2="727" gradientUnits="userSpaceOnUse"><stop stop-color="#05C9FA" stop-opacity=".3"/><stop offset="1" stop-color="#0CF" stop-opacity="0"/></linearGradient><linearGradient id="R" x1="188.754" x2="188.754" y1="304.682" y2="727" gradientUnits="userSpaceOnUse"><stop stop-color="#05C9FA" stop-opacity=".45"/><stop offset="1" stop-color="#0CF" stop-opacity="0"/></linearGradient><linearGradient id="S" x1="255" x2="255" y1="368.168" y2="727.001" gradientUnits="userSpaceOnUse"><stop stop-color="#05C9FA" stop-opacity=".5"/><stop offset="1" stop-color="#0CF" stop-opacity="0"/></linearGradient><linearGradient id="T" x1="255" x2="255" y1="434.414" y2="727.001" gradientUnits="userSpaceOnUse"><stop stop-color="#05C9FA" stop-opacity=".5"/><stop offset="1" stop-color="#0CF" stop-opacity="0"/></linearGradient><linearGradient id="U" x1="255" x2="255" y1="500.66" y2="727.001" gradientUnits="userSpaceOnUse"><stop stop-color="#05C9FA" stop-opacity=".5"/><stop offset="1" stop-color="#0CF" stop-opacity="0"/></linearGradient><linearGradient id="V" x1="321.247" x2="321.247" y1="368.168" y2="727.001" gradientUnits="userSpaceOnUse"><stop stop-color="#05C9FA" stop-opacity=".45"/><stop offset="1" stop-color="#0CF" stop-opacity="0"/></linearGradient><linearGradient id="W" x1="321.247" x2="321.247" y1="434.414" y2="727.001" gradientUnits="userSpaceOnUse"><stop stop-color="#05C9FA" stop-opacity=".45"/><stop offset="1" stop-color="#0CF" stop-opacity="0"/></linearGradient><linearGradient id="X" x1="321.247" x2="321.247" y1="500.66" y2="727.001" gradientUnits="userSpaceOnUse"><stop stop-color="#05C9FA" stop-opacity=".45"/><stop offset="1" stop-color="#0CF" stop-opacity="0"/></linearGradient><linearGradient id="Y" x1="56.263" x2="56.263" y1="368.168" y2="727.001" gradientUnits="userSpaceOnUse"><stop stop-color="#05C9FA" stop-opacity=".3"/><stop offset="1" stop-color="#0CF" stop-opacity="0"/></linearGradient><linearGradient id="Z" x1="56.263" x2="56.263" y1="434.414" y2="727.001" gradientUnits="userSpaceOnUse"><stop stop-color="#05C9FA" stop-opacity=".3"/><stop offset="1" stop-color="#0CF" stop-opacity="0"/></linearGradient><linearGradient id="aa" x1="56.263" x2="56.263" y1="500.66" y2="727.001" gradientUnits="userSpaceOnUse"><stop stop-color="#05C9FA" stop-opacity=".3"/><stop offset="1" stop-color="#0CF" stop-opacity="0"/></linearGradient><linearGradient id="ab" x1="387.493" x2="387.493" y1="368.168" y2="727.001" gradientUnits="userSpaceOnUse"><stop stop-color="#05C9FA" stop-opacity=".4"/><stop offset="1" stop-color="#0CF" stop-opacity="0"/></linearGradient><linearGradient id="ac" x1="387.493" x2="387.493" y1="434.414" y2="727.001" gradientUnits="userSpaceOnUse"><stop stop-color="#05C9FA" stop-opacity=".4"/><stop offset="1" stop-color="#0CF" stop-opacity="0"/></linearGradient><linearGradient id="ad" x1="387.493" x2="387.493" y1="500.66" y2="727.001" gradientUnits="userSpaceOnUse"><stop stop-color="#05C9FA" stop-opacity=".4"/><stop offset="1" stop-color="#0CF" stop-opacity="0"/></linearGradient><linearGradient id="ae" x1="122.508" x2="122.508" y1="368.168" y2="727.001" gradientUnits="userSpaceOnUse"><stop stop-color="#05C9FA" stop-opacity=".4"/><stop offset="1" stop-color="#0CF" stop-opacity="0"/></linearGradient><linearGradient id="af" x1="122.508" x2="122.508" y1="434.414" y2="727.001" gradientUnits="userSpaceOnUse"><stop stop-color="#05C9FA" stop-opacity=".4"/><stop offset="1" stop-color="#0CF" stop-opacity="0"/></linearGradient><linearGradient id="ag" x1="122.508" x2="122.508" y1="500.66" y2="727.001" gradientUnits="userSpaceOnUse"><stop stop-color="#05C9FA" stop-opacity=".4"/><stop offset="1" stop-color="#0CF" stop-opacity="0"/></linearGradient><linearGradient id="ah" x1="453.738" x2="453.738" y1="368.168" y2="727.001" gradientUnits="userSpaceOnUse"><stop stop-color="#05C9FA" stop-opacity=".3"/><stop offset="1" stop-color="#0CF" stop-opacity="0"/></linearGradient><linearGradient id="ai" x1="453.738" x2="453.738" y1="434.414" y2="727.001" gradientUnits="userSpaceOnUse"><stop stop-color="#05C9FA" stop-opacity=".3"/><stop offset="1" stop-color="#0CF" stop-opacity="0"/></linearGradient><linearGradient id="aj" x1="453.738" x2="453.738" y1="500.66" y2="727.001" gradientUnits="userSpaceOnUse"><stop stop-color="#05C9FA" stop-opacity=".3"/><stop offset="1" stop-color="#0CF" stop-opacity="0"/></linearGradient><linearGradient id="ak" x1="188.754" x2="188.754" y1="368.168" y2="727.001" gradientUnits="userSpaceOnUse"><stop stop-color="#05C9FA" stop-opacity=".45"/><stop offset="1" stop-color="#0CF" stop-opacity="0"/></linearGradient><linearGradient id="al" x1="188.754" x2="188.754" y1="434.414" y2="727.001" gradientUnits="userSpaceOnUse"><stop stop-color="#05C9FA" stop-opacity=".45"/><stop offset="1" stop-color="#0CF" stop-opacity="0"/></linearGradient><linearGradient id="am" x1="188.754" x2="188.754" y1="500.66" y2="727.001" gradientUnits="userSpaceOnUse"><stop stop-color="#05C9FA" stop-opacity=".45"/><stop offset="1" stop-color="#0CF" stop-opacity="0"/></linearGradient><linearGradient id="an" x1="255" x2="255" y1="500.66" y2="727.001" gradientUnits="userSpaceOnUse"><stop stop-color="#05C9FA" stop-opacity=".5"/><stop offset="1" stop-color="#0CF" stop-opacity="0"/></linearGradient><linearGradient id="ao" x1="255" x2="255" y1="566.906" y2="727.001" gradientUnits="userSpaceOnUse"><stop stop-color="#05C9FA" stop-opacity=".5"/><stop offset="1" stop-color="#0CF" stop-opacity="0"/></linearGradient><linearGradient id="ap" x1="255" x2="255" y1="633.152" y2="727.001" gradientUnits="userSpaceOnUse"><stop stop-color="#05C9FA" stop-opacity=".5"/><stop offset="1" stop-color="#0CF" stop-opacity="0"/></linearGradient><linearGradient id="aq" x1="321.247" x2="321.247" y1="500.66" y2="727.001" gradientUnits="userSpaceOnUse"><stop stop-color="#05C9FA" stop-opacity=".45"/><stop offset="1" stop-color="#0CF" stop-opacity="0"/></linearGradient><linearGradient id="ar" x1="321.247" x2="321.247" y1="566.906" y2="727.001" gradientUnits="userSpaceOnUse"><stop stop-color="#05C9FA" stop-opacity=".45"/><stop offset="1" stop-color="#0CF" stop-opacity="0"/></linearGradient><linearGradient id="as" x1="321.247" x2="321.247" y1="633.152" y2="727.001" gradientUnits="userSpaceOnUse"><stop stop-color="#05C9FA" stop-opacity=".45"/><stop offset="1" stop-color="#0CF" stop-opacity="0"/></linearGradient><linearGradient id="at" x1="56.263" x2="56.263" y1="500.66" y2="727.001" gradientUnits="userSpaceOnUse"><stop stop-color="#05C9FA" stop-opacity=".3"/><stop offset="1" stop-color="#0CF" stop-opacity="0"/></linearGradient><linearGradient id="au" x1="56.263" x2="56.263" y1="566.906" y2="727.001" gradientUnits="userSpaceOnUse"><stop stop-color="#05C9FA" stop-opacity=".3"/><stop offset="1" stop-color="#0CF" stop-opacity="0"/></linearGradient><linearGradient id="av" x1="56.263" x2="56.263" y1="633.152" y2="727.001" gradientUnits="userSpaceOnUse"><stop stop-color="#05C9FA" stop-opacity=".3"/><stop offset="1" stop-color="#0CF" stop-opacity="0"/></linearGradient><linearGradient id="aw" x1="387.493" x2="387.493" y1="500.66" y2="727.001" gradientUnits="userSpaceOnUse"><stop stop-color="#05C9FA" stop-opacity=".4"/><stop offset="1" stop-color="#0CF" stop-opacity="0"/></linearGradient><linearGradient id="ax" x1="387.493" x2="387.493" y1="566.906" y2="727.001" gradientUnits="userSpaceOnUse"><stop stop-color="#05C9FA" stop-opacity=".4"/><stop offset="1" stop-color="#0CF" stop-opacity="0"/></linearGradient><linearGradient id="ay" x1="387.493" x2="387.493" y1="633.152" y2="727.001" gradientUnits="userSpaceOnUse"><stop stop-color="#05C9FA" stop-opacity=".4"/><stop offset="1" stop-color="#0CF" stop-opacity="0"/></linearGradient><linearGradient id="az" x1="122.508" x2="122.508" y1="500.66" y2="727.001" gradientUnits="userSpaceOnUse"><stop stop-color="#05C9FA" stop-opacity=".4"/><stop offset="1" stop-color="#0CF" stop-opacity="0"/></linearGradient><linearGradient id="aA" x1="122.508" x2="122.508" y1="566.906" y2="727.001" gradientUnits="userSpaceOnUse"><stop stop-color="#05C9FA" stop-opacity=".4"/><stop offset="1" stop-color="#0CF" stop-opacity="0"/></linearGradient><linearGradient id="aB" x1="122.508" x2="122.508" y1="633.152" y2="727.001" gradientUnits="userSpaceOnUse"><stop stop-color="#05C9FA" stop-opacity=".4"/><stop offset="1" stop-color="#0CF" stop-opacity="0"/></linearGradient><linearGradient id="aC" x1="453.738" x2="453.738" y1="500.66" y2="727.001" gradientUnits="userSpaceOnUse"><stop stop-color="#05C9FA" stop-opacity=".3"/><stop offset="1" stop-color="#0CF" stop-opacity="0"/></linearGradient><linearGradient id="aD" x1="453.738" x2="453.738" y1="566.906" y2="727.001" gradientUnits="userSpaceOnUse"><stop stop-color="#05C9FA" stop-opacity=".3"/><stop offset="1" stop-color="#0CF" stop-opacity="0"/></linearGradient><linearGradient id="aE" x1="453.738" x2="453.738" y1="633.152" y2="727.001" gradientUnits="userSpaceOnUse"><stop stop-color="#05C9FA" stop-opacity=".3"/><stop offset="1" stop-color="#0CF" stop-opacity="0"/></linearGradient><linearGradient id="aF" x1="188.754" x2="188.754" y1="500.66" y2="727.001" gradientUnits="userSpaceOnUse"><stop stop-color="#05C9FA" stop-opacity=".45"/><stop offset="1" stop-color="#0CF" stop-opacity="0"/></linearGradient><linearGradient id="aG" x1="188.754" x2="188.754" y1="566.906" y2="727.001" gradientUnits="userSpaceOnUse"><stop stop-color="#05C9FA" stop-opacity=".45"/><stop offset="1" stop-color="#0CF" stop-opacity="0"/></linearGradient><linearGradient id="aH" x1="188.754" x2="188.754" y1="633.152" y2="727.001" gradientUnits="userSpaceOnUse"><stop stop-color="#05C9FA" stop-opacity=".45"/><stop offset="1" stop-color="#0CF" stop-opacity="0"/></linearGradient><clipPath id="b"><rect width="449" height="709" x="30" y="22" fill="#fff" rx="4"/></clipPath><filter id="a" width="509" height="769" x="0" y="0" color-interpolation-filters="sRGB" filterUnits="userSpaceOnUse"><feFlood flood-opacity="0" result="BackgroundImageFix"/><feColorMatrix in="SourceAlpha" result="hardAlpha" values="0 0 0 0 0 0 0 0 0 0 0 0 0 0 0 0 0 0 127 0"/><feMorphology in="SourceAlpha" radius="2" result="effect1_dropShadow_3365_61388"/><feOffset dy="8"/><feGaussianBlur stdDeviation="16"/><feColorMatrix values="0 0 0 0 0.105882 0 0 0 0 0.145098 0 0 0 0 0.2 0 0 0 0.06 0"/><feBlend in2="BackgroundImageFix" result="effect1_dropShadow_3365_61388"/><feBlend in="SourceGraphic" in2="effect1_dropShadow_3365_61388" result="shape"/></filter></defs></svg>