<svg xmlns="http://www.w3.org/2000/svg" width="509" height="769" fill="none"><g filter="url(#a)"><g clip-path="url(#b)"><rect width="449" height="709" x="30" y="22" fill="#EDAE49" rx="4"/><g opacity=".15"><path fill="url(#c)" d="M221.23 26h66.246v422.319H221.23z"/><path fill="url(#d)" d="M221.23 92.246h66.246v422.319H221.23z"/><path fill="url(#e)" d="M221.23 158.492h66.246v422.319H221.23z"/><path fill="url(#f)" d="M221.23 236.883h66.246v422.319H221.23z"/><path fill="url(#g)" d="M221.23 303.68h66.246v422.319H221.23z"/><path fill="url(#h)" d="M287.477 26h66.246v422.319h-66.246z"/><path fill="url(#i)" d="M287.477 92.246h66.246v422.319h-66.246z"/><path fill="url(#j)" d="M287.477 158.492h66.246v422.319h-66.246z"/><path fill="url(#k)" d="M287.477 236.883h66.246v422.319h-66.246z"/><path fill="url(#l)" d="M287.477 303.68h66.246v422.319h-66.246z"/><path fill="url(#m)" d="M22.492 26h66.246v422.319H22.492z"/><path fill="url(#n)" d="M353.723 26h66.246v422.319h-66.246z"/><path fill="url(#o)" d="M22.492 92.246h66.246v422.319H22.492z"/><path fill="url(#p)" d="M353.723 92.246h66.246v422.319h-66.246z"/><path fill="url(#q)" d="M22.492 158.492h66.246v422.319H22.492z"/><path fill="url(#r)" d="M22.492 236.883h66.246v422.319H22.492z"/><path fill="url(#s)" d="M22.492 303.68h66.246v422.319H22.492z"/><path fill="url(#t)" d="M353.723 158.492h66.246v422.319h-66.246z"/><path fill="url(#u)" d="M353.723 236.883h66.246v422.319h-66.246z"/><path fill="url(#v)" d="M353.723 303.68h66.246v422.319h-66.246z"/><path fill="url(#w)" d="M88.738 26h66.246v422.319H88.738z"/><path fill="url(#x)" d="M419.969 26h66.246v422.319h-66.246z"/><path fill="url(#y)" d="M88.738 92.246h66.246v422.319H88.738z"/><path fill="url(#z)" d="M419.969 92.246h66.246v422.319h-66.246z"/><path fill="url(#A)" d="M88.738 158.492h66.246v422.319H88.738z"/><path fill="url(#B)" d="M88.738 236.883h66.246v422.319H88.738z"/><path fill="url(#C)" d="M88.738 303.68h66.246v422.319H88.738z"/><path fill="url(#D)" d="M419.969 158.492h66.246v422.319h-66.246z"/><path fill="url(#E)" d="M419.969 236.883h66.246v422.319h-66.246z"/><path fill="url(#F)" d="M419.969 303.68h66.246v422.319h-66.246z"/><path fill="url(#G)" d="M154.984 26h66.246v422.319h-66.246z"/><path fill="url(#H)" d="M154.984 92.246h66.246v422.319h-66.246z"/><path fill="url(#I)" d="M154.984 158.492h66.246v422.319h-66.246z"/><path fill="url(#J)" d="M154.984 236.883h66.246v422.319h-66.246z"/><path fill="url(#K)" d="M154.984 303.68h66.246v422.319h-66.246z"/><path fill="url(#L)" d="M221.23 303.68h66.246v422.319H221.23z"/><path fill="url(#M)" d="M287.477 303.68h66.246v422.319h-66.246z"/><path fill="url(#N)" d="M22.492 303.68h66.246v422.319H22.492z"/><path fill="url(#O)" d="M353.723 303.68h66.246v422.319h-66.246z"/><path fill="url(#P)" d="M88.738 303.68h66.246v422.319H88.738z"/><path fill="url(#Q)" d="M419.969 303.68h66.246v422.319h-66.246z"/><path fill="url(#R)" d="M154.984 303.68h66.246v422.319h-66.246z"/><path fill="url(#S)" d="M221.23 367.168h66.246v358.833H221.23z"/><path fill="url(#T)" d="M221.23 433.414h66.246v292.587H221.23z"/><path fill="url(#U)" d="M221.23 499.66h66.246v226.341H221.23z"/><path fill="url(#V)" d="M287.477 367.168h66.246v358.833h-66.246z"/><path fill="url(#W)" d="M287.477 433.414h66.246v292.587h-66.246z"/><path fill="url(#X)" d="M287.477 499.66h66.246v226.341h-66.246z"/><path fill="url(#Y)" d="M22.492 367.168h66.246v358.833H22.492z"/><path fill="url(#Z)" d="M22.492 433.414h66.246v292.587H22.492z"/><path fill="url(#aa)" d="M22.492 499.66h66.246v226.341H22.492z"/><path fill="url(#ab)" d="M353.723 367.168h66.246v358.833h-66.246z"/><path fill="url(#ac)" d="M353.723 433.414h66.246v292.587h-66.246z"/><path fill="url(#ad)" d="M353.723 499.66h66.246v226.341h-66.246z"/><path fill="url(#ae)" d="M88.738 367.168h66.246v358.833H88.738z"/><path fill="url(#af)" d="M88.738 433.414h66.246v292.587H88.738z"/><path fill="url(#ag)" d="M88.738 499.66h66.246v226.341H88.738z"/><path fill="url(#ah)" d="M419.969 367.168h66.246v358.833h-66.246z"/><path fill="url(#ai)" d="M419.969 433.414h66.246v292.587h-66.246z"/><path fill="url(#aj)" d="M419.969 499.66h66.246v226.341h-66.246z"/><path fill="url(#ak)" d="M154.984 367.168h66.246v358.833h-66.246z"/><path fill="url(#al)" d="M154.984 433.414h66.246v292.587h-66.246z"/><path fill="url(#am)" d="M154.984 499.66h66.246v226.341h-66.246z"/><path fill="url(#an)" d="M221.23 499.66h66.246v226.341H221.23z"/><path fill="url(#ao)" d="M221.23 565.906h66.246v160.095H221.23z"/><path fill="url(#ap)" d="M221.23 632.152h66.246v93.849H221.23z"/><path fill="url(#aq)" d="M287.477 499.66h66.246v226.341h-66.246z"/><path fill="url(#ar)" d="M287.477 565.906h66.246v160.095h-66.246z"/><path fill="url(#as)" d="M287.477 632.152h66.246v93.849h-66.246z"/><path fill="url(#at)" d="M22.492 499.66h66.246v226.341H22.492z"/><path fill="url(#au)" d="M22.492 565.906h66.246v160.095H22.492z"/><path fill="url(#av)" d="M22.492 632.152h66.246v93.849H22.492z"/><path fill="url(#aw)" d="M353.723 499.66h66.246v226.341h-66.246z"/><path fill="url(#ax)" d="M353.723 565.906h66.246v160.095h-66.246z"/><path fill="url(#ay)" d="M353.723 632.152h66.246v93.849h-66.246z"/><path fill="url(#az)" d="M88.738 499.66h66.246v226.341H88.738z"/><path fill="url(#aA)" d="M88.738 565.906h66.246v160.095H88.738z"/><path fill="url(#aB)" d="M88.738 632.152h66.246v93.849H88.738z"/><path fill="url(#aC)" d="M419.969 499.66h66.246v226.341h-66.246z"/><path fill="url(#aD)" d="M419.969 565.906h66.246v160.095h-66.246z"/><path fill="url(#aE)" d="M419.969 632.152h66.246v93.849h-66.246z"/><path fill="url(#aF)" d="M154.984 499.66h66.246v226.341h-66.246z"/><path fill="url(#aG)" d="M154.984 565.906h66.246v160.095h-66.246z"/><path fill="url(#aH)" d="M154.984 632.152h66.246v93.849h-66.246z"/></g></g></g><defs><linearGradient id="c" x1="254.353" x2="254.353" y1="26" y2="448.319" gradientUnits="userSpaceOnUse"><stop stop-color="#453007" stop-opacity=".5"/><stop offset="1" stop-color="#764800" stop-opacity="0"/></linearGradient><linearGradient id="d" x1="254.353" x2="254.353" y1="92.246" y2="514.565" gradientUnits="userSpaceOnUse"><stop stop-color="#453007" stop-opacity=".5"/><stop offset="1" stop-color="#764800" stop-opacity="0"/></linearGradient><linearGradient id="e" x1="254.353" x2="254.353" y1="158.492" y2="580.811" gradientUnits="userSpaceOnUse"><stop stop-color="#453007" stop-opacity=".5"/><stop offset="1" stop-color="#764800" stop-opacity="0"/></linearGradient><linearGradient id="f" x1="254.353" x2="254.353" y1="236.883" y2="659.201" gradientUnits="userSpaceOnUse"><stop stop-color="#453007" stop-opacity=".5"/><stop offset="1" stop-color="#764800" stop-opacity="0"/></linearGradient><linearGradient id="g" x1="254.353" x2="254.353" y1="303.68" y2="725.998" gradientUnits="userSpaceOnUse"><stop stop-color="#453007" stop-opacity=".5"/><stop offset="1" stop-color="#764800" stop-opacity="0"/></linearGradient><linearGradient id="h" x1="320.6" x2="320.6" y1="26" y2="448.319" gradientUnits="userSpaceOnUse"><stop stop-color="#453007" stop-opacity=".45"/><stop offset="1" stop-color="#764800" stop-opacity="0"/></linearGradient><linearGradient id="i" x1="320.6" x2="320.6" y1="92.246" y2="514.565" gradientUnits="userSpaceOnUse"><stop stop-color="#453007" stop-opacity=".45"/><stop offset="1" stop-color="#764800" stop-opacity="0"/></linearGradient><linearGradient id="j" x1="320.6" x2="320.6" y1="158.492" y2="580.811" gradientUnits="userSpaceOnUse"><stop stop-color="#453007" stop-opacity=".45"/><stop offset="1" stop-color="#764800" stop-opacity="0"/></linearGradient><linearGradient id="k" x1="320.6" x2="320.6" y1="236.883" y2="659.201" gradientUnits="userSpaceOnUse"><stop stop-color="#453007" stop-opacity=".45"/><stop offset="1" stop-color="#764800" stop-opacity="0"/></linearGradient><linearGradient id="l" x1="320.6" x2="320.6" y1="303.68" y2="725.998" gradientUnits="userSpaceOnUse"><stop stop-color="#453007" stop-opacity=".45"/><stop offset="1" stop-color="#764800" stop-opacity="0"/></linearGradient><linearGradient id="m" x1="55.615" x2="55.615" y1="26" y2="448.319" gradientUnits="userSpaceOnUse"><stop stop-color="#453007" stop-opacity=".3"/><stop offset="1" stop-color="#764800" stop-opacity="0"/></linearGradient><linearGradient id="n" x1="386.846" x2="386.846" y1="26" y2="448.319" gradientUnits="userSpaceOnUse"><stop stop-color="#453007" stop-opacity=".4"/><stop offset="1" stop-color="#764800" stop-opacity="0"/></linearGradient><linearGradient id="o" x1="55.615" x2="55.615" y1="92.246" y2="514.565" gradientUnits="userSpaceOnUse"><stop stop-color="#453007" stop-opacity=".3"/><stop offset="1" stop-color="#764800" stop-opacity="0"/></linearGradient><linearGradient id="p" x1="386.846" x2="386.846" y1="92.246" y2="514.565" gradientUnits="userSpaceOnUse"><stop stop-color="#453007" stop-opacity=".4"/><stop offset="1" stop-color="#764800" stop-opacity="0"/></linearGradient><linearGradient id="q" x1="55.615" x2="55.615" y1="158.492" y2="580.811" gradientUnits="userSpaceOnUse"><stop stop-color="#453007" stop-opacity=".3"/><stop offset="1" stop-color="#764800" stop-opacity="0"/></linearGradient><linearGradient id="r" x1="55.615" x2="55.615" y1="236.883" y2="659.201" gradientUnits="userSpaceOnUse"><stop stop-color="#453007" stop-opacity=".3"/><stop offset="1" stop-color="#764800" stop-opacity="0"/></linearGradient><linearGradient id="s" x1="55.615" x2="55.615" y1="303.68" y2="725.998" gradientUnits="userSpaceOnUse"><stop stop-color="#453007" stop-opacity=".3"/><stop offset="1" stop-color="#764800" stop-opacity="0"/></linearGradient><linearGradient id="t" x1="386.846" x2="386.846" y1="158.492" y2="580.811" gradientUnits="userSpaceOnUse"><stop stop-color="#453007" stop-opacity=".4"/><stop offset="1" stop-color="#764800" stop-opacity="0"/></linearGradient><linearGradient id="u" x1="386.846" x2="386.846" y1="236.883" y2="659.201" gradientUnits="userSpaceOnUse"><stop stop-color="#453007" stop-opacity=".4"/><stop offset="1" stop-color="#764800" stop-opacity="0"/></linearGradient><linearGradient id="v" x1="386.846" x2="386.846" y1="303.68" y2="725.998" gradientUnits="userSpaceOnUse"><stop stop-color="#453007" stop-opacity=".4"/><stop offset="1" stop-color="#764800" stop-opacity="0"/></linearGradient><linearGradient id="w" x1="121.861" x2="121.861" y1="26" y2="448.319" gradientUnits="userSpaceOnUse"><stop stop-color="#453007" stop-opacity=".4"/><stop offset="1" stop-color="#764800" stop-opacity="0"/></linearGradient><linearGradient id="x" x1="453.092" x2="453.092" y1="26" y2="448.319" gradientUnits="userSpaceOnUse"><stop stop-color="#453007" stop-opacity=".3"/><stop offset="1" stop-color="#764800" stop-opacity="0"/></linearGradient><linearGradient id="y" x1="121.861" x2="121.861" y1="92.246" y2="514.565" gradientUnits="userSpaceOnUse"><stop stop-color="#453007" stop-opacity=".4"/><stop offset="1" stop-color="#764800" stop-opacity="0"/></linearGradient><linearGradient id="z" x1="453.092" x2="453.092" y1="92.246" y2="514.565" gradientUnits="userSpaceOnUse"><stop stop-color="#453007" stop-opacity=".3"/><stop offset="1" stop-color="#764800" stop-opacity="0"/></linearGradient><linearGradient id="A" x1="121.861" x2="121.861" y1="158.492" y2="580.811" gradientUnits="userSpaceOnUse"><stop stop-color="#453007" stop-opacity=".4"/><stop offset="1" stop-color="#764800" stop-opacity="0"/></linearGradient><linearGradient id="B" x1="121.861" x2="121.861" y1="236.883" y2="659.201" gradientUnits="userSpaceOnUse"><stop stop-color="#453007" stop-opacity=".4"/><stop offset="1" stop-color="#764800" stop-opacity="0"/></linearGradient><linearGradient id="C" x1="121.861" x2="121.861" y1="303.68" y2="725.998" gradientUnits="userSpaceOnUse"><stop stop-color="#453007" stop-opacity=".4"/><stop offset="1" stop-color="#764800" stop-opacity="0"/></linearGradient><linearGradient id="D" x1="453.092" x2="453.092" y1="158.492" y2="580.811" gradientUnits="userSpaceOnUse"><stop stop-color="#453007" stop-opacity=".3"/><stop offset="1" stop-color="#764800" stop-opacity="0"/></linearGradient><linearGradient id="E" x1="453.092" x2="453.092" y1="236.883" y2="659.201" gradientUnits="userSpaceOnUse"><stop stop-color="#453007" stop-opacity=".3"/><stop offset="1" stop-color="#764800" stop-opacity="0"/></linearGradient><linearGradient id="F" x1="453.092" x2="453.092" y1="303.68" y2="725.998" gradientUnits="userSpaceOnUse"><stop stop-color="#453007" stop-opacity=".3"/><stop offset="1" stop-color="#764800" stop-opacity="0"/></linearGradient><linearGradient id="G" x1="188.107" x2="188.107" y1="26" y2="448.319" gradientUnits="userSpaceOnUse"><stop stop-color="#453007" stop-opacity=".45"/><stop offset="1" stop-color="#764800" stop-opacity="0"/></linearGradient><linearGradient id="H" x1="188.107" x2="188.107" y1="92.246" y2="514.565" gradientUnits="userSpaceOnUse"><stop stop-color="#453007" stop-opacity=".45"/><stop offset="1" stop-color="#764800" stop-opacity="0"/></linearGradient><linearGradient id="I" x1="188.107" x2="188.107" y1="158.492" y2="580.811" gradientUnits="userSpaceOnUse"><stop stop-color="#453007" stop-opacity=".45"/><stop offset="1" stop-color="#764800" stop-opacity="0"/></linearGradient><linearGradient id="J" x1="188.107" x2="188.107" y1="236.883" y2="659.201" gradientUnits="userSpaceOnUse"><stop stop-color="#453007" stop-opacity=".45"/><stop offset="1" stop-color="#764800" stop-opacity="0"/></linearGradient><linearGradient id="K" x1="188.107" x2="188.107" y1="303.68" y2="725.998" gradientUnits="userSpaceOnUse"><stop stop-color="#453007" stop-opacity=".45"/><stop offset="1" stop-color="#764800" stop-opacity="0"/></linearGradient><linearGradient id="L" x1="254.353" x2="254.353" y1="303.68" y2="725.998" gradientUnits="userSpaceOnUse"><stop stop-color="#453007" stop-opacity=".5"/><stop offset="1" stop-color="#764800" stop-opacity="0"/></linearGradient><linearGradient id="M" x1="320.6" x2="320.6" y1="303.68" y2="725.998" gradientUnits="userSpaceOnUse"><stop stop-color="#453007" stop-opacity=".45"/><stop offset="1" stop-color="#764800" stop-opacity="0"/></linearGradient><linearGradient id="N" x1="55.615" x2="55.615" y1="303.68" y2="725.998" gradientUnits="userSpaceOnUse"><stop stop-color="#453007" stop-opacity=".3"/><stop offset="1" stop-color="#764800" stop-opacity="0"/></linearGradient><linearGradient id="O" x1="386.846" x2="386.846" y1="303.68" y2="725.998" gradientUnits="userSpaceOnUse"><stop stop-color="#453007" stop-opacity=".4"/><stop offset="1" stop-color="#764800" stop-opacity="0"/></linearGradient><linearGradient id="P" x1="121.861" x2="121.861" y1="303.68" y2="725.998" gradientUnits="userSpaceOnUse"><stop stop-color="#453007" stop-opacity=".4"/><stop offset="1" stop-color="#764800" stop-opacity="0"/></linearGradient><linearGradient id="Q" x1="453.092" x2="453.092" y1="303.68" y2="725.998" gradientUnits="userSpaceOnUse"><stop stop-color="#453007" stop-opacity=".3"/><stop offset="1" stop-color="#764800" stop-opacity="0"/></linearGradient><linearGradient id="R" x1="188.107" x2="188.107" y1="303.68" y2="725.998" gradientUnits="userSpaceOnUse"><stop stop-color="#453007" stop-opacity=".45"/><stop offset="1" stop-color="#764800" stop-opacity="0"/></linearGradient><linearGradient id="S" x1="254.353" x2="254.353" y1="367.168" y2="726.001" gradientUnits="userSpaceOnUse"><stop stop-color="#453007" stop-opacity=".5"/><stop offset="1" stop-color="#764800" stop-opacity="0"/></linearGradient><linearGradient id="T" x1="254.353" x2="254.353" y1="433.414" y2="726.001" gradientUnits="userSpaceOnUse"><stop stop-color="#453007" stop-opacity=".5"/><stop offset="1" stop-color="#764800" stop-opacity="0"/></linearGradient><linearGradient id="U" x1="254.353" x2="254.353" y1="499.66" y2="726.001" gradientUnits="userSpaceOnUse"><stop stop-color="#453007" stop-opacity=".5"/><stop offset="1" stop-color="#764800" stop-opacity="0"/></linearGradient><linearGradient id="V" x1="320.6" x2="320.6" y1="367.168" y2="726.001" gradientUnits="userSpaceOnUse"><stop stop-color="#453007" stop-opacity=".45"/><stop offset="1" stop-color="#764800" stop-opacity="0"/></linearGradient><linearGradient id="W" x1="320.6" x2="320.6" y1="433.414" y2="726.001" gradientUnits="userSpaceOnUse"><stop stop-color="#453007" stop-opacity=".45"/><stop offset="1" stop-color="#764800" stop-opacity="0"/></linearGradient><linearGradient id="X" x1="320.6" x2="320.6" y1="499.66" y2="726.001" gradientUnits="userSpaceOnUse"><stop stop-color="#453007" stop-opacity=".45"/><stop offset="1" stop-color="#764800" stop-opacity="0"/></linearGradient><linearGradient id="Y" x1="55.615" x2="55.615" y1="367.168" y2="726.001" gradientUnits="userSpaceOnUse"><stop stop-color="#453007" stop-opacity=".3"/><stop offset="1" stop-color="#764800" stop-opacity="0"/></linearGradient><linearGradient id="Z" x1="55.615" x2="55.615" y1="433.414" y2="726.001" gradientUnits="userSpaceOnUse"><stop stop-color="#453007" stop-opacity=".3"/><stop offset="1" stop-color="#764800" stop-opacity="0"/></linearGradient><linearGradient id="aa" x1="55.615" x2="55.615" y1="499.66" y2="726.001" gradientUnits="userSpaceOnUse"><stop stop-color="#453007" stop-opacity=".3"/><stop offset="1" stop-color="#764800" stop-opacity="0"/></linearGradient><linearGradient id="ab" x1="386.846" x2="386.846" y1="367.168" y2="726.001" gradientUnits="userSpaceOnUse"><stop stop-color="#453007" stop-opacity=".4"/><stop offset="1" stop-color="#764800" stop-opacity="0"/></linearGradient><linearGradient id="ac" x1="386.846" x2="386.846" y1="433.414" y2="726.001" gradientUnits="userSpaceOnUse"><stop stop-color="#453007" stop-opacity=".4"/><stop offset="1" stop-color="#764800" stop-opacity="0"/></linearGradient><linearGradient id="ad" x1="386.846" x2="386.846" y1="499.66" y2="726.001" gradientUnits="userSpaceOnUse"><stop stop-color="#453007" stop-opacity=".4"/><stop offset="1" stop-color="#764800" stop-opacity="0"/></linearGradient><linearGradient id="ae" x1="121.861" x2="121.861" y1="367.168" y2="726.001" gradientUnits="userSpaceOnUse"><stop stop-color="#453007" stop-opacity=".4"/><stop offset="1" stop-color="#764800" stop-opacity="0"/></linearGradient><linearGradient id="af" x1="121.861" x2="121.861" y1="433.414" y2="726.001" gradientUnits="userSpaceOnUse"><stop stop-color="#453007" stop-opacity=".4"/><stop offset="1" stop-color="#764800" stop-opacity="0"/></linearGradient><linearGradient id="ag" x1="121.861" x2="121.861" y1="499.66" y2="726.001" gradientUnits="userSpaceOnUse"><stop stop-color="#453007" stop-opacity=".4"/><stop offset="1" stop-color="#764800" stop-opacity="0"/></linearGradient><linearGradient id="ah" x1="453.092" x2="453.092" y1="367.168" y2="726.001" gradientUnits="userSpaceOnUse"><stop stop-color="#453007" stop-opacity=".3"/><stop offset="1" stop-color="#764800" stop-opacity="0"/></linearGradient><linearGradient id="ai" x1="453.092" x2="453.092" y1="433.414" y2="726.001" gradientUnits="userSpaceOnUse"><stop stop-color="#453007" stop-opacity=".3"/><stop offset="1" stop-color="#764800" stop-opacity="0"/></linearGradient><linearGradient id="aj" x1="453.092" x2="453.092" y1="499.66" y2="726.001" gradientUnits="userSpaceOnUse"><stop stop-color="#453007" stop-opacity=".3"/><stop offset="1" stop-color="#764800" stop-opacity="0"/></linearGradient><linearGradient id="ak" x1="188.107" x2="188.107" y1="367.168" y2="726.001" gradientUnits="userSpaceOnUse"><stop stop-color="#453007" stop-opacity=".45"/><stop offset="1" stop-color="#764800" stop-opacity="0"/></linearGradient><linearGradient id="al" x1="188.107" x2="188.107" y1="433.414" y2="726.001" gradientUnits="userSpaceOnUse"><stop stop-color="#453007" stop-opacity=".45"/><stop offset="1" stop-color="#764800" stop-opacity="0"/></linearGradient><linearGradient id="am" x1="188.107" x2="188.107" y1="499.66" y2="726.001" gradientUnits="userSpaceOnUse"><stop stop-color="#453007" stop-opacity=".45"/><stop offset="1" stop-color="#764800" stop-opacity="0"/></linearGradient><linearGradient id="an" x1="254.353" x2="254.353" y1="499.66" y2="726.001" gradientUnits="userSpaceOnUse"><stop stop-color="#453007" stop-opacity=".5"/><stop offset="1" stop-color="#764800" stop-opacity="0"/></linearGradient><linearGradient id="ao" x1="254.353" x2="254.353" y1="565.906" y2="726.001" gradientUnits="userSpaceOnUse"><stop stop-color="#453007" stop-opacity=".5"/><stop offset="1" stop-color="#764800" stop-opacity="0"/></linearGradient><linearGradient id="ap" x1="254.353" x2="254.353" y1="632.152" y2="726.001" gradientUnits="userSpaceOnUse"><stop stop-color="#453007" stop-opacity=".5"/><stop offset="1" stop-color="#764800" stop-opacity="0"/></linearGradient><linearGradient id="aq" x1="320.6" x2="320.6" y1="499.66" y2="726.001" gradientUnits="userSpaceOnUse"><stop stop-color="#453007" stop-opacity=".45"/><stop offset="1" stop-color="#764800" stop-opacity="0"/></linearGradient><linearGradient id="ar" x1="320.6" x2="320.6" y1="565.906" y2="726.001" gradientUnits="userSpaceOnUse"><stop stop-color="#453007" stop-opacity=".45"/><stop offset="1" stop-color="#764800" stop-opacity="0"/></linearGradient><linearGradient id="as" x1="320.6" x2="320.6" y1="632.152" y2="726.001" gradientUnits="userSpaceOnUse"><stop stop-color="#453007" stop-opacity=".45"/><stop offset="1" stop-color="#764800" stop-opacity="0"/></linearGradient><linearGradient id="at" x1="55.615" x2="55.615" y1="499.66" y2="726.001" gradientUnits="userSpaceOnUse"><stop stop-color="#453007" stop-opacity=".3"/><stop offset="1" stop-color="#764800" stop-opacity="0"/></linearGradient><linearGradient id="au" x1="55.615" x2="55.615" y1="565.906" y2="726.001" gradientUnits="userSpaceOnUse"><stop stop-color="#453007" stop-opacity=".3"/><stop offset="1" stop-color="#764800" stop-opacity="0"/></linearGradient><linearGradient id="av" x1="55.615" x2="55.615" y1="632.152" y2="726.001" gradientUnits="userSpaceOnUse"><stop stop-color="#453007" stop-opacity=".3"/><stop offset="1" stop-color="#764800" stop-opacity="0"/></linearGradient><linearGradient id="aw" x1="386.846" x2="386.846" y1="499.66" y2="726.001" gradientUnits="userSpaceOnUse"><stop stop-color="#453007" stop-opacity=".4"/><stop offset="1" stop-color="#764800" stop-opacity="0"/></linearGradient><linearGradient id="ax" x1="386.846" x2="386.846" y1="565.906" y2="726.001" gradientUnits="userSpaceOnUse"><stop stop-color="#453007" stop-opacity=".4"/><stop offset="1" stop-color="#764800" stop-opacity="0"/></linearGradient><linearGradient id="ay" x1="386.846" x2="386.846" y1="632.152" y2="726.001" gradientUnits="userSpaceOnUse"><stop stop-color="#453007" stop-opacity=".4"/><stop offset="1" stop-color="#764800" stop-opacity="0"/></linearGradient><linearGradient id="az" x1="121.861" x2="121.861" y1="499.66" y2="726.001" gradientUnits="userSpaceOnUse"><stop stop-color="#453007" stop-opacity=".4"/><stop offset="1" stop-color="#764800" stop-opacity="0"/></linearGradient><linearGradient id="aA" x1="121.861" x2="121.861" y1="565.906" y2="726.001" gradientUnits="userSpaceOnUse"><stop stop-color="#453007" stop-opacity=".4"/><stop offset="1" stop-color="#764800" stop-opacity="0"/></linearGradient><linearGradient id="aB" x1="121.861" x2="121.861" y1="632.152" y2="726.001" gradientUnits="userSpaceOnUse"><stop stop-color="#453007" stop-opacity=".4"/><stop offset="1" stop-color="#764800" stop-opacity="0"/></linearGradient><linearGradient id="aC" x1="453.092" x2="453.092" y1="499.66" y2="726.001" gradientUnits="userSpaceOnUse"><stop stop-color="#453007" stop-opacity=".3"/><stop offset="1" stop-color="#764800" stop-opacity="0"/></linearGradient><linearGradient id="aD" x1="453.092" x2="453.092" y1="565.906" y2="726.001" gradientUnits="userSpaceOnUse"><stop stop-color="#453007" stop-opacity=".3"/><stop offset="1" stop-color="#764800" stop-opacity="0"/></linearGradient><linearGradient id="aE" x1="453.092" x2="453.092" y1="632.152" y2="726.001" gradientUnits="userSpaceOnUse"><stop stop-color="#453007" stop-opacity=".3"/><stop offset="1" stop-color="#764800" stop-opacity="0"/></linearGradient><linearGradient id="aF" x1="188.107" x2="188.107" y1="499.66" y2="726.001" gradientUnits="userSpaceOnUse"><stop stop-color="#453007" stop-opacity=".45"/><stop offset="1" stop-color="#764800" stop-opacity="0"/></linearGradient><linearGradient id="aG" x1="188.107" x2="188.107" y1="565.906" y2="726.001" gradientUnits="userSpaceOnUse"><stop stop-color="#453007" stop-opacity=".45"/><stop offset="1" stop-color="#764800" stop-opacity="0"/></linearGradient><linearGradient id="aH" x1="188.107" x2="188.107" y1="632.152" y2="726.001" gradientUnits="userSpaceOnUse"><stop stop-color="#453007" stop-opacity=".45"/><stop offset="1" stop-color="#764800" stop-opacity="0"/></linearGradient><clipPath id="b"><rect width="449" height="709" x="30" y="22" fill="#fff" rx="4"/></clipPath><filter id="a" width="509" height="769" x="0" y="0" color-interpolation-filters="sRGB" filterUnits="userSpaceOnUse"><feFlood flood-opacity="0" result="BackgroundImageFix"/><feColorMatrix in="SourceAlpha" result="hardAlpha" values="0 0 0 0 0 0 0 0 0 0 0 0 0 0 0 0 0 0 127 0"/><feMorphology in="SourceAlpha" radius="2" result="effect1_dropShadow_3365_61799"/><feOffset dy="8"/><feGaussianBlur stdDeviation="16"/><feColorMatrix values="0 0 0 0 0.105882 0 0 0 0 0.145098 0 0 0 0 0.2 0 0 0 0.06 0"/><feBlend in2="BackgroundImageFix" result="effect1_dropShadow_3365_61799"/><feBlend in="SourceGraphic" in2="effect1_dropShadow_3365_61799" result="shape"/></filter></defs></svg>