<svg width="100" height="168" viewBox="0 0 100 168" fill="none" xmlns="http://www.w3.org/2000/svg">
<g id="Group">
<g id="Union" filter="url(#filter0_di_6086_9714)">
<path fill-rule="evenodd" clip-rule="evenodd" d="M1.27374 167.716C2.45694 168.876 4.35634 168.857 5.51618 167.673L37.5208 135.025C38.2635 134.267 39.2766 133.835 40.3375 133.825L55.7412 133.671C57.2709 133.656 58.617 134.581 59.6878 135.674C61.1585 137.174 63.2146 138.097 65.4816 138.074C69.8996 138.03 73.4455 134.413 73.4014 129.995C73.3574 125.577 69.7402 122.031 65.3221 122.075C62.8089 122.1 60.578 123.281 59.1295 125.109C58.0561 126.463 56.6077 127.662 54.8799 127.68L44.378 127.784C42.1689 127.806 40.3603 126.033 40.3383 123.824L39.7585 65.6409C39.7453 64.3149 40.2593 63.0379 41.1876 62.091L58.6393 44.288C59.8776 43.0248 61.8013 42.834 63.5594 43.0299C63.8793 43.0655 64.2049 43.0823 64.5349 43.079C68.9529 43.0349 72.4988 39.4177 72.4548 34.9996C72.4107 30.5816 68.7935 27.0357 64.3754 27.0798C59.9574 27.1238 56.4115 30.741 56.4556 35.1591C56.4704 36.6478 56.1904 38.2151 55.1482 39.2782L36.9029 57.8908C34.8607 59.9742 33.7297 62.7835 33.7588 65.7007L34.3795 127.984C34.39 129.045 33.9788 130.067 33.2361 130.824L1.23147 163.473C0.0716214 164.657 0.0905575 166.556 1.27374 167.716Z" fill="#110A2B" fill-opacity="0.25" shape-rendering="crispEdges"/>
</g>
<g id="Rectangle" opacity="0.6">
<mask id="path-2-inside-1_6086_9714" fill="white">
<path d="M70.4004 129.904C70.4279 132.665 68.2117 134.926 65.4504 134.953C62.6892 134.981 60.4284 132.765 60.4009 130.003C60.3733 127.242 62.5895 124.981 65.3508 124.954C68.1121 124.926 70.3729 127.142 70.4004 129.904Z"/>
</mask>
<path d="M70.4004 129.904C70.4279 132.665 68.2117 134.926 65.4504 134.953C62.6892 134.981 60.4284 132.765 60.4009 130.003C60.3733 127.242 62.5895 124.981 65.3508 124.954C68.1121 124.926 70.3729 127.142 70.4004 129.904Z" fill="#563EEA"/>
<path d="M70.4004 129.904C70.4279 132.665 68.2117 134.926 65.4504 134.953C62.6892 134.981 60.4284 132.765 60.4009 130.003C60.3733 127.242 62.5895 124.981 65.3508 124.954C68.1121 124.926 70.3729 127.142 70.4004 129.904Z" fill="url(#paint0_radial_6086_9714)" style="mix-blend-mode:overlay"/>
<path d="M70.4004 129.904C70.4279 132.665 68.2117 134.926 65.4504 134.953C62.6892 134.981 60.4284 132.765 60.4009 130.003C60.3733 127.242 62.5895 124.981 65.3508 124.954C68.1121 124.926 70.3729 127.142 70.4004 129.904Z" fill="url(#paint1_radial_6086_9714)" fill-opacity="0.2"/>
<path d="M70.4103 130.904C70.4379 133.665 68.2217 135.926 65.4604 135.953C62.6991 135.981 60.4383 133.765 60.4108 131.003L60.4009 130.003C60.4229 132.212 62.6792 133.981 65.4405 133.953C68.2018 133.926 70.4224 132.113 70.4004 129.904L70.4103 130.904ZM60.3909 129.003C60.3634 126.242 62.5795 123.981 65.3408 123.954C68.1021 123.926 70.3629 126.142 70.3904 128.904L70.4004 129.904C70.3784 127.695 68.122 125.926 65.3608 125.954C62.5995 125.981 60.3789 127.794 60.4009 130.003L60.3909 129.003ZM70.3505 124.904L70.4502 134.903L70.3505 124.904ZM60.4507 135.003L60.351 125.004L60.4507 135.003Z" fill="white" fill-opacity="0.15" mask="url(#path-2-inside-1_6086_9714)"/>
</g>
<g id="Group_2">
<g id="blur" filter="url(#filter1_f_6086_9714)">
<mask id="path-4-inside-2_6086_9714" fill="white">
<path d="M71.4536 34.8885C71.4921 38.7543 68.3895 41.9194 64.5237 41.9579C60.6579 41.9965 57.4928 38.8938 57.4543 35.028C57.4158 31.1622 60.5184 27.9972 64.3842 27.9586C68.25 27.9201 71.4151 31.0227 71.4536 34.8885Z"/>
</mask>
<path d="M71.4536 34.8885C71.4921 38.7543 68.3895 41.9194 64.5237 41.9579C60.6579 41.9965 57.4928 38.8938 57.4543 35.028C57.4158 31.1622 60.5184 27.9972 64.3842 27.9586C68.25 27.9201 71.4151 31.0227 71.4536 34.8885Z" fill="#563EEA"/>
<path d="M71.4536 34.8885C71.4921 38.7543 68.3895 41.9194 64.5237 41.9579C60.6579 41.9965 57.4928 38.8938 57.4543 35.028C57.4158 31.1622 60.5184 27.9972 64.3842 27.9586C68.25 27.9201 71.4151 31.0227 71.4536 34.8885Z" fill="url(#paint2_radial_6086_9714)" style="mix-blend-mode:overlay"/>
<path d="M71.4536 34.8885C71.4921 38.7543 68.3895 41.9194 64.5237 41.9579C60.6579 41.9965 57.4928 38.8938 57.4543 35.028C57.4158 31.1622 60.5184 27.9972 64.3842 27.9586C68.25 27.9201 71.4151 31.0227 71.4536 34.8885Z" fill="url(#paint3_radial_6086_9714)" fill-opacity="0.2"/>
<path d="M71.4636 35.8885C71.5021 39.7543 68.3995 42.9194 64.5337 42.9579C60.6679 42.9964 57.5028 39.8938 57.4643 36.028L57.4543 35.028C57.4873 38.3416 60.648 40.9965 64.5138 40.958C68.3796 40.9195 71.4866 38.2021 71.4536 34.8885L71.4636 35.8885ZM57.4444 34.0281C57.4058 30.1623 60.5084 26.9972 64.3742 26.9587C68.2401 26.9202 71.4051 30.0228 71.4437 33.8886L71.4536 34.8885C71.4206 31.575 68.26 28.9201 64.3942 28.9586C60.5284 28.9971 57.4213 31.7145 57.4543 35.028L57.4444 34.0281ZM71.3839 27.8889L71.5234 41.8882L71.3839 27.8889ZM57.5241 42.0277L57.3846 28.0284L57.5241 42.0277Z" fill="white" fill-opacity="0.15" mask="url(#path-4-inside-2_6086_9714)"/>
</g>
<g id="Rectangle_2">
<mask id="path-6-inside-3_6086_9714" fill="white">
<path d="M69.4537 34.9085C69.4812 37.6697 67.2651 39.9305 64.5038 39.958C61.7425 39.9855 59.4817 37.7694 59.4542 35.0081C59.4267 32.2468 61.6429 29.986 64.4041 29.9585C67.1654 29.931 69.4262 32.1472 69.4537 34.9085Z"/>
</mask>
<path d="M69.4537 34.9085C69.4812 37.6697 67.2651 39.9305 64.5038 39.958C61.7425 39.9855 59.4817 37.7694 59.4542 35.0081C59.4267 32.2468 61.6429 29.986 64.4041 29.9585C67.1654 29.931 69.4262 32.1472 69.4537 34.9085Z" fill="#563EEA"/>
<path d="M69.4537 34.9085C69.4812 37.6697 67.2651 39.9305 64.5038 39.958C61.7425 39.9855 59.4817 37.7694 59.4542 35.0081C59.4267 32.2468 61.6429 29.986 64.4041 29.9585C67.1654 29.931 69.4262 32.1472 69.4537 34.9085Z" fill="url(#paint4_radial_6086_9714)" style="mix-blend-mode:overlay"/>
<path d="M69.4537 34.9085C69.4812 37.6697 67.2651 39.9305 64.5038 39.958C61.7425 39.9855 59.4817 37.7694 59.4542 35.0081C59.4267 32.2468 61.6429 29.986 64.4041 29.9585C67.1654 29.931 69.4262 32.1472 69.4537 34.9085Z" fill="url(#paint5_radial_6086_9714)" fill-opacity="0.2"/>
<path d="M69.4637 35.9084C69.4912 38.6697 67.275 40.9305 64.5138 40.958C61.7525 40.9855 59.4917 38.7693 59.4642 36.0081L59.4542 35.0081C59.4762 37.2171 61.7325 38.9856 64.4938 38.9581C67.2551 38.9306 69.4757 37.1175 69.4537 34.9085L69.4637 35.9084ZM59.4442 34.0082C59.4167 31.2469 61.6329 28.9861 64.3942 28.9586C67.1555 28.9311 69.4162 31.1472 69.4438 33.9085L69.4537 34.9085C69.4317 32.6994 67.1754 30.931 64.4141 30.9585C61.6528 30.986 59.4322 32.7991 59.4542 35.0081L59.4442 34.0082ZM69.4039 29.9087L69.5035 39.9082L69.4039 29.9087ZM59.504 40.0079L59.4044 30.0083L59.504 40.0079Z" fill="white" fill-opacity="0.15" mask="url(#path-6-inside-3_6086_9714)"/>
</g>
</g>
<g id="Group_3">
<g id="Rectangle_3" filter="url(#filter2_f_6086_9714)">
<path d="M40.3122 121.203C40.3287 122.86 38.999 124.216 37.3422 124.233C35.6855 124.249 34.329 122.92 34.3125 121.263L34.0634 96.2642C34.0469 94.6074 35.3765 93.2509 37.0333 93.2344C38.6901 93.2179 40.0466 94.5476 40.0631 96.2044L40.3122 121.203Z" fill="#8765E4"/>
</g>
<g id="Rectangle_4">
<mask id="path-9-inside-4_6086_9714" fill="white">
<path d="M39.2823 118.213C39.2934 119.318 38.4069 120.222 37.3024 120.233C36.1979 120.244 35.2936 119.358 35.2825 118.253L35.1231 102.254C35.1121 101.149 35.9986 100.245 37.1031 100.234C38.2076 100.223 39.1119 101.11 39.1229 102.214L39.2823 118.213Z"/>
</mask>
<path d="M39.2823 118.213C39.2934 119.318 38.4069 120.222 37.3024 120.233C36.1979 120.244 35.2936 119.358 35.2825 118.253L35.1231 102.254C35.1121 101.149 35.9986 100.245 37.1031 100.234C38.2076 100.223 39.1119 101.11 39.1229 102.214L39.2823 118.213Z" fill="#7F53F6"/>
<path d="M39.2823 118.213C39.2934 119.318 38.4069 120.222 37.3024 120.233C36.1979 120.244 35.2936 119.358 35.2825 118.253L35.1231 102.254C35.1121 101.149 35.9986 100.245 37.1031 100.234C38.2076 100.223 39.1119 101.11 39.1229 102.214L39.2823 118.213Z" fill="url(#paint6_radial_6086_9714)" style="mix-blend-mode:overlay"/>
<path d="M39.2823 118.213C39.2934 119.318 38.4069 120.222 37.3024 120.233C36.1979 120.244 35.2936 119.358 35.2825 118.253L35.1231 102.254C35.1121 101.149 35.9986 100.245 37.1031 100.234C38.2076 100.223 39.1119 101.11 39.1229 102.214L39.2823 118.213Z" fill="url(#paint7_radial_6086_9714)" fill-opacity="0.2"/>
<path d="M39.2923 119.213C39.3033 120.318 38.4169 121.222 37.3123 121.233C36.2078 121.244 35.3035 120.358 35.2925 119.253L35.2825 118.253C35.288 118.805 36.1879 119.244 37.2924 119.233C38.3969 119.222 39.2879 118.765 39.2823 118.213L39.2923 119.213ZM35.1131 101.254C35.1021 100.149 35.9886 99.2451 37.0931 99.2341C38.1976 99.2231 39.1019 100.11 39.1129 101.214L39.1229 102.214C39.1174 101.662 38.2176 101.223 37.113 101.234C36.0085 101.245 35.1176 101.702 35.1231 102.254L35.1131 101.254ZM39.103 100.214L39.3023 120.213L39.103 100.214ZM35.3025 120.253L35.1032 100.254L35.3025 120.253Z" fill="white" fill-opacity="0.15" mask="url(#path-9-inside-4_6086_9714)"/>
</g>
</g>
</g>
<defs>
<filter id="filter0_di_6086_9714" x="0.373825" y="27.0793" width="75.028" height="143.494" filterUnits="userSpaceOnUse" color-interpolation-filters="sRGB">
<feFlood flood-opacity="0" result="BackgroundImageFix"/>
<feColorMatrix in="SourceAlpha" type="matrix" values="0 0 0 0 0 0 0 0 0 0 0 0 0 0 0 0 0 0 127 0" result="hardAlpha"/>
<feOffset dx="1" dy="1"/>
<feGaussianBlur stdDeviation="0.5"/>
<feComposite in2="hardAlpha" operator="out"/>
<feColorMatrix type="matrix" values="0 0 0 0 1 0 0 0 0 1 0 0 0 0 1 0 0 0 0.08 0"/>
<feBlend mode="normal" in2="BackgroundImageFix" result="effect1_dropShadow_6086_9714"/>
<feBlend mode="normal" in="SourceGraphic" in2="effect1_dropShadow_6086_9714" result="shape"/>
<feColorMatrix in="SourceAlpha" type="matrix" values="0 0 0 0 0 0 0 0 0 0 0 0 0 0 0 0 0 0 127 0" result="hardAlpha"/>
<feOffset dx="1"/>
<feGaussianBlur stdDeviation="1.5"/>
<feComposite in2="hardAlpha" operator="arithmetic" k2="-1" k3="1"/>
<feColorMatrix type="matrix" values="0 0 0 0 0.00547059 0 0 0 0 0.0187459 0 0 0 0 0.116098 0 0 0 0.6 0"/>
<feBlend mode="normal" in2="shape" result="effect2_innerShadow_6086_9714"/>
</filter>
<filter id="filter1_f_6086_9714" x="29.7539" y="0.258251" width="69.4" height="69.4" filterUnits="userSpaceOnUse" color-interpolation-filters="sRGB">
<feFlood flood-opacity="0" result="BackgroundImageFix"/>
<feBlend mode="normal" in="SourceGraphic" in2="BackgroundImageFix" result="shape"/>
<feGaussianBlur stdDeviation="13.85" result="effect1_foregroundBlur_6086_9714"/>
</filter>
<filter id="filter2_f_6086_9714" x="17.3632" y="76.5343" width="39.6491" height="64.3988" filterUnits="userSpaceOnUse" color-interpolation-filters="sRGB">
<feFlood flood-opacity="0" result="BackgroundImageFix"/>
<feBlend mode="normal" in="SourceGraphic" in2="BackgroundImageFix" result="shape"/>
<feGaussianBlur stdDeviation="8.35" result="effect1_foregroundBlur_6086_9714"/>
</filter>
<radialGradient id="paint0_radial_6086_9714" cx="0" cy="0" r="1" gradientUnits="userSpaceOnUse" gradientTransform="translate(65.3725 127.128) rotate(-90.571) scale(8.47826 64.7434)">
<stop stop-color="white"/>
<stop offset="1" stop-color="white" stop-opacity="0"/>
</radialGradient>
<radialGradient id="paint1_radial_6086_9714" cx="0" cy="0" r="1" gradientUnits="userSpaceOnUse" gradientTransform="translate(65.3703 126.91) rotate(-90.571) scale(3.04348 11.6667)">
<stop stop-color="white"/>
<stop offset="1" stop-color="white" stop-opacity="0"/>
</radialGradient>
<radialGradient id="paint2_radial_6086_9714" cx="0" cy="0" r="1" gradientUnits="userSpaceOnUse" gradientTransform="translate(64.4145 31.002) rotate(-90.571) scale(11.8696 90.6407)">
<stop stop-color="white"/>
<stop offset="1" stop-color="white" stop-opacity="0"/>
</radialGradient>
<radialGradient id="paint3_radial_6086_9714" cx="0" cy="0" r="1" gradientUnits="userSpaceOnUse" gradientTransform="translate(64.4115 30.6976) rotate(-90.571) scale(4.26087 16.3333)">
<stop stop-color="white"/>
<stop offset="1" stop-color="white" stop-opacity="0"/>
</radialGradient>
<radialGradient id="paint4_radial_6086_9714" cx="0" cy="0" r="1" gradientUnits="userSpaceOnUse" gradientTransform="translate(64.4258 32.1323) rotate(-90.571) scale(8.47826 64.7434)">
<stop stop-color="white"/>
<stop offset="1" stop-color="white" stop-opacity="0"/>
</radialGradient>
<radialGradient id="paint5_radial_6086_9714" cx="0" cy="0" r="1" gradientUnits="userSpaceOnUse" gradientTransform="translate(64.4236 31.9149) rotate(-90.571) scale(3.04348 11.6667)">
<stop stop-color="white"/>
<stop offset="1" stop-color="white" stop-opacity="0"/>
</radialGradient>
<radialGradient id="paint6_radial_6086_9714" cx="0" cy="0" r="1" gradientUnits="userSpaceOnUse" gradientTransform="translate(37.1464 104.582) rotate(-90.571) scale(16.9565 25.8973)">
<stop stop-color="white"/>
<stop offset="1" stop-color="white" stop-opacity="0"/>
</radialGradient>
<radialGradient id="paint7_radial_6086_9714" cx="0" cy="0" r="1" gradientUnits="userSpaceOnUse" gradientTransform="translate(37.1421 104.147) rotate(-90.571) scale(6.08696 4.66667)">
<stop stop-color="white"/>
<stop offset="1" stop-color="white" stop-opacity="0"/>
</radialGradient>
</defs>
</svg>
