<svg width="130" height="154" viewBox="0 0 130 154" fill="none" xmlns="http://www.w3.org/2000/svg">
<g id="Group">
<g id="Union" filter="url(#filter0_di_6086_9726)">
<path fill-rule="evenodd" clip-rule="evenodd" d="M127.185 3.60942C126.296 2.21129 124.442 1.7986 123.044 2.68765L84.464 27.22C83.5688 27.7892 82.4841 27.9795 81.4486 27.7491L66.4121 24.4022C64.9189 24.0698 63.8179 22.8633 63.023 21.5563C61.9313 19.761 60.1383 18.3959 57.9253 17.9033C53.6126 16.9434 49.3383 19.6613 48.3783 23.9741C47.4184 28.2868 50.1364 32.5612 54.4491 33.5211C56.9024 34.0672 59.3432 33.4231 61.1686 31.9724C62.5214 30.8973 64.2043 30.0576 65.8909 30.433L76.1425 32.7148C78.2988 33.1948 79.6578 35.332 79.1779 37.4883L66.536 94.2847C66.2479 95.5791 65.4574 96.7061 64.3384 97.4176L43.3013 110.795C41.8086 111.744 39.8917 111.493 38.224 110.903C37.9205 110.796 37.6073 110.706 37.2851 110.634C32.9724 109.674 28.6981 112.392 27.7381 116.705C26.7782 121.018 29.4962 125.292 33.8089 126.252C38.1216 127.212 42.396 124.494 43.3559 120.181C43.6794 118.728 44.3078 117.265 45.5641 116.466L67.5579 102.481C70.0197 100.915 71.7588 98.436 72.3927 95.5883L85.9254 34.7894C86.1559 33.7539 86.7883 32.8523 87.6835 32.2831L126.264 7.75072C127.662 6.86168 128.074 5.00755 127.185 3.60942Z" fill="#110A2B" fill-opacity="0.25" shape-rendering="crispEdges"/>
</g>
<g id="Rectangle" opacity="0.6">
<mask id="path-2-inside-1_6086_9726" fill="white">
<path d="M51.2804 24.7441C51.8803 22.0486 54.5518 20.3499 57.2473 20.9499C59.9427 21.5498 61.6415 24.2213 61.0415 26.9167C60.4415 29.6122 57.7701 31.3109 55.0746 30.711C52.3791 30.111 50.6804 27.4395 51.2804 24.7441Z"/>
</mask>
<path d="M51.2804 24.7441C51.8803 22.0486 54.5518 20.3499 57.2473 20.9499C59.9427 21.5498 61.6415 24.2213 61.0415 26.9167C60.4415 29.6122 57.7701 31.3109 55.0746 30.711C52.3791 30.111 50.6804 27.4395 51.2804 24.7441Z" fill="#066882"/>
<path d="M51.2804 24.7441C51.8803 22.0486 54.5518 20.3499 57.2473 20.9499C59.9427 21.5498 61.6415 24.2213 61.0415 26.9167C60.4415 29.6122 57.7701 31.3109 55.0746 30.711C52.3791 30.111 50.6804 27.4395 51.2804 24.7441Z" fill="url(#paint0_radial_6086_9726)" style="mix-blend-mode:overlay"/>
<path d="M51.2804 24.7441C51.8803 22.0486 54.5518 20.3499 57.2473 20.9499C59.9427 21.5498 61.6415 24.2213 61.0415 26.9167C60.4415 29.6122 57.7701 31.3109 55.0746 30.711C52.3791 30.111 50.6804 27.4395 51.2804 24.7441Z" fill="url(#paint1_radial_6086_9726)" fill-opacity="0.2"/>
<path d="M51.4976 23.768C52.0976 21.0725 54.7691 19.3738 57.4645 19.9737C60.16 20.5737 61.8587 23.2452 61.2588 25.9406L61.0415 26.9167C61.5215 24.7604 59.7255 22.5259 57.03 21.926C54.3345 21.326 51.7603 22.5877 51.2804 24.7441L51.4976 23.768ZM60.8242 27.8929C60.2243 30.5883 57.5528 32.2871 54.8573 31.6871C52.1619 31.0871 50.4631 28.4157 51.0631 25.7202L51.2804 24.7441C50.8004 26.9005 52.5964 29.1349 55.2919 29.7349C57.9873 30.3348 60.5615 29.0731 61.0415 26.9167L60.8242 27.8929ZM50.194 29.6247L52.3667 19.8635L50.194 29.6247ZM62.1278 22.0362L59.9552 31.7973L62.1278 22.0362Z" fill="white" fill-opacity="0.15" mask="url(#path-2-inside-1_6086_9726)"/>
</g>
<g id="Group_2">
<g id="blur" filter="url(#filter1_f_6086_9726)">
<mask id="path-4-inside-2_6086_9726" fill="white">
<path d="M28.6879 117.04C29.5279 113.267 33.2679 110.888 37.0416 111.728C40.8152 112.568 43.1935 116.308 42.3535 120.082C41.5136 123.856 37.7735 126.234 33.9999 125.394C30.2262 124.554 27.848 120.814 28.6879 117.04Z"/>
</mask>
<path d="M28.6879 117.04C29.5279 113.267 33.2679 110.888 37.0416 111.728C40.8152 112.568 43.1935 116.308 42.3535 120.082C41.5136 123.856 37.7735 126.234 33.9999 125.394C30.2262 124.554 27.848 120.814 28.6879 117.04Z" fill="#066882"/>
<path d="M28.6879 117.04C29.5279 113.267 33.2679 110.888 37.0416 111.728C40.8152 112.568 43.1935 116.308 42.3535 120.082C41.5136 123.856 37.7735 126.234 33.9999 125.394C30.2262 124.554 27.848 120.814 28.6879 117.04Z" fill="url(#paint2_radial_6086_9726)" style="mix-blend-mode:overlay"/>
<path d="M28.6879 117.04C29.5279 113.267 33.2679 110.888 37.0416 111.728C40.8152 112.568 43.1935 116.308 42.3535 120.082C41.5136 123.856 37.7735 126.234 33.9999 125.394C30.2262 124.554 27.848 120.814 28.6879 117.04Z" fill="url(#paint3_radial_6086_9726)" fill-opacity="0.2"/>
<path d="M28.9052 116.064C29.7452 112.291 33.4852 109.912 37.2589 110.752C41.0325 111.592 43.4107 115.332 42.5708 119.106L42.3535 120.082C43.0735 116.847 40.598 113.544 36.8243 112.704C33.0507 111.865 29.4079 113.806 28.6879 117.04L28.9052 116.064ZM42.1363 121.058C41.2963 124.832 37.5563 127.21 33.7826 126.37C30.009 125.53 27.6307 121.79 28.4707 118.016L28.6879 117.04C27.968 120.275 30.4435 123.578 34.2171 124.418C37.9908 125.258 41.6336 123.317 42.3535 120.082L42.1363 121.058ZM27.1671 123.873L30.2088 110.208L27.1671 123.873ZM43.8744 113.249L40.8327 126.915L43.8744 113.249Z" fill="white" fill-opacity="0.15" mask="url(#path-4-inside-2_6086_9726)"/>
</g>
<g id="Rectangle_2">
<mask id="path-6-inside-3_6086_9726" fill="white">
<path d="M30.6402 117.475C31.2401 114.779 33.9116 113.081 36.6071 113.681C39.3025 114.281 41.0013 116.952 40.4013 119.647C39.8013 122.343 37.1299 124.042 34.4344 123.442C31.739 122.842 30.0402 120.17 30.6402 117.475Z"/>
</mask>
<path d="M30.6402 117.475C31.2401 114.779 33.9116 113.081 36.6071 113.681C39.3025 114.281 41.0013 116.952 40.4013 119.647C39.8013 122.343 37.1299 124.042 34.4344 123.442C31.739 122.842 30.0402 120.17 30.6402 117.475Z" fill="#066882"/>
<path d="M30.6402 117.475C31.2401 114.779 33.9116 113.081 36.6071 113.681C39.3025 114.281 41.0013 116.952 40.4013 119.647C39.8013 122.343 37.1299 124.042 34.4344 123.442C31.739 122.842 30.0402 120.17 30.6402 117.475Z" fill="url(#paint4_radial_6086_9726)" style="mix-blend-mode:overlay"/>
<path d="M30.6402 117.475C31.2401 114.779 33.9116 113.081 36.6071 113.681C39.3025 114.281 41.0013 116.952 40.4013 119.647C39.8013 122.343 37.1299 124.042 34.4344 123.442C31.739 122.842 30.0402 120.17 30.6402 117.475Z" fill="url(#paint5_radial_6086_9726)" fill-opacity="0.2"/>
<path d="M30.8574 116.499C31.4574 113.803 34.1289 112.104 36.8243 112.704C39.5198 113.304 41.2185 115.976 40.6186 118.671L40.4013 119.647C40.8813 117.491 39.0853 115.257 36.3898 114.657C33.6943 114.057 31.1201 115.318 30.6402 117.475L30.8574 116.499ZM40.184 120.624C39.5841 123.319 36.9126 125.018 34.2171 124.418C31.5217 123.818 29.8229 121.146 30.4229 118.451L30.6402 117.475C30.1602 119.631 31.9562 121.866 34.6517 122.466C37.3471 123.066 39.9213 121.804 40.4013 119.647L40.184 120.624ZM29.5538 122.355L31.7265 112.594L29.5538 122.355ZM41.4876 114.767L39.315 124.528L41.4876 114.767Z" fill="white" fill-opacity="0.15" mask="url(#path-6-inside-3_6086_9726)"/>
</g>
</g>
<g id="Group_3">
<g id="Rectangle_3" filter="url(#filter2_f_6086_9726)">
<path d="M78.6083 40.047C78.9683 38.4297 80.5712 37.4105 82.1885 37.7704C83.8057 38.1304 84.825 39.7333 84.465 41.3506L79.0334 65.7534C78.6734 67.3707 77.0705 68.3899 75.4532 68.0299C73.836 67.67 72.8167 66.0671 73.1767 64.4498L78.6083 40.047Z" fill="#066882"/>
</g>
<g id="Rectangle_4">
<mask id="path-9-inside-4_6086_9726" fill="white">
<path d="M78.9327 43.1927C79.1726 42.1145 80.2412 41.435 81.3194 41.675C82.3976 41.915 83.0771 42.9836 82.8371 44.0618L79.3609 59.6796C79.1209 60.7577 78.0523 61.4372 76.9741 61.1973C75.8959 60.9573 75.2164 59.8887 75.4564 58.8105L78.9327 43.1927Z"/>
</mask>
<path d="M78.9327 43.1927C79.1726 42.1145 80.2412 41.435 81.3194 41.675C82.3976 41.915 83.0771 42.9836 82.8371 44.0618L79.3609 59.6796C79.1209 60.7577 78.0523 61.4372 76.9741 61.1973C75.8959 60.9573 75.2164 59.8887 75.4564 58.8105L78.9327 43.1927Z" fill="url(#paint6_linear_6086_9726)"/>
<path d="M79.1499 42.2166C79.3899 41.1384 80.4585 40.4589 81.5367 40.6989C82.6149 40.9389 83.2944 42.0075 83.0544 43.0857L82.8371 44.0618C82.9571 43.5227 82.1803 42.8911 81.1021 42.6511C80.024 42.4111 79.0526 42.6536 78.9327 43.1927L79.1499 42.2166ZM79.1436 60.6557C78.9036 61.7339 77.835 62.4134 76.7568 62.1734C75.6787 61.9334 74.9992 60.8648 75.2391 59.7866L75.4564 58.8105C75.3364 59.3496 76.1132 59.9812 77.1914 60.2211C78.2696 60.4611 79.2409 60.2187 79.3609 59.6796L79.1436 60.6557ZM75.0219 60.7627L79.3672 41.2405L75.0219 60.7627ZM83.2716 42.1095L78.9263 61.6318L83.2716 42.1095Z" fill="white" fill-opacity="0.15" mask="url(#path-9-inside-4_6086_9726)"/>
</g>
</g>
</g>
<defs>
<filter id="filter0_di_6086_9726" x="27.5453" y="2.21875" width="102.109" height="126.226" filterUnits="userSpaceOnUse" color-interpolation-filters="sRGB">
<feFlood flood-opacity="0" result="BackgroundImageFix"/>
<feColorMatrix in="SourceAlpha" type="matrix" values="0 0 0 0 0 0 0 0 0 0 0 0 0 0 0 0 0 0 127 0" result="hardAlpha"/>
<feOffset dx="1" dy="1"/>
<feGaussianBlur stdDeviation="0.5"/>
<feComposite in2="hardAlpha" operator="out"/>
<feColorMatrix type="matrix" values="0 0 0 0 1 0 0 0 0 1 0 0 0 0 1 0 0 0 0.08 0"/>
<feBlend mode="normal" in2="BackgroundImageFix" result="effect1_dropShadow_6086_9726"/>
<feBlend mode="normal" in="SourceGraphic" in2="effect1_dropShadow_6086_9726" result="shape"/>
<feColorMatrix in="SourceAlpha" type="matrix" values="0 0 0 0 0 0 0 0 0 0 0 0 0 0 0 0 0 0 127 0" result="hardAlpha"/>
<feOffset dx="1"/>
<feGaussianBlur stdDeviation="1.5"/>
<feComposite in2="hardAlpha" operator="arithmetic" k2="-1" k3="1"/>
<feColorMatrix type="matrix" values="0 0 0 0 0.00547059 0 0 0 0 0.0187459 0 0 0 0 0.116098 0 0 0 0.6 0"/>
<feBlend mode="normal" in2="shape" result="effect2_innerShadow_6086_9726"/>
</filter>
<filter id="filter1_f_6086_9726" x="0.819225" y="83.8596" width="69.403" height="69.4032" filterUnits="userSpaceOnUse" color-interpolation-filters="sRGB">
<feFlood flood-opacity="0" result="BackgroundImageFix"/>
<feBlend mode="normal" in="SourceGraphic" in2="BackgroundImageFix" result="shape"/>
<feGaussianBlur stdDeviation="13.85" result="effect1_foregroundBlur_6086_9726"/>
</filter>
<filter id="filter2_f_6086_9726" x="56.4044" y="20.9982" width="44.8329" height="63.8041" filterUnits="userSpaceOnUse" color-interpolation-filters="sRGB">
<feFlood flood-opacity="0" result="BackgroundImageFix"/>
<feBlend mode="normal" in="SourceGraphic" in2="BackgroundImageFix" result="shape"/>
<feGaussianBlur stdDeviation="8.35" result="effect1_foregroundBlur_6086_9726"/>
</filter>
<radialGradient id="paint0_radial_6086_9726" cx="0" cy="0" r="1" gradientUnits="userSpaceOnUse" gradientTransform="translate(55.5469 28.589) rotate(102.548) scale(8.47826 64.7434)">
<stop stop-color="white"/>
<stop offset="1" stop-color="white" stop-opacity="0"/>
</radialGradient>
<radialGradient id="paint1_radial_6086_9726" cx="0" cy="0" r="1" gradientUnits="userSpaceOnUse" gradientTransform="translate(55.4997 28.8012) rotate(102.548) scale(3.04348 11.6667)">
<stop stop-color="white"/>
<stop offset="1" stop-color="white" stop-opacity="0"/>
</radialGradient>
<radialGradient id="paint2_radial_6086_9726" cx="0" cy="0" r="1" gradientUnits="userSpaceOnUse" gradientTransform="translate(34.6611 122.423) rotate(102.548) scale(11.8696 90.6407)">
<stop stop-color="white"/>
<stop offset="1" stop-color="white" stop-opacity="0"/>
</radialGradient>
<radialGradient id="paint3_radial_6086_9726" cx="0" cy="0" r="1" gradientUnits="userSpaceOnUse" gradientTransform="translate(34.595 122.72) rotate(102.548) scale(4.26087 16.3333)">
<stop stop-color="white"/>
<stop offset="1" stop-color="white" stop-opacity="0"/>
</radialGradient>
<radialGradient id="paint4_radial_6086_9726" cx="0" cy="0" r="1" gradientUnits="userSpaceOnUse" gradientTransform="translate(34.9067 121.32) rotate(102.548) scale(8.47826 64.7434)">
<stop stop-color="white"/>
<stop offset="1" stop-color="white" stop-opacity="0"/>
</radialGradient>
<radialGradient id="paint5_radial_6086_9726" cx="0" cy="0" r="1" gradientUnits="userSpaceOnUse" gradientTransform="translate(34.8595 121.532) rotate(102.548) scale(3.04348 11.6667)">
<stop stop-color="white"/>
<stop offset="1" stop-color="white" stop-opacity="0"/>
</radialGradient>
<linearGradient id="paint6_linear_6086_9726" x1="78.3465" y1="47.141" x2="82.7744" y2="48.8434" gradientUnits="userSpaceOnUse">
<stop stop-color="#00CBFF"/>
<stop offset="1" stop-color="#066882"/>
</linearGradient>
</defs>
</svg>
