<svg width="88" height="89" viewBox="0 0 88 89" fill="none" xmlns="http://www.w3.org/2000/svg">
<g id="Vector" opacity="0.08">
<path fill-rule="evenodd" clip-rule="evenodd" d="M63.6371 5.84814C63.7728 5.33058 64.0761 4.87255 64.4997 4.54568C64.9232 4.2188 65.4432 4.0415 65.9782 4.0415C66.5133 4.0415 67.0332 4.2188 67.4568 4.54568C67.8804 4.87255 68.1837 5.33058 68.3193 5.84814C69.3842 9.92048 70.5556 12.4213 72.3046 14.2703C74.0664 16.1322 76.6415 17.5843 81.0333 19.059C81.514 19.2204 81.9319 19.5287 82.2279 19.9404C82.5239 20.352 82.6832 20.8463 82.6832 21.3533C82.6832 21.8604 82.5239 22.3547 82.2279 22.7663C81.9319 23.178 81.514 23.4863 81.0333 23.6477C76.6447 25.1224 74.0632 26.5745 72.3046 28.4364C70.5556 30.2886 69.3874 32.7862 68.3193 36.8586C68.1826 37.3747 67.8791 37.8312 67.4559 38.1568C67.0328 38.4825 66.5138 38.6591 65.9798 38.6591C65.4459 38.6591 64.9269 38.4825 64.5038 38.1568C64.0806 37.8312 63.7771 37.3747 63.6404 36.8586C62.5723 32.7862 61.4009 30.2886 59.6519 28.4364C57.8933 26.5745 55.315 25.1224 50.9232 23.6477C50.4425 23.4863 50.0246 23.178 49.7286 22.7663C49.4325 22.3547 49.2733 21.8604 49.2733 21.3533C49.2733 20.8463 49.4325 20.352 49.7286 19.9404C50.0246 19.5287 50.4425 19.2204 50.9232 19.059C55.315 17.5843 57.8933 16.1322 59.6519 14.2736C61.4009 12.4213 62.5723 9.91725 63.6371 5.85137V5.84814ZM29.4063 22.5602C29.5419 22.0426 29.8452 21.5846 30.2688 21.2577C30.6924 20.9309 31.2123 20.7536 31.7474 20.7536C32.2824 20.7536 32.8024 20.9309 33.226 21.2577C33.6495 21.5846 33.9529 22.0426 34.0885 22.5602C36.0085 29.9272 38.1866 34.7385 41.6071 38.372C45.0341 42.0151 49.9454 44.7193 57.8416 47.3814C58.3223 47.5428 58.7402 47.8511 59.0362 48.2628C59.3323 48.6745 59.4915 49.1687 59.4915 49.6758C59.4915 50.1828 59.3323 50.6771 59.0362 51.0887C58.7402 51.5004 58.3223 51.8087 57.8416 51.9701C49.9454 54.629 45.0341 57.3364 41.6071 60.9796C38.1866 64.613 36.0085 69.4243 34.0885 76.7913C33.9529 77.3089 33.6495 77.7669 33.226 78.0938C32.8024 78.4207 32.2824 78.598 31.7474 78.598C31.2123 78.598 30.6924 78.4207 30.2688 78.0938C29.8452 77.7669 29.5419 77.3089 29.4063 76.7913C27.483 69.4243 25.3081 64.613 21.8876 60.9796C18.4574 57.3364 13.5493 54.629 5.6499 51.9701C5.16921 51.8087 4.75134 51.5004 4.4553 51.0887C4.15926 50.6771 4 50.1828 4 49.6758C4 49.1687 4.15926 48.6745 4.4553 48.2628C4.75134 47.8511 5.16921 47.5428 5.6499 47.3814C13.5493 44.7193 18.4607 42.0151 21.8876 38.372C25.3081 34.7385 27.483 29.9272 29.4063 22.5602ZM70.8718 58.5304C70.3387 58.53 69.8204 58.7056 69.3973 59.0301C68.9743 59.3545 68.6702 59.8095 68.5323 60.3245C67.7579 63.2287 66.9286 64.9099 65.7475 66.1329C64.5536 67.372 62.7594 68.3853 59.5422 69.4437C59.058 69.6028 58.6364 69.9108 58.3375 70.3236C58.0386 70.7365 57.8777 71.2332 57.8777 71.7429C57.8777 72.2525 58.0386 72.7492 58.3375 73.1621C58.6364 73.5749 59.058 73.8829 59.5422 74.042C62.7594 75.0972 64.5536 76.1105 65.7475 77.3496C66.9286 78.5758 67.7579 80.2538 68.5323 83.158C68.669 83.6741 68.9726 84.1306 69.3957 84.4563C69.8189 84.7819 70.3379 84.9585 70.8718 84.9585C71.4058 84.9585 71.9247 84.7819 72.3479 84.4563C72.771 84.1306 73.0746 83.6741 73.2113 83.158C73.9858 80.2538 74.8119 78.5758 75.9929 77.3496C77.1868 76.1105 78.981 75.0972 82.1982 74.042C82.6824 73.8829 83.104 73.5749 83.4029 73.1621C83.7018 72.7492 83.8627 72.2525 83.8627 71.7429C83.8627 71.2332 83.7018 70.7365 83.4029 70.3236C83.104 69.9108 82.6824 69.6028 82.1982 69.4437C78.981 68.3853 77.1868 67.372 75.9929 66.1329C74.8119 64.9099 73.9858 63.2287 73.2081 60.3245C73.0703 59.8101 72.7667 59.3554 72.3443 59.0311C71.922 58.7067 71.4044 58.5307 70.8718 58.5304Z" fill="white"/>
<path d="M62.0643 5.48858C62.068 5.47204 62.0721 5.45555 62.0764 5.43912C62.3024 4.57652 62.808 3.81314 63.5139 3.26835C64.2199 2.72355 65.0865 2.42806 65.9782 2.42806C66.87 2.42806 67.7366 2.72356 68.4425 3.26835C69.1485 3.81314 69.654 4.57652 69.8801 5.43912L69.8803 5.43997C70.918 9.40853 72.0013 11.6017 73.4765 13.1614C74.9717 14.7415 77.2539 16.088 81.5469 17.5295C82.348 17.7985 83.0444 18.3123 83.5378 18.9984C84.0312 19.6845 84.2966 20.5082 84.2966 21.3533C84.2966 22.1985 84.0312 23.0222 83.5378 23.7083C83.0444 24.3944 82.348 24.9082 81.5468 25.1772C77.2557 26.6192 74.9687 27.9656 73.4777 29.5441L62.0643 5.48858ZM62.0643 5.48858C61.0302 9.42164 59.9496 11.6079 58.4795 13.1651C56.9879 14.7413 54.7031 16.0878 50.4096 17.5295C49.6085 17.7985 48.9121 18.3123 48.4187 18.9984C47.9253 19.6845 47.6598 20.5083 47.6598 21.3533C47.6598 22.1984 47.9253 23.0222 48.4187 23.7083C48.9121 24.3944 49.6085 24.9082 50.4096 25.1772C54.7036 26.619 56.9878 27.9655 58.479 29.5443C59.9556 31.1081 61.0389 33.2995 62.0797 37.2679L62.0807 37.2717C62.3085 38.1319 62.8145 38.8927 63.5197 39.4354C64.225 39.9782 65.0899 40.2725 65.9798 40.2725C66.8698 40.2725 67.7347 39.9782 68.44 39.4354C69.1452 38.8927 69.6512 38.1319 69.879 37.2717L69.88 37.2679C70.9212 33.2982 72.0015 31.1075 73.4775 29.5443L62.0643 5.48858ZM27.8451 22.1527L27.8455 22.1512C28.0716 21.2886 28.5771 20.5252 29.2831 19.9804C29.9891 19.4356 30.8556 19.1401 31.7474 19.1401C32.6391 19.1401 33.5057 19.4356 34.2117 19.9804C34.9176 20.5252 35.4232 21.2886 35.6492 22.1512L35.6498 22.1533C37.543 29.4174 39.6337 33.9218 42.7819 37.266L42.7824 37.2665C45.9417 40.6252 50.5581 43.223 58.3552 45.8519L27.8451 22.1527ZM27.8451 22.1527C25.9485 29.4179 23.8608 33.922 20.7128 37.266L20.7124 37.2665C17.5531 40.6252 12.9367 43.2229 5.13638 45.8519M27.8451 22.1527L5.13638 45.8519M29.4063 76.7913C29.5419 77.3089 29.8452 77.7669 30.2688 78.0938C30.6924 78.4207 31.2123 78.598 31.7474 78.598C32.2824 78.598 32.8024 78.4207 33.226 78.0938C33.6495 77.7669 33.9529 77.3089 34.0885 76.7913H29.4063ZM29.4063 76.7913C27.483 69.4243 25.3081 64.613 21.8876 60.9796L29.4063 76.7913ZM42.7824 62.085L42.7819 62.0855C39.6337 65.4297 37.543 69.9341 35.6498 77.1982L35.6492 77.2003C35.4232 78.063 34.9176 78.8263 34.2117 79.3711C33.5057 79.9159 32.6391 80.2114 31.7474 80.2114C30.8556 80.2114 29.989 79.9159 29.2831 79.3711C28.5771 78.8263 28.0716 78.063 27.8455 77.2003L27.8451 77.1989C25.9485 69.9337 23.8609 65.4296 20.7129 62.0856L42.7824 62.085ZM42.7824 62.085C45.942 58.7261 50.5587 56.1251 58.3551 53.4996C59.1563 53.2307 59.8527 52.7168 60.3461 52.0307C60.8395 51.3446 61.105 50.5209 61.105 49.6758C61.105 48.8307 60.8395 48.0069 60.3461 47.3208C59.8531 46.6352 59.1574 46.1217 58.3571 45.8526L42.7824 62.085ZM4.4553 48.2628C4.75134 47.8511 5.16921 47.5428 5.6499 47.3814L4.4553 48.2628ZM4.4553 48.2628C4.15926 48.6745 4 49.1687 4 49.6758C4 50.1828 4.15926 50.6771 4.4553 51.0887C4.75134 51.5004 5.16921 51.8087 5.6499 51.9701L4.4553 48.2628ZM5.13638 45.8519C4.33523 46.1209 3.63879 46.6347 3.14539 47.3208C2.65199 48.0069 2.38655 48.8307 2.38655 49.6758C2.38655 50.5209 2.65199 51.3446 3.14539 52.0307C3.63855 52.7165 4.33453 53.2301 5.13519 53.4992C12.935 56.1247 17.5494 58.7257 20.7128 62.0855L5.13638 45.8519ZM66.9734 59.9088L66.9738 59.9072C67.2036 59.0489 67.7104 58.2905 68.4155 57.7498C69.1205 57.2091 69.9844 56.9163 70.8729 56.9169C71.7604 56.9175 72.6231 57.2108 73.327 57.7514C74.031 58.292 74.537 59.0498 74.7666 59.9072C75.5159 62.7053 76.2509 64.0775 77.1535 65.0121L77.1547 65.0134C78.0792 65.9728 79.5792 66.8836 82.7024 67.9111C83.5092 68.1763 84.2117 68.6896 84.7098 69.3775C85.2079 70.0656 85.4761 70.8934 85.4761 71.7429C85.4761 72.5923 85.2079 73.4201 84.7098 74.1082C84.2117 74.7963 83.509 75.3095 82.702 75.5748L82.701 75.5751C79.5789 76.5991 78.0792 77.5097 77.155 78.4688L66.9734 59.9088ZM66.9734 59.9088C66.228 62.704 65.49 64.0769 64.5869 65.0121L64.5856 65.0134C63.6612 65.9728 62.1614 66.8835 59.0384 67.9109M66.9734 59.9088L59.0384 67.9109M59.0384 67.9109C58.2314 68.1762 57.5288 68.6894 57.0306 69.3775C56.5325 70.0656 56.2643 70.8934 56.2643 71.7429C56.2643 72.5923 56.5325 73.4201 57.0306 74.1082C57.5288 74.7963 58.2314 75.3095 59.0384 75.5748L59.0394 75.5751C62.1617 76.5992 63.6614 77.5099 64.5856 78.4691C65.4904 79.4085 66.2281 80.7797 66.9729 83.5722C67.2009 84.432 67.7068 85.1923 68.4117 85.7349C69.117 86.2776 69.9819 86.5719 70.8718 86.5719C71.7617 86.5719 72.6267 86.2776 73.3319 85.7349C74.0364 85.1927 74.5421 84.4329 74.7703 83.5737C75.5157 80.7783 76.2506 79.4079 77.1547 78.4691L59.0384 67.9109Z" stroke="black" stroke-opacity="0.07" stroke-width="3.22689" stroke-linecap="round" stroke-linejoin="round"/>
</g>
</svg>
