<svg xmlns="http://www.w3.org/2000/svg" width="101" height="101" fill="none"><path fill="#fff" d="M89.31 22.437 51.69 9.897a3.14 3.14 0 0 0-1.982 0l-37.62 12.54a3.13 3.13 0 0 0-2.143 2.974v31.35a3.135 3.135 0 0 0 6.27 0v-27l13.163 4.385a25.08 25.08 0 0 0 8.092 34.503c-7.054 2.767-13.151 7.771-17.61 14.613a3.135 3.135 0 1 0 5.25 3.425c5.906-9.06 15.232-14.252 25.589-14.252s19.683 5.192 25.589 14.252a3.135 3.135 0 0 0 5.25-3.425c-4.459-6.842-10.58-11.846-17.61-14.613a25.08 25.08 0 0 0 8.092-34.484l17.29-5.76a3.134 3.134 0 0 0 0-5.949zM69.507 47.355a18.81 18.81 0 1 1-33.954-11.148l14.154 4.702c.643.215 1.339.215 1.983 0l14.153-4.702a18.77 18.77 0 0 1 3.665 11.148M50.7 34.647l-27.705-9.236L50.7 16.175l27.705 9.236z"/></svg>