<svg xmlns="http://www.w3.org/2000/svg" width="153" height="162" fill="none"><path stroke="#fff" stroke-width=".947" d="M67.484 3.898c-22.91 26.184-39.45 72.823-6.546 133.372-61.542 2.455-92.46-116.189 6.546-133.372Z"/><path fill="#FFFEFE" stroke="#fff" stroke-width=".947" d="M130.49 120.218C186.492 51.508 119.852-2.202 73.213 4.03c-14.728 11.454-22.91 35.051-22.91 39.96 77.732-27.819 77.732 44.317 58.094 53.318L91.214 76.852 65.85 93.217 78.941 110.4c-12.437 1.963-24.547-4.769-28.638-8.315 4.09 10.637 4.91 20.456 15.546 35.316 11.783 3.928 29.73 1.637 36.002 0l18.001 23.729 26.184-18.819z"/><path stroke="#fff" stroke-width=".947" d="M52.584 23.535c-3.371 1.55-7.655 3.764-12.274 6.496m-26.184 77.782L45.22 94.721 25.173 79.993m-11.046 27.82 36.002 10.637m-36.002-10.637 11.046-27.82m0 0L5.126 65.265c2.379-8.326 9.576-16.405 18.001-23.33m2.046 38.058-2.046-38.058m0 0 2.046-18.4 15.137 6.496M23.127 41.935c5.537-4.552 11.604-8.606 17.183-11.904M23.127 41.935l22.092 5.329L40.31 30.03M23.127 41.935 36.22 63.629"/><ellipse cx="44.427" cy="93.716" fill="#D9D9D9" rx="3.124" ry="3.085"/><ellipse cx="49.337" cy="118.263" fill="#D9D9D9" rx="3.124" ry="3.085"/><ellipse cx="24.789" cy="78.987" fill="#D9D9D9" rx="3.124" ry="3.085"/><ellipse cx="36.241" cy="64.259" fill="#D9D9D9" rx="3.124" ry="3.085"/><ellipse cx="23.159" cy="41.349" fill="#D9D9D9" rx="3.124" ry="3.085"/><ellipse cx="41.152" cy="29.893" fill="#D9D9D9" rx="3.124" ry="3.085"/><ellipse cx="52.612" cy="24.985" fill="#D9D9D9" rx="3.124" ry="3.085"/><ellipse cx="16.088" cy="107.24" fill="#D9D9D9" rx="4.686" ry="4.627"/><ellipse cx="5.079" cy="64.164" fill="#D9D9D9" rx="4.686" ry="4.627"/><ellipse cx="26.351" cy="23.254" fill="#D9D9D9" rx="4.686" ry="4.627"/><ellipse cx="45.768" cy="50.168" fill="#D9D9D9" rx="4.686" ry="4.627"/><ellipse cx="67.266" cy="5.252" fill="#D9D9D9" rx="4.686" ry="4.627"/><ellipse cx="60.794" cy="136.264" fill="#D9D9D9" rx="3.124" ry="3.085"/></svg>