<svg xmlns="http://www.w3.org/2000/svg" width="301" height="71" fill="none"><path stroke="#fff" d="M29.238 1.426c-9.984 11.41-17.192 31.736-2.852 58.123-26.82 1.07-40.294-50.635 2.852-58.123Z"/><path fill="#FFFEFE" stroke="#fff" d="M56.697 52.119c24.406-29.944-4.636-53.35-24.96-50.635-6.42 4.992-9.985 15.276-9.985 17.415C55.627 6.775 55.627 38.212 47.069 42.134l-7.488-8.914-11.054 7.132 5.705 7.488c-5.42.855-10.697-2.078-12.48-3.624 1.783 4.636 2.14 8.915 6.775 15.39 5.135 1.712 12.956.714 15.69 0l7.844 10.342 11.411-8.202z"/><path stroke="#fff" d="M22.744 9.984a61 61 0 0 0-5.349 2.831M5.985 46.712l13.55-5.705-8.736-6.418M5.985 46.712l15.69 4.636m-15.69-4.636 4.814-12.123m0 0L2.063 28.17c1.036-3.629 4.173-7.15 7.844-10.167m.892 16.586-.892-16.586m0 0 .892-8.019 6.596 2.831m-7.488 5.188c2.413-1.984 5.057-3.75 7.488-5.188m-7.488 5.188 9.628 2.322-2.14-7.51m-7.488 5.188 5.706 9.454"/><ellipse cx="19.19" cy="40.569" fill="#D9D9D9" rx="1.362" ry="1.344"/><ellipse cx="21.33" cy="51.266" fill="#D9D9D9" rx="1.362" ry="1.344"/><ellipse cx="10.633" cy="34.149" fill="#D9D9D9" rx="1.362" ry="1.344"/><ellipse cx="15.625" cy="27.731" fill="#D9D9D9" rx="1.362" ry="1.344"/><ellipse cx="9.92" cy="17.747" fill="#D9D9D9" rx="1.362" ry="1.344"/><ellipse cx="17.764" cy="12.755" fill="#D9D9D9" rx="1.362" ry="1.344"/><ellipse cx="22.756" cy="10.616" fill="#D9D9D9" rx="1.362" ry="1.344"/><ellipse cx="6.841" cy="46.462" fill="#D9D9D9" rx="2.042" ry="2.017"/><ellipse cx="2.042" cy="27.69" fill="#D9D9D9" rx="2.042" ry="2.017"/><ellipse cx="11.314" cy="9.862" fill="#D9D9D9" rx="2.042" ry="2.017"/><ellipse cx="19.775" cy="21.591" fill="#D9D9D9" rx="2.042" ry="2.017"/><ellipse cx="29.142" cy="2.017" fill="#D9D9D9" rx="2.042" ry="2.017"/><ellipse cx="26.323" cy="59.11" fill="#D9D9D9" rx="1.362" ry="1.344"/><path fill="#fff" d="M99.106 41.864h4.858l3.419 4.458 1.614 1.982 5.45 7.111h-5.05l-3.644-4.746-1.246-1.726zM115.5 36.11q0 5.242-1.917 9.013-1.918 3.755-5.258 5.785-3.324 2.013-7.558 2.013-4.251 0-7.591-2.013-3.324-2.03-5.242-5.801-1.917-3.771-1.917-8.997 0-5.241 1.918-8.997 1.917-3.77 5.241-5.785 3.34-2.03 7.591-2.03 4.234 0 7.558 2.03 3.34 2.014 5.258 5.785 1.917 3.756 1.917 8.997m-4.89 0q0-3.995-1.294-6.728-1.278-2.748-3.516-4.154-2.221-1.423-5.033-1.423-2.83 0-5.05 1.422-2.222 1.407-3.516 4.155-1.278 2.733-1.278 6.728t1.278 6.744q1.294 2.732 3.516 4.154 2.22 1.407 5.05 1.407 2.812 0 5.033-1.407 2.238-1.422 3.516-4.154 1.294-2.749 1.294-6.744m22.571 16.904q-5.76 0-8.955-2.475-3.15-2.52-3.15-6.885v-22.68h4.275v22.68q0 2.835 2.025 4.41 2.07 1.53 5.805 1.53t5.76-1.53q2.07-1.53 2.07-4.41v-22.68h4.275v22.68q0 4.365-3.195 6.885-3.15 2.475-8.91 2.475m19.21-32.04h4.275v31.5h-4.275zm25.935 12.195q3.195.54 4.905 2.43t3.06 6.03l3.285 10.845h-4.275l-3.195-10.44q-.63-2.07-1.395-3.195-.72-1.125-1.98-1.755-1.215-.63-3.33-.81l-6.21 6.57v9.63h-4.275v-31.5h4.275v16.65l15.525-16.65h5.13zm21.554 6.03-10.62-18.225h4.725l8.145 14.265 8.01-14.265h4.77L204.156 39.2v13.275h-4.275zm44.279-18.225v25.92q0 2.79-1.17 4.185-1.125 1.395-3.6 1.395h-3.015l-12.96-24.93v24.93h-4.05v-31.5h4.95l14.265 27.81h.27q.72 0 .99-.54t.27-1.98v-25.29zm16.905 31.5q-5.49 0-8.055-2.385t-2.565-7.155v-12.42q0-4.77 2.565-7.155t8.055-2.385h10.755v3.375h-10.755q-3.285 0-4.815 1.53-1.53 1.485-1.53 4.635v4.5h14.895v3.42H254.72v4.5q0 3.15 1.53 4.68 1.53 1.485 4.815 1.485H272v3.375zm23.987-28.125h-9.945v-3.375h24.21v3.375h-9.99v28.125h-4.275z"/><path fill="#fff" d="M99.106 41.864v-1h-2.021l1.226 1.606zm4.858 0 .793-.609-.3-.391h-.493zm3.419 4.458-.793.609.009.012.009.01zm1.614 1.982.794-.608-.009-.012-.009-.012zm5.45 7.111v1h2.026l-1.233-1.608zm-5.05 0-.793.609.3.391h.493zm-3.644-4.746-.81.585.008.012.009.012zm-1.246-1.726.811-.585-.008-.011-.008-.01zm9.077-3.82.89.456.001-.002zm-5.258 5.786.518.855h.001zm-15.149 0-.521.853.005.003zm-5.242-5.801.892-.453zm0-17.994.891.455v-.002zm5.242-5.785.518.856.001-.001zm15.149 0-.521.854.005.003zm5.258 5.785-.892.453.001.002zm-4.267 2.27-.907.421.003.006zm-3.516-4.155-.539.842.007.004zm-10.083 0 .535.844.004-.002zm-3.516 4.154-.904-.426-.002.003zm0 13.472-.907.421.004.007zm3.516 4.154-.54.843.005.002zm10.083 0 .535.845h.002zm3.516-4.154-.905-.426-.001.002zm-10.211.009h4.858v-2h-4.858zm4.064-.392 3.42 4.459 1.587-1.217-3.42-4.459zm3.438 4.482 1.614 1.981 1.551-1.263-1.614-1.981zm1.596 1.958 5.449 7.111 1.587-1.216-5.449-7.111zm6.243 5.503h-5.05v2h5.05zm-4.257.391-3.643-4.746-1.587 1.218 3.644 4.746zm-3.626-4.723-1.246-1.725-1.622 1.17 1.247 1.726zm-1.262-1.747-5.401-7.079-1.59 1.213 5.401 7.08zm9.199-12.225c0 3.374-.617 6.215-1.809 8.56l1.783.906c1.365-2.684 2.026-5.851 2.026-9.466zm-1.808 8.558c-1.201 2.352-2.831 4.136-4.886 5.385l1.038 1.71c2.398-1.458 4.273-3.53 5.629-6.186zm-4.885 5.384c-2.046 1.24-4.383 1.87-7.04 1.87v2c2.988 0 5.69-.714 8.076-2.16zm-7.04 1.87c-2.67 0-5.018-.63-7.075-1.87l-1.032 1.712c2.396 1.445 5.108 2.157 8.107 2.157zm-7.07-1.868c-2.044-1.248-3.67-3.037-4.871-5.4l-1.783.906c1.355 2.665 3.224 4.743 5.612 6.201zm-4.871-5.4c-1.192-2.345-1.81-5.181-1.81-8.544h-2c0 3.605.663 6.766 2.027 9.45zm-1.81-8.544c0-3.374.618-6.21 1.81-8.542l-1.782-.91c-1.366 2.675-2.027 5.837-2.027 9.452zm1.81-8.544c1.202-2.363 2.826-4.145 4.868-5.382l-1.036-1.71c-2.39 1.447-4.26 3.52-5.615 6.186zm4.87-5.383c2.056-1.25 4.403-1.884 7.071-1.884v-2c-3 0-5.714.718-8.11 2.175zm7.071-1.884c2.655 0 4.992.634 7.037 1.883l1.042-1.707c-2.386-1.457-5.089-2.176-8.079-2.176zm7.042 1.886c2.053 1.237 3.681 3.02 4.882 5.381l1.783-.906c-1.356-2.666-3.232-4.74-5.633-6.188zm4.883 5.383c1.191 2.333 1.808 5.168 1.808 8.542h2c0-3.615-.661-6.777-2.027-9.452zm-1.082 8.542c0-2.766-.447-5.164-1.39-7.156l-1.808.856c.783 1.653 1.198 3.74 1.198 6.3zm-1.387-7.15c-.922-1.98-2.213-3.525-3.891-4.58l-1.064 1.694c1.305.82 2.358 2.046 3.141 3.73zm-3.884-4.575c-1.652-1.058-3.52-1.58-5.572-1.58v2c1.697 0 3.185.427 4.494 1.265zm-5.572-1.58c-2.063 0-3.936.522-5.59 1.58l1.079 1.685c1.308-.838 2.802-1.265 4.511-1.265zm-5.585 1.578c-1.665 1.054-2.955 2.596-3.886 4.573l1.81.852c.795-1.687 1.85-2.915 3.146-3.736zm-3.887 4.576c-.93 1.99-1.372 4.386-1.372 7.151h2c0-2.562.41-4.65 1.184-6.304zm-1.372 7.151c0 2.765.441 5.166 1.371 7.165l1.814-.843c-.775-1.666-1.185-3.76-1.185-6.322zm1.374 7.172c.932 1.965 2.22 3.505 3.88 4.569l1.079-1.685c-1.3-.833-2.356-2.063-3.151-3.74zm3.885 4.571c1.653 1.047 3.524 1.562 5.585 1.562v-2c-1.712 0-3.207-.423-4.515-1.251zm5.585 1.562c2.05 0 3.916-.516 5.568-1.562l-1.07-1.69c-1.309.83-2.799 1.252-4.498 1.252zm5.57-1.563c1.673-1.064 2.963-2.605 3.885-4.575l-1.812-.847c-.783 1.674-1.837 2.902-3.146 3.735zm3.884-4.572c.942-2.001 1.389-4.404 1.389-7.17h-2c0 2.56-.415 4.654-1.199 6.318zm14.005 7.259-.625.78.006.005.007.005zm-3.15-29.565v-1h-1v1zm4.275 0h1v-1h-1zm2.025 27.09-.614.789.01.008.01.007zm11.565 0-.594-.805-.009.007zm2.07-27.09v-1h-1v1zm4.275 0h1v-1h-1zm-3.195 29.565.618.786.001-.001zm-8.91 1.475c-3.71 0-6.449-.799-8.343-2.266l-1.224 1.581c2.366 1.833 5.597 2.685 9.567 2.685zm-8.33-2.256c-1.842-1.473-2.775-3.47-2.775-6.104h-2c0 3.185 1.167 5.779 3.525 7.666zm-2.775-6.104v-22.68h-2v22.68zm-1-21.68h4.275v-2h-4.275zm3.275-1v22.68h2v-22.68zm0 22.68c0 2.161.79 3.938 2.411 5.199l1.228-1.579c-1.079-.839-1.639-2.002-1.639-3.62zm2.431 5.214c1.614 1.193 3.788 1.726 6.399 1.726v-2c-2.369 0-4.065-.488-5.211-1.335zm6.399 1.726c2.609 0 4.774-.532 6.363-1.733l-1.206-1.595c-1.111.84-2.786 1.328-5.157 1.328zm6.354-1.726c1.669-1.233 2.476-3.02 2.476-5.214h-2c0 1.646-.572 2.798-1.664 3.605zm2.476-5.214v-22.68h-2v22.68zm-1-21.68h4.275v-2h-4.275zm3.275-1v22.68h2v-22.68zm0 22.68c0 2.629-.944 4.624-2.814 6.1l1.238 1.57c2.39-1.885 3.576-4.48 3.576-7.67zm-2.813 6.098c-1.861 1.463-4.581 2.262-8.292 2.262v2c3.969 0 7.189-.851 9.528-2.69zm10.918-28.778v-1h-1v1zm4.275 0h1v-1h-1zm0 31.5v1h1v-1zm-4.275 0h-1v1h1zm0-30.5h4.275v-2h-4.275zm3.275-1v31.5h2v-31.5zm1 30.5h-4.275v2h4.275zm-3.275 1v-31.5h-2v31.5zm24.935-19.305-.727-.687-1.286 1.36 1.846.313zm4.905 2.43.741-.671zm3.06 6.03.957-.29-.003-.01-.003-.01zm3.285 10.845v1h1.348l-.391-1.29zm-4.275 0-.956.292.216.708h.74zm-3.195-10.44-.957.29.001.002zm-1.395-3.195-.842.539.007.011.008.012zm-1.98-1.755-.46.887.006.004.007.003zm-3.33-.81.085-.997-.481-.04-.331.35zm-6.21 6.57-.727-.687-.273.289v.398zm0 9.63v1h1v-1zm-4.275 0h-1v1h1zm0-31.5v-1h-1v1zm4.275 0h1v-1h-1zm0 16.65h-1v2.538l1.731-1.856zm15.525-16.65v-1h-.435l-.297.318zm5.13 0 .727.686 1.593-1.686h-2.32zm-11.687 13.18c1.97.334 3.378 1.063 4.33 2.115l1.483-1.341c-1.327-1.468-3.189-2.358-5.479-2.745zm4.33 2.115c1.002 1.107 1.968 2.962 2.851 5.67l1.902-.62c-.917-2.812-1.991-4.978-3.27-6.391zm2.845 5.65 3.285 10.844 1.914-.58-3.285-10.844zm4.242 9.555h-4.275v2h4.275zm-3.319.707-3.195-10.44-1.912.585 3.195 10.44zm-3.194-10.439c-.435-1.426-.935-2.598-1.525-3.466l-1.654 1.125c.43.632.859 1.59 1.265 2.924zm-1.51-3.442c-.582-.91-1.383-1.615-2.375-2.11l-.894 1.788c.688.344 1.207.81 1.585 1.4zm-2.362-2.104c-.973-.505-2.229-.793-3.705-.919l-.17 1.993c1.343.114 2.308.366 2.955.701zm-4.517-.61-6.21 6.57 1.454 1.375 6.21-6.57zm-6.483 7.258v9.63h2v-9.63zm1 8.63h-4.275v2h4.275zm-3.275 1v-31.5h-2v31.5zm-1-30.5h4.275v-2h-4.275zm3.275-1v16.65h2v-16.65zm1.731 17.332 15.525-16.65-1.463-1.364-15.525 16.65zm14.794-16.332h5.13v-2h-5.13zm4.403-1.687L177.6 32.483l1.454 1.373 11.52-12.195zM199.881 39.2h1v-.27l-.136-.234zm-10.62-18.225v-1h-1.74l.876 1.503zm4.725 0 .868-.496-.288-.504h-.58zm8.145 14.265-.869.495.876 1.534.865-1.54zm8.01-14.265v-1h-.586l-.286.51zm4.77 0 .861.508.89-1.508h-1.751zM204.156 39.2l-.861-.509-.139.235v.274zm0 13.275v1h1v-1zm-4.275 0h-1v1h1zm.864-13.779-10.62-18.225-1.728 1.007 10.62 18.225zm-11.484-16.721h4.725v-2h-4.725zm3.856-.505 8.145 14.266 1.737-.992-8.145-14.265zm9.886 14.26 8.01-14.266-1.744-.979-8.01 14.265zm7.138-13.755h4.77v-2h-4.77zm3.909-1.509-10.755 18.225 1.722 1.017 10.755-18.225zM203.156 39.2v13.275h2V39.2zm1 12.275h-4.275v2h4.275zm-3.275 1V39.2h-2v13.275zm43.279-31.5h1v-1h-1zm-1.17 30.105-.766-.643-.006.007-.006.008zm-6.615 1.395-.887.46.28.54h.607zm-12.96-24.93.887-.462-1.887.462zm0 24.93v1h1v-1zm-4.05 0h-1v1h1zm0-31.5v-1h-1v1zm4.95 0 .89-.457-.279-.543h-.611zm14.265 27.81-.89.456.279.544h.611zm1.26-.54.895.447zm.27-27.27v-1h-1v1zm3.05 0v25.92h2v-25.92zm0 25.92c0 1.744-.369 2.866-.936 3.542l1.532 1.285c.994-1.184 1.404-2.852 1.404-4.827zm-.948 3.557c-.495.614-1.353 1.023-2.822 1.023v2c1.831 0 3.374-.522 4.379-1.768zm-2.822 1.023h-3.015v2h3.015zm-2.128.538-12.96-24.93-1.774.923 12.96 24.93zm-14.847-24.468v24.93h2v-24.93zm1 23.93h-4.05v2h4.05zm-3.05 1v-31.5h-2v31.5zm-1-30.5h4.95v-2h-4.95zm4.06-.544 14.265 27.81 1.78-.913-14.265-27.81zm15.155 28.354h.27v-2h-.27zm.27 0c.362 0 .739-.068 1.086-.257a1.9 1.9 0 0 0 .799-.836l-1.789-.895q-.008.014.004-.003a.1.1 0 0 1 .029-.022c.017-.01-.011.013-.129.013zm1.885-1.093c.296-.593.375-1.47.375-2.427h-2c0 .963-.101 1.405-.164 1.532zm.375-2.427v-25.29h-2v25.29zm-1-24.29h4.05v-2h-4.05zm12.9 1.385.681.732zm18.81-2.385h1v-1h-1zm0 3.375v1h1v-1zm-15.57 1.53.696.717.005-.005.006-.005zm-1.53 9.135h-1v1h1zm14.895 0h1v-1h-1zm0 3.42v1h1v-1zm-14.895 0v-1h-1v1zm1.53 9.18-.707.707.005.005.005.005zM272 49.1h1v-1h-1zm0 3.375v1h1v-1zm-10.935-1c-3.545 0-5.93-.775-7.374-2.118l-1.362 1.465c1.976 1.837 4.961 2.653 8.736 2.653zm-7.374-2.118c-1.441-1.34-2.246-3.416-2.246-6.422h-2c0 3.353.905 6.047 2.884 7.887zm-2.246-6.422v-12.42h-2v12.42zm0-12.42c0-3.007.805-5.083 2.246-6.423l-1.362-1.465c-1.979 1.84-2.884 4.534-2.884 7.888zm2.246-6.423c1.444-1.343 3.829-2.117 7.374-2.117v-2c-3.775 0-6.76.815-8.736 2.652zm7.374-2.117h10.755v-2h-10.755zm9.755-1v3.375h2v-3.375zm1 2.375h-10.755v2h10.755zm-10.755 0c-2.32 0-4.237.537-5.522 1.822l1.414 1.415c.754-.755 2.048-1.237 4.108-1.237zm-5.512 1.812c-1.29 1.252-1.833 3.111-1.833 5.353h2c0-1.959.476-3.19 1.226-3.918zm-1.833 5.353v4.5h2v-4.5zm1 5.5h14.895v-2H254.72zm13.895-1v3.42h2v-3.42zm1 2.42H254.72v2h14.895zm-15.895 1v4.5h2v-4.5zm0 4.5c0 2.244.544 4.108 1.823 5.387l1.414-1.415c-.762-.761-1.237-2.017-1.237-3.972zm1.833 5.397c1.286 1.248 3.198 1.768 5.512 1.768v-2c-2.067 0-3.365-.471-4.119-1.203zm5.512 1.768H272v-2h-10.935zm9.935-1v3.375h2V49.1zm1 2.375h-10.935v2H272zm13.052-27.125h1v-1h-1zm-9.945 0h-1v1h1zm0-3.375v-1h-1v1zm24.21 0h1v-1h-1zm0 3.375v1h1v-1zm-9.99 0v-1h-1v1zm0 28.125v1h1v-1zm-4.275 0h-1v1h1zm0-29.125h-9.945v2h9.945zm-8.945 1v-3.375h-2v3.375zm-1-2.375h24.21v-2h-24.21zm23.21-1v3.375h2v-3.375zm1 2.375h-9.99v2h9.99zm-10.99 1v28.125h2V24.35zm1 27.125h-4.275v2h4.275zm-3.275 1V24.35h-2v28.125z"/></svg>