<svg xmlns="http://www.w3.org/2000/svg" width="28" height="28" fill="none"><path fill="#fff" d="M5 24.021V19.24L21.425 2.87l4.725 4.725L9.781 24.021zm2.25-2.25h1.575l11.053-11.025-.787-.816-.816-.787L7.25 20.196zm11.84-11.84-.815-.788 1.603 1.603zm2.785 10.153q0-1.013-.534-1.744-.535-.732-1.435-1.266l-1.66 1.66q.648.28 1.013.618.366.338.366.732 0 .646-1.167 1.167-1.165.521-3.333.52v2.25q2.925 0 4.837-1.04 1.913-1.041 1.913-2.897m-16.228-4.67 1.687-1.687q-.59-.225-.9-.478-.309-.252-.309-.478 0-.337.52-.688.519-.351 2.124-1.027 2.278-.985 3.192-1.843.915-.859.914-2.067 0-1.603-1.11-2.488T8.656 3.77q-1.237 0-2.488.619A7 7 0 0 0 4.015 6.02l1.548 1.49q.703-.702 1.533-1.096t1.56-.394q.957 0 1.463.281t.506.844q0 .394-.465.718T7.87 9.002q-2.307 1.07-3.15 1.857-.844.787-.844 1.912 0 .816.436 1.477.438.662 1.336 1.167"/></svg>