<svg xmlns="http://www.w3.org/2000/svg" width="387" height="388" fill="none"><g filter="url(#a)"><path fill="#EFEFEF" fill-opacity=".1" d="M50.204 387C22.477 387 0 364.523 0 336.796V67.204C0 39.477 22.477 17 50.204 17h286.592C364.523 17 387 39.477 387 67.204v269.592C387 364.523 364.523 387 336.796 387z"/><path stroke="url(#b)" d="M50.204 386.5C22.754 386.5.5 364.247.5 336.796V67.204C.5 39.754 22.753 17.5 50.204 17.5h286.592c27.451 0 49.704 22.253 49.704 49.704v269.592c0 27.451-22.253 49.704-49.704 49.704z"/></g><path fill="#fff" d="M49.84 69.237h-5.468a5.4 5.4 0 0 0-.611-1.885 4.8 4.8 0 0 0-1.187-1.423 5.2 5.2 0 0 0-1.672-.899 6.4 6.4 0 0 0-2.035-.312q-1.986 0-3.458.986-1.474.974-2.285 2.847-.811 1.86-.811 4.519 0 2.734.811 4.594.825 1.86 2.297 2.809t3.408.949a6.7 6.7 0 0 0 2.01-.287 5.3 5.3 0 0 0 1.66-.837 4.8 4.8 0 0 0 1.199-1.36q.488-.799.674-1.823l5.468.025a9.9 9.9 0 0 1-1.06 3.395 10.2 10.2 0 0 1-2.26 2.91q-1.412 1.272-3.371 2.022-1.949.736-4.407.736-3.42 0-6.117-1.548-2.685-1.548-4.245-4.482-1.548-2.933-1.548-7.103 0-4.182 1.573-7.116t4.27-4.47q2.696-1.547 6.067-1.547 2.222 0 4.12.624a10.5 10.5 0 0 1 3.383 1.822 9.4 9.4 0 0 1 2.397 2.91q.936 1.722 1.198 3.944m11.002 16.979q-1.834 0-3.27-.637-1.436-.65-2.273-1.91-.824-1.274-.824-3.171 0-1.598.587-2.684a4.75 4.75 0 0 1 1.598-1.748 7.8 7.8 0 0 1 2.297-.999 17.5 17.5 0 0 1 2.722-.474 69 69 0 0 0 2.696-.325q1.024-.162 1.486-.474t.462-.924v-.075q0-1.185-.75-1.835-.736-.65-2.096-.65-1.437 0-2.285.638-.849.624-1.124 1.573l-4.918-.4q.374-1.748 1.473-3.021 1.098-1.286 2.834-1.973 1.748-.699 4.044-.699 1.598 0 3.06.375 1.471.374 2.608 1.16a5.64 5.64 0 0 1 1.81 2.023q.662 1.224.662 2.934v12.933h-5.043v-2.659h-.15q-.462.9-1.236 1.586a5.7 5.7 0 0 1-1.86 1.061q-1.085.375-2.51.375m1.523-3.67q1.174 0 2.073-.463a3.67 3.67 0 0 0 1.41-1.273A3.3 3.3 0 0 0 66.36 79v-2.035a2.9 2.9 0 0 1-.686.3q-.425.125-.962.237a48 48 0 0 1-1.073.187l-.974.137a6.6 6.6 0 0 0-1.635.437q-.699.3-1.086.812-.387.5-.387 1.248 0 1.087.786 1.66.8.562 2.022.562m15.16 3.307V66.679h5.156v3.346h.2q.525-1.786 1.76-2.697 1.236-.924 2.846-.924.4 0 .862.05t.811.138v4.719a7 7 0 0 0-1.036-.2 9 9 0 0 0-1.211-.088q-1.173 0-2.097.512a3.77 3.77 0 0 0-1.449 1.398q-.524.9-.524 2.073v10.849zm22.316.313q-2.185 0-3.958-1.124-1.76-1.136-2.796-3.333-1.024-2.21-1.024-5.418 0-3.296 1.061-5.48 1.061-2.199 2.822-3.284a7.23 7.23 0 0 1 3.882-1.099q1.611 0 2.684.55 1.086.537 1.748 1.348.675.8 1.024 1.573h.162v-9.613h5.306v25.567h-5.243v-3.07h-.225a6.9 6.9 0 0 1-1.061 1.585q-.674.774-1.761 1.286-1.073.512-2.621.512m1.685-4.233q1.286 0 2.172-.699.9-.711 1.374-1.985.486-1.273.486-2.983t-.474-2.972-1.373-1.947-2.185-.687q-1.31 0-2.21.712-.898.712-1.36 1.972t-.462 2.922q0 1.672.462 2.959.475 1.272 1.36 1.997.9.712 2.21.712m29.969-21.647 6.18 19.425h.237l6.192-19.425h5.993l-8.814 25.567h-6.966l-8.826-25.567zm23.337 25.567V66.679h5.318v19.176zm2.671-21.647q-1.185 0-2.034-.786-.837-.8-.837-1.91 0-1.099.837-1.886a2.86 2.86 0 0 1 2.034-.799q1.186 0 2.023.8.849.786.849 1.885 0 1.11-.849 1.91-.837.786-2.023.786m17.404 22.022q-2.959 0-5.094-1.198-2.122-1.212-3.27-3.421-1.149-2.221-1.149-5.256 0-2.958 1.149-5.193 1.148-2.235 3.233-3.483 2.097-1.25 4.919-1.249 1.897 0 3.533.612a7.84 7.84 0 0 1 2.871 1.81q1.236 1.212 1.923 3.046.686 1.823.686 4.27v1.46h-16.192v-3.295h11.186q0-1.149-.499-2.035a3.6 3.6 0 0 0-1.386-1.386q-.874-.512-2.035-.512-1.21 0-2.147.562a3.93 3.93 0 0 0-1.448 1.486 4.2 4.2 0 0 0-.537 2.06v3.133q0 1.424.524 2.46a3.84 3.84 0 0 0 1.511 1.597q.974.562 2.309.562.887 0 1.623-.25a3.4 3.4 0 0 0 1.261-.749q.525-.498.799-1.223l4.919.325a6.7 6.7 0 0 1-1.536 3.096q-1.148 1.31-2.971 2.047-1.81.724-4.182.724m17.675-.374-5.218-19.176h5.38l2.971 12.883h.175l3.096-12.883h5.281l3.146 12.809h.162l2.921-12.809h5.369l-5.206 19.176h-5.631l-3.295-12.06h-.238l-3.295 12.06z"/><path fill="#fff" fill-opacity=".52" d="M57.696 306.453v-25.567h9.114q2.983 0 4.944 1.086t2.933 2.971q.975 1.872.974 4.22 0 2.36-.986 4.244-.975 1.873-2.947 2.971-1.96 1.087-4.93 1.087H60.53v-3.271h5.918q1.885 0 3.058-.649 1.174-.663 1.723-1.798t.55-2.584-.55-2.572q-.55-1.124-1.735-1.76-1.173-.637-3.096-.637h-4.844v22.259zm30.212.387q-2.835 0-4.881-1.211-2.036-1.223-3.146-3.433-1.1-2.222-1.099-5.206 0-2.946 1.099-5.193 1.11-2.248 3.096-3.508 1.997-1.261 4.669-1.261 1.622 0 3.146.537a7.6 7.6 0 0 1 2.734 1.685q1.21 1.149 1.91 2.984.699 1.822.699 4.432v1.323H80.892v-2.797h11.585q0-1.473-.6-2.609a4.54 4.54 0 0 0-1.684-1.81q-1.074-.662-2.522-.662-1.574 0-2.747.774a5.2 5.2 0 0 0-1.798 1.998 5.8 5.8 0 0 0-.624 2.659v2.185q0 1.922.674 3.271.687 1.348 1.91 2.059 1.224.7 2.86.7 1.06 0 1.934-.3a4.2 4.2 0 0 0 1.51-.924q.638-.612.975-1.51l3.533.636a6.4 6.4 0 0 1-1.523 2.734q-1.087 1.161-2.734 1.81-1.636.637-3.733.637m20.446 0q-2.697 0-4.707-1.236t-3.121-3.458q-1.11-2.221-1.11-5.193 0-2.984 1.11-5.219 1.111-2.234 3.121-3.47t4.707-1.236 4.706 1.236 3.121 3.47q1.111 2.235 1.111 5.219 0 2.971-1.111 5.193-1.111 2.223-3.121 3.458t-4.706 1.236m.012-3.133q1.748 0 2.896-.924 1.149-.924 1.698-2.46.562-1.535.562-3.383 0-1.835-.562-3.37-.549-1.548-1.698-2.485-1.148-.936-2.896-.936-1.76 0-2.921.936-1.149.936-1.71 2.485-.55 1.535-.55 3.37 0 1.848.55 3.383.561 1.536 1.71 2.46 1.161.924 2.921.924m13.093 9.937v-26.366h3.645v3.108h.312q.325-.599.937-1.386.61-.786 1.697-1.373 1.087-.599 2.872-.599 2.322 0 4.144 1.173 1.824 1.174 2.859 3.384 1.049 2.209 1.049 5.318t-1.036 5.331q-1.036 2.21-2.847 3.408-1.81 1.185-4.132 1.186-1.748 0-2.859-.587-1.098-.587-1.722-1.373a10.4 10.4 0 0 1-.962-1.399h-.224v10.175zm3.658-16.779q0 2.023.586 3.546.588 1.523 1.698 2.384 1.111.849 2.722.849 1.673 0 2.796-.886 1.124-.899 1.698-2.435.587-1.535.587-3.458 0-1.897-.574-3.408-.562-1.51-1.698-2.384-1.124-.874-2.809-.874-1.623 0-2.747.836-1.11.837-1.685 2.335-.574 1.499-.574 3.495m21.772-15.979v25.567h-3.733v-25.567zm13.286 25.954q-2.833 0-4.881-1.211-2.035-1.223-3.146-3.433-1.1-2.222-1.099-5.206 0-2.946 1.099-5.193 1.112-2.248 3.096-3.508 1.997-1.261 4.669-1.261 1.623 0 3.146.537a7.6 7.6 0 0 1 2.734 1.685q1.21 1.149 1.91 2.984.699 1.822.699 4.432v1.323h-15.243v-2.797h11.585q0-1.473-.599-2.609a4.54 4.54 0 0 0-1.685-1.81q-1.074-.662-2.522-.662-1.573 0-2.747.774a5.2 5.2 0 0 0-1.797 1.998 5.8 5.8 0 0 0-.625 2.659v2.185q0 1.922.675 3.271.686 1.348 1.91 2.059 1.222.7 2.859.7 1.06 0 1.935-.3a4.2 4.2 0 0 0 1.51-.924q.637-.612.974-1.51l3.533.636a6.4 6.4 0 0 1-1.523 2.734q-1.087 1.161-2.734 1.81-1.636.637-3.733.637m26.738-14.881-3.383.599a4 4 0 0 0-.675-1.236q-.449-.586-1.223-.961t-1.935-.374q-1.585 0-2.647.711-1.06.7-1.061 1.81 0 .962.712 1.548.711.587 2.297.962l3.046.699q2.646.612 3.945 1.885t1.298 3.308q0 1.723-.998 3.071-.987 1.336-2.759 2.098-1.761.76-4.083.761-3.22 0-5.255-1.373-2.035-1.386-2.497-3.933l3.608-.549q.336 1.411 1.385 2.135 1.049.711 2.734.711 1.836 0 2.934-.761 1.1-.774 1.099-1.885 0-.899-.674-1.511-.663-.611-2.035-.924l-3.246-.711q-2.685-.612-3.97-1.948-1.273-1.335-1.273-3.383 0-1.698.948-2.971.95-1.274 2.622-1.985 1.673-.724 3.833-.724 3.108 0 4.893 1.348 1.785 1.336 2.36 3.583m30.186-4.681-6.953 19.175h-3.995l-6.966-19.175h4.007l4.856 14.756h.2l4.844-14.756zm3.508 19.175v-19.175h3.733v19.175zm1.885-22.134a2.37 2.37 0 0 1-1.672-.649q-.687-.662-.687-1.573 0-.924.687-1.573a2.35 2.35 0 0 1 1.672-.662q.975 0 1.661.662.699.649.699 1.573 0 .911-.699 1.573a2.33 2.33 0 0 1-1.661.649m15.134 22.521q-2.833 0-4.881-1.211-2.035-1.223-3.146-3.433-1.099-2.222-1.099-5.206 0-2.946 1.099-5.193 1.112-2.248 3.096-3.508 1.998-1.261 4.669-1.261 1.623 0 3.146.537a7.6 7.6 0 0 1 2.734 1.685q1.21 1.149 1.91 2.984.699 1.822.699 4.432v1.323H230.61v-2.797h11.585q0-1.473-.599-2.609a4.53 4.53 0 0 0-1.685-1.81q-1.074-.662-2.522-.662-1.573 0-2.746.774a5.2 5.2 0 0 0-1.798 1.998 5.8 5.8 0 0 0-.624 2.659v2.185q0 1.922.674 3.271.686 1.348 1.91 2.059 1.223.7 2.859.7 1.06 0 1.935-.3a4.2 4.2 0 0 0 1.51-.924q.637-.612.974-1.51l3.533.636a6.4 6.4 0 0 1-1.523 2.734q-1.086 1.161-2.734 1.81-1.636.637-3.733.637m16.492-.387-5.643-19.175h3.857l3.758 14.082h.187l3.771-14.082h3.857l3.745 14.019h.188l3.732-14.019h3.858l-5.63 19.175h-3.808l-3.895-13.845h-.287l-3.895 13.845zm32.533.387q-2.834 0-4.881-1.211-2.035-1.223-3.146-3.433-1.099-2.222-1.099-5.206 0-2.946 1.099-5.193 1.111-2.248 3.096-3.508 1.998-1.261 4.669-1.261 1.623 0 3.146.537a7.6 7.6 0 0 1 2.734 1.685q1.21 1.149 1.91 2.984.699 1.822.699 4.432v1.323h-15.243v-2.797h11.585q0-1.473-.599-2.609a4.53 4.53 0 0 0-1.685-1.81q-1.074-.662-2.522-.662-1.573 0-2.746.774a5.2 5.2 0 0 0-1.798 1.998 5.8 5.8 0 0 0-.624 2.659v2.185q0 1.922.674 3.271.686 1.348 1.91 2.059 1.223.7 2.859.7 1.06 0 1.935-.3a4.2 4.2 0 0 0 1.51-.924q.637-.612.974-1.51l3.533.636a6.4 6.4 0 0 1-1.523 2.734q-1.086 1.161-2.734 1.81-1.635.637-3.733.637m19.547-.012q-2.322 0-4.145-1.186-1.81-1.199-2.846-3.408-1.024-2.223-1.024-5.331t1.037-5.318q1.048-2.21 2.871-3.384t4.132-1.173q1.785 0 2.871.599 1.1.587 1.698 1.373.612.788.949 1.386h.225v-9.5h3.733v25.567h-3.646v-2.984h-.312q-.337.612-.974 1.399-.624.786-1.722 1.373-1.1.587-2.847.587m.824-3.184q1.61 0 2.722-.849 1.124-.861 1.697-2.384.587-1.523.587-3.546 0-1.996-.574-3.495-.575-1.498-1.685-2.335-1.112-.836-2.747-.836-1.685 0-2.809.874-1.123.873-1.698 2.384-.561 1.51-.561 3.408 0 1.923.574 3.458t1.698 2.435q1.136.886 2.796.886m-190.259 53a8 8 0 0 1-1.523-.137q-.687-.125-1.023-.275l.898-3.059q1.024.275 1.823.238a2.18 2.18 0 0 0 1.411-.6q.624-.561 1.098-1.835l.462-1.273-7.016-19.425h3.995l4.856 14.881h.2l4.856-14.881h4.008l-7.903 21.734q-.549 1.499-1.398 2.535a5.44 5.44 0 0 1-2.022 1.573q-1.174.524-2.722.524m24.978-6.804q-2.697 0-4.707-1.236t-3.121-3.458-1.111-5.193q0-2.984 1.111-5.219 1.111-2.234 3.121-3.47t4.707-1.236q2.696 0 4.706 1.236t3.121 3.47q1.111 2.235 1.111 5.219 0 2.971-1.111 5.193-1.11 2.223-3.121 3.458-2.01 1.236-4.706 1.236m.012-3.133q1.748 0 2.897-.924t1.697-2.46q.562-1.535.562-3.383 0-1.835-.562-3.37-.55-1.548-1.697-2.485-1.15-.936-2.897-.936-1.76 0-2.921.936-1.149.936-1.71 2.485-.55 1.535-.55 3.37 0 1.848.55 3.383.561 1.536 1.71 2.46 1.161.924 2.921.924m25.24-5.206v-11.223h3.745v19.175h-3.67v-3.321h-.2q-.661 1.536-2.122 2.56-1.448 1.011-3.608 1.011-1.848 0-3.271-.812-1.41-.823-2.222-2.434-.8-1.61-.799-3.982v-12.197h3.733v11.747q0 1.96 1.086 3.121t2.821 1.161q1.048 0 2.085-.524 1.049-.524 1.735-1.586.699-1.06.687-2.696m8.761 7.952v-19.175h3.608v3.046h.199q.525-1.548 1.848-2.435 1.335-.899 3.021-.899.35 0 .824.025.487.026.762.063v3.57a7 7 0 0 0-.799-.137 8 8 0 0 0-1.149-.087q-1.323 0-2.359.561a4.17 4.17 0 0 0-1.623 1.536q-.6.974-.6 2.222v11.71zm30.873.387q-2.784 0-4.794-1.261-1.997-1.273-3.071-3.508t-1.074-5.118q0-2.922 1.099-5.156 1.098-2.248 3.096-3.508 1.997-1.261 4.706-1.261 2.185 0 3.895.811 1.711.8 2.759 2.248 1.062 1.448 1.261 3.383h-3.633q-.299-1.349-1.373-2.322-1.06-.974-2.846-.974-1.561 0-2.734.824-1.161.811-1.811 2.322-.648 1.498-.649 3.545 0 2.098.637 3.621.636 1.523 1.798 2.359 1.173.837 2.759.837 1.06 0 1.922-.387a3.9 3.9 0 0 0 1.461-1.136q.599-.736.836-1.773h3.633q-.2 1.86-1.211 3.321-1.011 1.46-2.709 2.297-1.685.836-3.957.836m17.449.038q-1.822 0-3.295-.675-1.474-.686-2.335-1.985-.849-1.298-.849-3.183 0-1.623.624-2.672a4.6 4.6 0 0 1 1.686-1.66 8.8 8.8 0 0 1 2.372-.924 24 24 0 0 1 2.671-.474l2.797-.325q1.073-.137 1.56-.437.487-.299.487-.973v-.088q0-1.635-.924-2.534-.911-.899-2.721-.899-1.885 0-2.972.836-1.073.825-1.485 1.836l-3.508-.799q.624-1.749 1.823-2.822a7.4 7.4 0 0 1 2.783-1.573 10.9 10.9 0 0 1 3.309-.499q1.148 0 2.434.275a7.1 7.1 0 0 1 2.422.973q1.136.712 1.86 2.035.724 1.311.724 3.408v12.734h-3.645v-2.622h-.15q-.362.725-1.086 1.424t-1.86 1.161-2.722.462m.812-2.997q1.548 0 2.646-.611 1.112-.612 1.686-1.598a4.15 4.15 0 0 0 .587-2.135v-2.472q-.201.2-.774.375-.563.162-1.286.287-.724.112-1.411.212a125 125 0 0 0-1.149.15 9.2 9.2 0 0 0-1.985.462q-.885.324-1.423.936-.524.6-.524 1.598 0 1.386 1.024 2.097 1.023.699 2.609.699m13.623 2.572v-19.175h3.608v3.046h.2q.524-1.548 1.847-2.435 1.337-.899 3.021-.899.35 0 .824.025.487.026.762.063v3.57a7 7 0 0 0-.799-.137 8 8 0 0 0-1.149-.087q-1.323 0-2.359.561a4.2 4.2 0 0 0-1.623 1.536q-.599.974-.599 2.222v11.71zm19.984.375q-2.322 0-4.145-1.186-1.81-1.198-2.846-3.408-1.024-2.223-1.024-5.331t1.036-5.318q1.049-2.21 2.872-3.384t4.132-1.173q1.785 0 2.871.599 1.1.587 1.698 1.373.612.788.949 1.386h.225v-9.5h3.732v25.567h-3.645v-2.984h-.312q-.337.612-.974 1.399-.624.786-1.723 1.373-1.098.587-2.846.587m.824-3.184q1.611 0 2.721-.849 1.124-.861 1.698-2.384.587-1.523.587-3.546 0-1.996-.574-3.495-.575-1.498-1.686-2.335-1.11-.836-2.746-.836-1.686 0-2.809.874-1.123.873-1.698 2.384-.561 1.51-.562 3.408 0 1.923.575 3.458.573 1.536 1.697 2.435 1.137.886 2.797.886"/><g fill="#fff" clip-path="url(#c)"><path d="M315.702 57.182a2.9 2.9 0 0 0-1.962.748 2.46 2.46 0 0 0-.812 1.806c0 .677.292 1.327.812 1.806a2.9 2.9 0 0 0 1.962.748h16.643a2.9 2.9 0 0 0 1.962-.748c.52-.479.812-1.129.812-1.806s-.292-1.327-.812-1.806a2.9 2.9 0 0 0-1.962-.748zm0 10.217a2.9 2.9 0 0 0-1.962.748 2.46 2.46 0 0 0-.812 1.806c0 .677.292 1.327.812 1.806a2.9 2.9 0 0 0 1.962.748h16.643a2.9 2.9 0 0 0 1.962-.748c.52-.479.812-1.129.812-1.806 0-.678-.292-1.327-.812-1.806a2.9 2.9 0 0 0-1.962-.748zm-2.774 12.77c0-.677.292-1.326.812-1.805a2.9 2.9 0 0 1 1.962-.748h11.095a2.9 2.9 0 0 1 1.962.748c.52.479.812 1.128.812 1.806 0 .677-.292 1.327-.812 1.806a2.9 2.9 0 0 1-1.962.748h-11.095a2.9 2.9 0 0 1-1.962-.748 2.46 2.46 0 0 1-.812-1.806m-13.26-15.325c0 4.23-3.989 7.663-8.932 7.663s-8.932-3.433-8.932-7.663 3.989-7.662 8.932-7.662 8.932 3.432 8.932 7.662m-8.932 7.663h-.222c-5.104 0-9.542 2.989-10.763 7.254-.444 1.507.888 2.973 2.691 2.973h16.644c1.808 0 3.134-1.46 2.696-2.973-1.237-4.26-5.659-7.254-10.763-7.254h-.283"/><path fill-rule="evenodd" d="M264.81 50.234c-1.814 3.28-1.814 7.56-1.814 16.142v12.26c0 8.583 0 12.874 1.814 16.144 1.602 2.876 4.144 5.217 7.268 6.692 3.562 1.67 8.211 1.67 17.531 1.67h35.507c9.321 0 13.981 0 17.532-1.67 3.128-1.469 5.672-3.811 7.267-6.692 1.815-3.28 1.815-7.56 1.815-16.143v-12.26c0-8.583 0-12.874-1.815-16.143-1.595-2.881-4.139-5.224-7.267-6.692-3.562-1.67-8.211-1.67-17.532-1.67h-35.507c-9.32 0-13.98 0-17.531 1.67-3.124 1.474-5.666 3.815-7.268 6.692m60.473-3.26h-35.507c-4.755 0-7.989 0-10.486.195-2.43.178-3.678.51-4.543.92-2.088.979-3.786 2.542-4.849 4.464-.444.797-.805 1.941-.999 4.184-.205 2.299-.211 5.261-.211 9.655v12.26c0 4.378.006 7.356.211 9.655.2 2.238.56 3.387.999 4.184 1.065 1.92 2.763 3.484 4.849 4.465.865.409 2.113.74 4.543.92 2.497.183 5.715.188 10.486.188h35.507c4.754 0 7.989 0 10.485-.189 2.43-.183 3.678-.516 4.544-.92 2.086-.98 3.784-2.543 4.849-4.464.444-.797.804-1.946.998-4.189.206-2.299.211-5.262.211-9.655v-12.26c0-4.373-.005-7.356-.211-9.655-.199-2.233-.56-3.382-.998-4.18-1.064-1.921-2.761-3.484-4.849-4.464-.866-.409-2.114-.74-4.544-.92-2.496-.188-5.714-.194-10.485-.194" clip-rule="evenodd"/></g><g clip-path="url(#d)"><path fill="#fff" d="M197.689 240.871q-11.354-.043-19.539-5.589-8.141-5.545-12.542-16.062-4.356-10.518-4.313-25.304 0-14.742 4.357-25.128 4.4-10.385 12.542-15.798 8.185-5.457 19.495-5.457 11.309 0 19.45 5.457 8.185 5.457 12.586 15.842 4.4 10.342 4.357 25.084 0 14.83-4.401 25.348-4.356 10.517-12.498 16.062-8.14 5.545-19.494 5.545m0-15.798q7.745 0 12.365-7.789 4.621-7.79 4.577-23.368 0-10.254-2.112-17.074-2.069-6.822-5.897-10.254-3.785-3.432-8.933-3.432-7.701 0-12.322 7.701t-4.665 23.059q0 10.385 2.068 17.339 2.113 6.909 5.941 10.385 3.829 3.433 8.978 3.433m-31.707 163.818v-13.73l32.081-29.705q4.092-3.96 6.865-7.129 2.816-3.168 4.268-6.205 1.452-3.08 1.452-6.645 0-3.96-1.804-6.821-1.805-2.904-4.929-4.444-3.123-1.584-7.085-1.584-4.136 0-7.217 1.672-3.08 1.673-4.752 4.797-1.673 3.125-1.673 7.437h-18.086q0-8.846 4.004-15.359 4.005-6.513 11.222-10.077t16.634-3.565q9.682 0 16.855 3.433 7.217 3.389 11.222 9.417 4.004 6.03 4.004 13.818 0 5.105-2.024 10.078-1.98 4.973-7.085 11.045-5.105 6.03-14.39 14.478l-13.158 12.894v.616h37.845v15.579zm-4.329 134.157v-15.006l37.625-59.276h12.938v20.771h-7.657l-23.719 37.537v.704h53.467v15.27zm43.258 15.843v-20.419l.352-6.645v-63.061h17.867v90.125zm-6.216 151.232a40.8 40.8 0 0 1-13.422-2.333q-6.424-2.288-11.529-7.437-5.106-5.148-8.098-13.642-2.948-8.493-2.948-20.859.044-11.353 2.596-20.287 2.597-8.976 7.393-15.226 4.841-6.249 11.574-9.505 6.733-3.3 15.094-3.301 9.022 0 15.931 3.521 6.909 3.476 11.089 9.461 4.225 5.985 5.105 13.422h-18.791q-1.1-4.708-4.62-7.393t-8.714-2.684q-8.801 0-13.378 7.657-4.532 7.657-4.62 20.815h.616a20.9 20.9 0 0 1 5.457-6.821q3.476-2.86 7.877-4.357 4.444-1.54 9.373-1.54 8.01 0 14.258 3.785 6.249 3.74 9.858 10.297 3.608 6.557 3.608 15.006 0 9.153-4.269 16.283-4.224 7.128-11.837 11.177-7.57 4.005-17.603 3.961m-.088-14.962q4.401 0 7.877-2.113t5.457-5.72q1.98-3.609 1.98-8.098 0-4.488-1.98-8.053a14.9 14.9 0 0 0-5.369-5.677q-3.432-2.112-7.833-2.112-3.3 0-6.117 1.232a15.4 15.4 0 0 0-4.884 3.433 16.5 16.5 0 0 0-3.257 5.104q-1.188 2.86-1.188 6.117 0 4.357 1.98 7.965 2.025 3.61 5.457 5.765 3.477 2.157 7.877 2.157m-26.882 163.73 37.361-73.931v-.616h-43.522v-15.578h63.237v15.798l-37.405 74.327zm24.99 58.642q6.953 0 13.378 2.333 6.469 2.332 11.53 7.437 5.104 5.105 8.053 13.554 2.993 8.405 3.036 20.639 0 11.486-2.596 20.507-2.553 8.977-7.349 15.27t-11.574 9.593q-6.777 3.257-15.138 3.257-9.021 0-15.93-3.477-6.91-3.52-11.134-9.549-4.18-6.073-5.061-13.642h18.791q1.1 4.929 4.621 7.657 3.52 2.684 8.713 2.684 8.801 0 13.378-7.657 4.577-7.7 4.62-21.079h-.616a21.6 21.6 0 0 1-5.456 6.821q-3.433 2.817-7.878 4.357-4.4 1.54-9.373 1.54-7.965 0-14.214-3.74t-9.857-10.298q-3.609-6.557-3.609-14.962-.044-9.066 4.181-16.15 4.224-7.086 11.793-11.09 7.614-4.048 17.691-4.005m.132 14.963q-4.445 0-7.921 2.112-3.433 2.112-5.457 5.677-1.98 3.564-1.936 7.965 0 4.445 1.936 8.009 1.98 3.52 5.369 5.633 3.432 2.068 7.833 2.068 3.3 0 6.117-1.232a15.1 15.1 0 0 0 4.885-3.389 16.2 16.2 0 0 0 3.3-5.06q1.188-2.861 1.188-6.073-.044-4.269-2.024-7.833a15.46 15.46 0 0 0-5.457-5.721q-3.477-2.156-7.833-2.156m-22.849 136.274v90.12h-19.055v-72.04h-.528l-20.639 12.94v-16.9l22.311-14.12zm23.178 90.12v-13.73l32.08-29.7c2.729-2.64 5.017-5.02 6.865-7.13q2.817-3.165 4.269-6.21c.968-2.05 1.452-4.27 1.452-6.64 0-2.64-.601-4.92-1.804-6.82-1.203-1.94-2.846-3.42-4.929-4.45-2.083-1.05-4.444-1.58-7.085-1.58-2.758 0-5.163.56-7.217 1.67q-3.08 1.665-4.753 4.8c-1.114 2.08-1.672 4.56-1.672 7.43h-18.086c0-5.89 1.334-11.01 4.004-15.35q4.004-6.525 11.222-10.08 7.217-3.57 16.634-3.57c6.454 0 12.073 1.15 16.855 3.44 4.811 2.25 8.552 5.39 11.221 9.41s4.005 8.63 4.005 13.82q0 5.1-2.024 10.08c-1.321 3.31-3.682 7-7.085 11.04-3.404 4.02-8.2 8.85-14.391 14.48l-13.157 12.9v.61h37.845v15.58zm-25.114 59.88v90.12h-19.055v-72.04h-.528l-20.639 12.94v-16.9l22.311-14.12zm56.798 91.35q-10.166 0-18.086-3.3c-5.252-2.23-9.374-5.26-12.366-9.11-2.993-3.84-4.489-8.2-4.489-13.07 0-3.75.851-7.2 2.553-10.34 1.731-3.17 4.078-5.79 7.041-7.88 2.963-2.11 6.278-3.46 9.945-4.04v-.62c-4.811-.97-8.713-3.3-11.706-7-2.992-3.72-4.488-8.05-4.488-12.98 0-4.66 1.364-8.82 4.092-12.45 2.729-3.67 6.469-6.55 11.222-8.63 4.782-2.11 10.209-3.17 16.282-3.17s11.486 1.06 16.239 3.17q7.173 3.165 11.265 8.67c2.729 3.64 4.108 7.78 4.137 12.41-.029 4.96-1.555 9.29-4.577 12.98-3.022 3.7-6.894 6.03-11.617 7v.62c3.608.58 6.879 1.93 9.813 4.04 2.963 2.09 5.31 4.71 7.041 7.88 1.76 3.14 2.655 6.59 2.684 10.34-.029 4.87-1.54 9.23-4.532 13.07-2.993 3.85-7.129 6.88-12.41 9.11q-7.877 3.3-18.043 3.3m0-13.99c3.022 0 5.662-.54 7.921-1.63 2.259-1.11 4.02-2.64 5.281-4.58 1.291-1.96 1.937-4.22 1.937-6.77 0-2.61-.661-4.92-1.981-6.91-1.32-2.03-3.11-3.61-5.369-4.75q-3.388-1.77-7.789-1.77-4.356 0-7.789 1.77c-2.288 1.14-4.092 2.72-5.413 4.75-1.29 1.99-1.936 4.3-1.936 6.91 0 2.55.631 4.81 1.892 6.77 1.262 1.94 3.037 3.47 5.325 4.58 2.289 1.09 4.929 1.63 7.921 1.63m0-40.27c2.523 0 4.768-.51 6.733-1.54 1.966-1.02 3.506-2.45 4.621-4.27 1.115-1.81 1.672-3.91 1.672-6.29 0-2.35-.557-4.4-1.672-6.16-1.115-1.79-2.64-3.18-4.577-4.18-1.936-1.03-4.195-1.54-6.777-1.54-2.552 0-4.811.51-6.777 1.54-1.965 1-3.505 2.39-4.62 4.18-1.086 1.76-1.629 3.81-1.629 6.16 0 2.38.558 4.48 1.673 6.29 1.115 1.82 2.655 3.25 4.62 4.27 1.966 1.03 4.21 1.54 6.733 1.54m-104.782 203.03v-13.73l32.081-29.7c2.728-2.64 5.017-5.02 6.865-7.13q2.816-3.165 4.268-6.21c.969-2.05 1.453-4.27 1.453-6.64 0-2.64-.602-4.92-1.805-6.82-1.202-1.94-2.845-3.42-4.928-4.45-2.083-1.05-4.445-1.58-7.085-1.58-2.758 0-5.164.56-7.217 1.67q-3.08 1.665-4.753 4.8c-1.115 2.08-1.672 4.56-1.672 7.43h-18.087c0-5.89 1.335-11.01 4.005-15.35q4.004-6.525 11.221-10.08 7.217-3.57 16.635-3.57c6.454 0 12.072 1.15 16.854 3.44 4.811 2.25 8.552 5.39 11.222 9.41s4.004 8.63 4.004 13.82q0 5.1-2.024 10.08c-1.32 3.31-3.682 7-7.085 11.04-3.403 4.02-8.2 8.85-14.39 14.48l-13.158 12.9v.61h37.845v15.58zm76.514-15.84v-15.01l37.625-59.27h12.938v20.77h-7.657l-23.719 37.53v.71h53.467v15.27zm43.258 15.84v-20.42l.352-6.64v-63.06h17.867v90.12zm-88.153 151.23q-9.858 0-17.559-3.39c-5.105-2.28-9.138-5.42-12.102-9.41-2.933-4.02-4.444-8.66-4.532-13.91h19.187c.117 2.2.836 4.14 2.156 5.81 1.349 1.64 3.139 2.92 5.369 3.83s4.738 1.36 7.525 1.36c2.904 0 5.471-.51 7.701-1.54 2.23-1.02 3.975-2.45 5.237-4.27 1.261-1.82 1.892-3.91 1.892-6.29 0-2.4-.675-4.53-2.024-6.38-1.321-1.88-3.228-3.34-5.721-4.4q-3.697-1.59-8.801-1.59h-8.406v-13.99h8.406q4.312 0 7.613-1.5c2.229-.99 3.96-2.37 5.192-4.13 1.233-1.79 1.849-3.87 1.849-6.25q0-3.39-1.629-5.94-1.584-2.595-4.488-4.05c-1.907-.97-4.137-1.45-6.689-1.45q-3.873 0-7.085 1.41c-2.142.91-3.858 2.21-5.149 3.91s-1.98 3.7-2.068 5.99h-18.263c.088-5.2 1.57-9.77 4.445-13.73s6.747-7.06 11.617-9.29q7.35-3.39 16.591-3.39 9.329 0 16.326 3.39c4.665 2.26 8.288 5.31 10.87 9.16 2.611 3.81 3.902 8.09 3.872 12.85.03 5.04-1.54 9.25-4.708 12.62-3.14 3.38-7.232 5.52-12.278 6.43v.7c6.63.85 11.676 3.16 15.138 6.91 3.491 3.73 5.222 8.39 5.193 14q.044 7.695-4.445 13.68-4.445 5.985-12.278 9.42c-5.222 2.29-11.207 3.43-17.954 3.43m82.74-92.59q6.954 0 13.378 2.34c4.313 1.55 8.156 4.03 11.53 7.43 3.403 3.41 6.087 7.92 8.053 13.56q2.993 8.4 3.036 20.64c0 7.65-.865 14.49-2.596 20.5q-2.552 8.985-7.349 15.27-4.797 6.3-11.574 9.6c-4.518 2.17-9.564 3.25-15.138 3.25-6.014 0-11.324-1.16-15.93-3.47-4.606-2.35-8.317-5.53-11.134-9.55q-4.18-6.075-5.061-13.65h18.791c.734 3.29 2.274 5.84 4.621 7.66 2.347 1.79 5.251 2.69 8.713 2.69 5.868 0 10.327-2.56 13.378-7.66 3.051-5.13 4.591-12.16 4.621-21.08h-.616a21.6 21.6 0 0 1-5.457 6.82c-2.288 1.88-4.914 3.33-7.877 4.36-2.934 1.02-6.058 1.54-9.374 1.54-5.31 0-10.048-1.25-14.214-3.74-4.166-2.5-7.451-5.93-9.857-10.3s-3.609-9.36-3.609-14.96c-.029-6.05 1.365-11.43 4.181-16.15 2.816-4.73 6.748-8.42 11.794-11.09 5.075-2.7 10.972-4.04 17.69-4.01m.132 14.97c-2.963 0-5.603.7-7.921 2.11q-3.432 2.115-5.457 5.67c-1.32 2.38-1.965 5.04-1.936 7.97q0 4.44 1.936 8.01c1.32 2.35 3.11 4.22 5.369 5.63q3.432 2.07 7.833 2.07 3.3 0 6.117-1.23a15 15 0 0 0 4.885-3.39 16.2 16.2 0 0 0 3.3-5.06c.792-1.91 1.188-3.93 1.188-6.07-.029-2.85-.704-5.46-2.024-7.84a15.5 15.5 0 0 0-5.457-5.72c-2.317-1.44-4.928-2.15-7.833-2.15m-117.731 210.55v-15.01l37.626-59.27h12.938v20.77h-7.658l-23.719 37.53v.71h53.468v15.27zm43.258 15.84v-20.42l.353-6.64v-63.06h17.866v90.12zm76.767 1.23c-6.219 0-11.764-1.14-16.634-3.43-4.841-2.29-8.684-5.44-11.53-9.46s-4.327-8.63-4.445-13.82h18.483q.308 5.235 4.401 8.49c2.728 2.18 5.97 3.26 9.725 3.26q4.49 0 7.921-1.98c2.318-1.35 4.122-3.21 5.413-5.59 1.32-2.4 1.98-5.16 1.98-8.27 0-3.17-.674-5.96-2.024-8.36q-1.98-3.615-5.501-5.64c-2.347-1.35-5.031-2.03-8.053-2.06q-3.96 0-7.701 1.62c-2.464 1.09-4.386 2.57-5.765 4.45l-16.942-3.04 4.268-47.52h55.096v15.57H230.17l-2.333 22.58h.528q2.377-3.345 7.173-5.55c3.198-1.46 6.777-2.2 10.738-2.2 5.427 0 10.268 1.28 14.522 3.83s7.613 6.06 10.077 10.52c2.465 4.43 3.682 9.53 3.653 15.31q.044 9.12-4.225 16.2c-2.816 4.69-6.762 8.39-11.837 11.09-5.046 2.67-10.914 4-17.603 4m-84.655 150c-6.219 0-11.764-1.14-16.634-3.43-4.841-2.29-8.684-5.44-11.53-9.46s-4.327-8.63-4.444-13.82h18.482q.309 5.235 4.401 8.49c2.728 2.18 5.97 3.26 9.725 3.26q4.49 0 7.921-1.98c2.318-1.35 4.122-3.21 5.413-5.59 1.32-2.4 1.981-5.16 1.981-8.27 0-3.17-.675-5.96-2.025-8.36q-1.98-3.615-5.501-5.64c-2.347-1.35-5.031-2.03-8.053-2.06q-3.96 0-7.701 1.62c-2.464 1.09-4.386 2.57-5.765 4.45l-16.942-3.04 4.269-47.52H184.9v15.57h-39.385l-2.333 22.58h.529q2.376-3.345 7.173-5.55c3.197-1.46 6.777-2.2 10.737-2.2 5.428 0 10.268 1.28 14.522 3.83s7.613 6.06 10.078 10.52c2.464 4.43 3.682 9.53 3.652 15.31q.044 9.12-4.224 16.2c-2.817 4.69-6.763 8.39-11.838 11.09-5.046 2.67-10.914 4-17.603 4m81.322-92.59q6.952 0 13.378 2.34c4.312 1.55 8.155 4.03 11.529 7.43 3.403 3.41 6.088 7.92 8.053 13.56q2.992 8.4 3.037 20.64c0 7.65-.866 14.49-2.597 20.5q-2.552 8.985-7.349 15.27-4.796 6.3-11.573 9.6c-4.518 2.17-9.564 3.25-15.139 3.25-6.014 0-11.324-1.16-15.93-3.47-4.606-2.35-8.317-5.53-11.133-9.55q-4.18-6.075-5.061-13.65h18.791c.733 3.29 2.273 5.84 4.62 7.66 2.347 1.79 5.252 2.69 8.713 2.69 5.868 0 10.327-2.56 13.378-7.66 3.052-5.13 4.592-12.16 4.621-21.08h-.616a21.6 21.6 0 0 1-5.457 6.82c-2.288 1.88-4.914 3.33-7.877 4.36-2.934 1.02-6.058 1.54-9.373 1.54-5.31 0-10.048-1.25-14.214-3.74-4.166-2.5-7.452-5.93-9.858-10.3-2.405-4.37-3.608-9.36-3.608-14.96-.03-6.05 1.364-11.43 4.18-16.15 2.817-4.73 6.748-8.42 11.794-11.09 5.075-2.7 10.972-4.04 17.691-4.01m.132 14.97c-2.963 0-5.604.7-7.922 2.11q-3.432 2.115-5.456 5.67c-1.321 2.38-1.966 5.04-1.937 7.97q0 4.44 1.937 8.01a15.44 15.44 0 0 0 5.368 5.63q3.433 2.07 7.834 2.07 3.3 0 6.116-1.23a15 15 0 0 0 4.885-3.39 16.2 16.2 0 0 0 3.301-5.06c.792-1.91 1.188-3.93 1.188-6.07-.03-2.85-.704-5.46-2.024-7.84a15.54 15.54 0 0 0-5.457-5.72c-2.318-1.44-4.929-2.15-7.833-2.15m-80.689 227.62c-4.635-.03-9.109-.8-13.422-2.33-4.283-1.53-8.127-4-11.53-7.44-3.403-3.43-6.102-7.98-8.097-13.64-1.965-5.66-2.948-12.61-2.948-20.86q.044-11.355 2.596-20.28c1.731-5.99 4.195-11.06 7.393-15.23q4.84-6.255 11.574-9.51 6.733-3.3 15.094-3.3c6.014 0 11.324 1.18 15.93 3.52 4.606 2.32 8.303 5.48 11.09 9.47 2.816 3.99 4.518 8.46 5.105 13.42h-18.791c-.733-3.14-2.274-5.61-4.621-7.4s-5.251-2.68-8.713-2.68c-5.867 0-10.327 2.55-13.378 7.66-3.022 5.1-4.562 12.04-4.621 20.81h.617a21 21 0 0 1 5.456-6.82c2.318-1.91 4.944-3.36 7.877-4.36 2.964-1.02 6.088-1.54 9.374-1.54 5.339 0 10.092 1.27 14.258 3.79 4.166 2.49 7.452 5.92 9.857 10.3q3.609 6.555 3.609 15c0 6.1-1.423 11.53-4.269 16.28-2.816 4.76-6.762 8.48-11.838 11.18q-7.569 4.005-17.602 3.96m-.088-14.96c2.934 0 5.559-.7 7.877-2.11s4.137-3.32 5.457-5.72q1.98-3.615 1.98-8.1c0-2.99-.66-5.68-1.98-8.05a14.9 14.9 0 0 0-5.369-5.68c-2.288-1.41-4.899-2.11-7.833-2.11q-3.3 0-6.117 1.23a15.5 15.5 0 0 0-4.885 3.43 16.5 16.5 0 0 0-3.256 5.11c-.792 1.9-1.188 3.94-1.188 6.11 0 2.91.66 5.56 1.98 7.97q2.024 3.615 5.457 5.76 3.476 2.16 7.877 2.16m82.377 14.96q-9.857 0-17.558-3.39c-5.105-2.28-9.139-5.42-12.102-9.41-2.934-4.02-4.445-8.66-4.533-13.91h19.187c.118 2.2.836 4.14 2.156 5.81 1.35 1.64 3.14 2.92 5.369 3.83 2.23.91 4.738 1.36 7.525 1.36 2.905 0 5.472-.51 7.701-1.54 2.23-1.02 3.976-2.45 5.237-4.27s1.892-3.91 1.892-6.29c0-2.4-.674-4.53-2.024-6.38-1.32-1.88-3.227-3.34-5.721-4.4q-3.696-1.59-8.801-1.59h-8.405v-13.99h8.405q4.313 0 7.613-1.5c2.23-.99 3.961-2.37 5.193-4.13 1.232-1.79 1.848-3.87 1.848-6.25q0-3.39-1.628-5.94-1.584-2.595-4.489-4.05c-1.907-.97-4.136-1.45-6.689-1.45q-3.872 0-7.085 1.41c-2.141.91-3.858 2.21-5.148 3.91-1.291 1.7-1.981 3.7-2.069 5.99h-18.262c.088-5.2 1.569-9.77 4.444-13.73s6.748-7.06 11.618-9.29q7.348-3.39 16.59-3.39 9.33 0 16.327 3.39c4.664 2.26 8.288 5.31 10.869 9.16 2.611 3.81 3.902 8.09 3.873 12.85.029 5.04-1.54 9.25-4.709 12.62-3.139 3.38-7.232 5.52-12.278 6.43v.7c6.631.85 11.677 3.16 15.139 6.91 3.491 3.73 5.222 8.39 5.192 14q.044 7.695-4.444 13.68-4.445 5.985-12.278 9.42c-5.222 2.29-11.207 3.43-17.955 3.43m-106.779 148.77 37.362-73.93v-.62h-43.522v-15.57h63.237v15.79l-37.406 74.33zm63.268-15.84v-15.01l37.625-59.27h12.938v20.77h-7.657l-23.719 37.53v.71h53.468v15.27zm43.258 15.84v-20.42l.352-6.64v-63.06h17.867v90.12zm-82.157 151.23q-10.166 0-18.087-3.3c-5.251-2.23-9.373-5.26-12.365-9.11-2.993-3.84-4.489-8.2-4.489-13.07 0-3.75.851-7.2 2.552-10.34 1.731-3.17 4.078-5.79 7.041-7.88 2.963-2.11 6.279-3.46 9.946-4.04v-.62c-4.812-.97-8.714-3.3-11.706-7-2.992-3.72-4.489-8.05-4.489-12.98 0-4.66 1.365-8.82 4.093-12.45 2.728-3.67 6.469-6.55 11.222-8.63 4.782-2.11 10.209-3.17 16.282-3.17s11.486 1.06 16.238 3.17q7.173 3.165 11.266 8.67c2.728 3.64 4.107 7.78 4.136 12.41-.029 4.96-1.554 9.29-4.576 12.98-3.022 3.7-6.894 6.03-11.618 7v.62c3.609.58 6.88 1.93 9.814 4.04 2.963 2.09 5.31 4.71 7.041 7.88 1.76 3.14 2.655 6.59 2.684 10.34-.029 4.87-1.54 9.23-4.533 13.07-2.992 3.85-7.129 6.88-12.409 9.11q-7.878 3.3-18.043 3.3m0-13.99c3.022 0 5.662-.54 7.921-1.63 2.259-1.11 4.019-2.64 5.281-4.58 1.291-1.96 1.936-4.22 1.936-6.77 0-2.61-.66-4.92-1.98-6.91-1.32-2.03-3.11-3.61-5.369-4.75q-3.388-1.77-7.789-1.77-4.356 0-7.789 1.77c-2.289 1.14-4.093 2.72-5.413 4.75-1.291 1.99-1.936 4.3-1.936 6.91 0 2.55.63 4.81 1.892 6.77 1.262 1.94 3.036 3.47 5.325 4.58 2.288 1.09 4.928 1.63 7.921 1.63m0-40.27c2.523 0 4.767-.51 6.733-1.54 1.966-1.02 3.506-2.45 4.621-4.27 1.114-1.81 1.672-3.91 1.672-6.29 0-2.35-.558-4.4-1.672-6.16-1.115-1.79-2.641-3.18-4.577-4.18-1.936-1.03-4.195-1.54-6.777-1.54-2.552 0-4.811.51-6.777 1.54-1.966 1-3.506 2.39-4.621 4.18-1.085 1.76-1.628 3.81-1.628 6.16 0 2.38.557 4.48 1.672 6.29 1.115 1.82 2.655 3.25 4.621 4.27 1.966 1.03 4.21 1.54 6.733 1.54m82.982 54.26c-6.219 0-11.764-1.14-16.634-3.43-4.841-2.29-8.684-5.44-11.53-9.46s-4.327-8.63-4.444-13.82h18.482q.309 5.235 4.401 8.49c2.728 2.18 5.97 3.26 9.725 3.26q4.489 0 7.922-1.98c2.317-1.35 4.122-3.21 5.412-5.59 1.321-2.4 1.981-5.16 1.981-8.27 0-3.17-.675-5.96-2.025-8.36q-1.98-3.615-5.5-5.64c-2.347-1.35-5.032-2.03-8.054-2.06q-3.96 0-7.701 1.62c-2.464 1.09-4.386 2.57-5.765 4.45l-16.942-3.04 4.269-47.52h55.096v15.57h-39.386l-2.332 22.58h.528q2.376-3.345 7.173-5.55c3.197-1.46 6.777-2.2 10.737-2.2 5.428 0 10.268 1.28 14.522 3.83s7.613 6.06 10.078 10.52c2.464 4.43 3.682 9.53 3.652 15.31q.044 9.12-4.224 16.2c-2.817 4.69-6.763 8.39-11.838 11.09-5.046 2.67-10.914 4-17.603 4m-84.902 57.41q6.953 0 13.378 2.34c4.313 1.55 8.156 4.03 11.53 7.43 3.403 3.41 6.087 7.92 8.053 13.56q2.993 8.4 3.036 20.64c0 7.65-.865 14.49-2.596 20.5q-2.553 8.985-7.349 15.27-4.797 6.3-11.574 9.6c-4.518 2.17-9.564 3.25-15.138 3.25-6.014 0-11.324-1.16-15.93-3.47-4.606-2.35-8.317-5.53-11.134-9.55q-4.18-6.075-5.061-13.65h18.791c.734 3.29 2.274 5.84 4.621 7.66 2.347 1.79 5.251 2.69 8.713 2.69 5.868 0 10.327-2.56 13.378-7.66 3.051-5.13 4.591-12.16 4.621-21.08h-.616a21.6 21.6 0 0 1-5.457 6.82c-2.289 1.88-4.914 3.33-7.877 4.36-2.934 1.02-6.059 1.54-9.374 1.54-5.31 0-10.048-1.25-14.214-3.74-4.166-2.5-7.452-5.93-9.857-10.3-2.406-4.37-3.609-9.36-3.609-14.96-.029-6.05 1.364-11.43 4.181-16.15 2.816-4.73 6.748-8.42 11.794-11.09 5.075-2.7 10.972-4.04 17.69-4.01m.132 14.97c-2.963 0-5.603.7-7.921 2.11q-3.432 2.115-5.457 5.67c-1.32 2.38-1.965 5.04-1.936 7.97q0 4.44 1.936 8.01c1.32 2.35 3.11 4.22 5.369 5.63q3.432 2.07 7.833 2.07 3.3 0 6.117-1.23a15 15 0 0 0 4.885-3.39 16.2 16.2 0 0 0 3.3-5.06c.792-1.91 1.188-3.93 1.188-6.07-.029-2.85-.704-5.46-2.024-7.84a15.5 15.5 0 0 0-5.457-5.72c-2.317-1.44-4.928-2.15-7.833-2.15m83.434-14.97q6.952 0 13.378 2.34c4.312 1.55 8.156 4.03 11.529 7.43 3.403 3.41 6.088 7.92 8.053 13.56q2.993 8.4 3.037 20.64c0 7.65-.866 14.49-2.596 20.5q-2.553 8.985-7.349 15.27-4.797 6.3-11.574 9.6c-4.518 2.17-9.564 3.25-15.138 3.25-6.015 0-11.325-1.16-15.931-3.47-4.606-2.35-8.317-5.53-11.133-9.55q-4.18-6.075-5.061-13.65h18.791c.733 3.29 2.273 5.84 4.62 7.66 2.347 1.79 5.252 2.69 8.714 2.69 5.867 0 10.326-2.56 13.378-7.66 3.051-5.13 4.591-12.16 4.62-21.08h-.616a21.6 21.6 0 0 1-5.457 6.82c-2.288 1.88-4.914 3.33-7.877 4.36-2.934 1.02-6.058 1.54-9.373 1.54-5.31 0-10.048-1.25-14.214-3.74-4.166-2.5-7.452-5.93-9.858-10.3-2.405-4.37-3.608-9.36-3.608-14.96-.029-6.05 1.364-11.43 4.18-16.15 2.817-4.73 6.748-8.42 11.794-11.09 5.076-2.7 10.972-4.04 17.691-4.01m.132 14.97c-2.963 0-5.604.7-7.921 2.11q-3.434 2.115-5.457 5.67c-1.32 2.38-1.966 5.04-1.936 7.97q0 4.44 1.936 8.01c1.32 2.35 3.11 4.22 5.369 5.63q3.432 2.07 7.833 2.07 3.3 0 6.117-1.23a15 15 0 0 0 4.884-3.39 16.2 16.2 0 0 0 3.301-5.06c.792-1.91 1.188-3.93 1.188-6.07-.029-2.85-.704-5.46-2.024-7.84a15.54 15.54 0 0 0-5.457-5.72c-2.318-1.44-4.929-2.15-7.833-2.15m-99.456 136.27v90.12h-19.055v-72.04h-.528l-20.64 12.94v-16.9l22.312-14.12zm58.515 92.1c-7.57-.03-14.082-1.89-19.539-5.59-5.428-3.69-9.608-9.05-12.542-16.06-2.904-7.01-4.342-15.45-4.313-25.3 0-9.83 1.453-18.21 4.357-25.13 2.934-6.93 7.114-12.19 12.542-15.8q8.185-5.46 19.495-5.46 11.309 0 19.45 5.46 8.185 5.46 12.586 15.84c2.934 6.9 4.386 15.26 4.357 25.09 0 9.88-1.467 18.33-4.401 25.34-2.904 7.02-7.07 12.37-12.498 16.07-5.427 3.69-11.925 5.54-19.494 5.54m0-15.8c5.163 0 9.285-2.59 12.365-7.79 3.081-5.19 4.606-12.98 4.577-23.36 0-6.84-.704-12.53-2.112-17.08-1.379-4.55-3.345-7.96-5.897-10.25-2.523-2.29-5.501-3.43-8.933-3.43-5.134 0-9.242 2.56-12.322 7.7-3.081 5.13-4.636 12.82-4.665 23.06 0 6.92.69 12.7 2.068 17.33 1.409 4.61 3.389 8.07 5.941 10.39 2.553 2.29 5.545 3.43 8.978 3.43m90.947-76.3v90.12h-19.055v-72.04h-.528l-20.639 12.94v-16.9l22.312-14.12zm-147.708 150v90.12h-19.054v-72.04h-.528l-20.639 12.94v-16.9l22.311-14.12zm62.388 0v90.12h-19.055v-72.04h-.528l-20.639 12.94v-16.9l22.311-14.12zm57.767 91.35c-4.636-.03-9.11-.8-13.422-2.33-4.283-1.53-8.127-4-11.53-7.44-3.403-3.43-6.102-7.98-8.097-13.64-1.966-5.66-2.948-12.61-2.948-20.86q.043-11.355 2.596-20.28c1.731-5.99 4.195-11.06 7.393-15.23q4.84-6.255 11.574-9.51 6.733-3.3 15.094-3.3c6.014 0 11.324 1.18 15.93 3.52 4.606 2.32 8.303 5.48 11.09 9.47 2.816 3.99 4.518 8.46 5.104 13.42h-18.79c-.734-3.14-2.274-5.61-4.621-7.4s-5.251-2.68-8.713-2.68c-5.868 0-10.327 2.55-13.378 7.66-3.022 5.1-4.562 12.04-4.621 20.81h.616a21 21 0 0 1 5.457-6.82c2.318-1.91 4.943-3.36 7.877-4.36 2.963-1.02 6.088-1.54 9.374-1.54 5.339 0 10.092 1.27 14.258 3.79 4.166 2.49 7.451 5.92 9.857 10.3q3.609 6.555 3.609 15c0 6.1-1.423 11.53-4.269 16.28-2.816 4.76-6.762 8.48-11.838 11.18q-7.569 4.005-17.602 3.96m-.088-14.96c2.933 0 5.559-.7 7.877-2.11s4.136-3.32 5.457-5.72q1.98-3.615 1.98-8.1c0-2.99-.66-5.68-1.98-8.05a14.9 14.9 0 0 0-5.369-5.68c-2.288-1.41-4.899-2.11-7.833-2.11q-3.301 0-6.117 1.23a15.4 15.4 0 0 0-4.885 3.43 16.5 16.5 0 0 0-3.256 5.11c-.792 1.9-1.188 3.94-1.188 6.11 0 2.91.66 5.56 1.98 7.97q2.024 3.615 5.457 5.76 3.476 2.16 7.877 2.16m-128.84 73.61v90.12H113.1v-72.04h-.528l-20.64 12.94v-16.9l22.312-14.12zm23.177 90.12v-13.73l32.081-29.7c2.728-2.64 5.017-5.02 6.865-7.13q2.817-3.165 4.269-6.21c.968-2.05 1.452-4.27 1.452-6.64 0-2.64-.602-4.92-1.804-6.82-1.203-1.94-2.846-3.42-4.929-4.45-2.083-1.05-4.445-1.58-7.085-1.58-2.758 0-5.163.56-7.217 1.67q-3.08 1.665-4.753 4.8c-1.115 2.08-1.672 4.56-1.672 7.43h-18.087c0-5.89 1.335-11.01 4.005-15.35q4.005-6.525 11.222-10.08 7.217-3.57 16.634-3.57c6.454 0 12.072 1.15 16.854 3.44 4.812 2.25 8.552 5.39 11.222 9.41s4.005 8.63 4.005 13.82q0 5.1-2.025 10.08c-1.32 3.31-3.682 7-7.085 11.04-3.403 4.02-8.2 8.85-14.39 14.48l-13.158 12.9v.61h37.846v15.58zm113.435 1.23q-10.165 0-18.086-3.3c-5.252-2.23-9.374-5.26-12.366-9.11-2.992-3.84-4.489-8.2-4.489-13.07 0-3.75.851-7.2 2.553-10.34 1.731-3.17 4.078-5.79 7.041-7.88 2.963-2.11 6.278-3.46 9.945-4.04v-.62c-4.811-.97-8.713-3.3-11.706-7-2.992-3.72-4.488-8.05-4.488-12.98 0-4.66 1.364-8.82 4.092-12.45 2.729-3.67 6.469-6.55 11.222-8.63 4.782-2.11 10.209-3.17 16.282-3.17s11.486 1.06 16.239 3.17q7.173 3.165 11.265 8.67c2.729 3.64 4.108 7.78 4.137 12.41-.029 4.96-1.555 9.29-4.577 12.98-3.021 3.7-6.894 6.03-11.617 7v.62c3.608.58 6.879 1.93 9.813 4.04 2.963 2.09 5.31 4.71 7.041 7.88 1.76 3.14 2.655 6.59 2.684 10.34-.029 4.87-1.54 9.23-4.532 13.07-2.993 3.85-7.129 6.88-12.41 9.11q-7.877 3.3-18.043 3.3m0-13.99c3.022 0 5.663-.54 7.922-1.63 2.259-1.11 4.019-2.64 5.28-4.58 1.291-1.96 1.937-4.22 1.937-6.77 0-2.61-.661-4.92-1.981-6.91-1.32-2.03-3.11-3.61-5.369-4.75q-3.388-1.77-7.789-1.77-4.356 0-7.789 1.77c-2.288 1.14-4.092 2.72-5.413 4.75-1.29 1.99-1.936 4.3-1.936 6.91 0 2.55.631 4.81 1.892 6.77 1.262 1.94 3.037 3.47 5.325 4.58 2.289 1.09 4.929 1.63 7.921 1.63m0-40.27c2.523 0 4.768-.51 6.733-1.54 1.966-1.02 3.506-2.45 4.621-4.27 1.115-1.81 1.672-3.91 1.672-6.29 0-2.35-.557-4.4-1.672-6.16-1.115-1.79-2.64-3.18-4.577-4.18-1.936-1.03-4.195-1.54-6.777-1.54-2.552 0-4.811.51-6.777 1.54-1.965 1-3.505 2.39-4.62 4.18-1.086 1.76-1.629 3.81-1.629 6.16 0 2.38.558 4.48 1.673 6.29 1.115 1.82 2.655 3.25 4.62 4.27 1.966 1.03 4.21 1.54 6.733 1.54m-138.428 112.91v90.12h-19.054v-72.04h-.528l-20.64 12.94v-16.9l22.312-14.12zm56.491 91.35q-9.857 0-17.559-3.39c-5.104-2.28-9.138-5.42-12.101-9.41-2.934-4.02-4.445-8.66-4.533-13.91h19.187c.117 2.2.836 4.14 2.156 5.81 1.35 1.64 3.139 2.92 5.369 3.83s4.738 1.36 7.525 1.36c2.904 0 5.471-.51 7.701-1.54 2.23-1.02 3.975-2.45 5.237-4.27 1.261-1.82 1.892-3.91 1.892-6.29 0-2.4-.675-4.53-2.024-6.38-1.32-1.88-3.227-3.34-5.721-4.4q-3.696-1.59-8.801-1.59h-8.405v-13.99h8.405q4.313 0 7.613-1.5c2.23-.99 3.96-2.37 5.193-4.13 1.232-1.79 1.848-3.87 1.848-6.25q0-3.39-1.628-5.94-1.584-2.595-4.489-4.05c-1.907-.97-4.137-1.45-6.689-1.45q-3.872 0-7.085 1.41c-2.142.91-3.858 2.21-5.149 3.91s-1.98 3.7-2.068 5.99h-18.263c.088-5.2 1.57-9.77 4.445-13.73s6.748-7.06 11.618-9.29q7.348-3.39 16.59-3.39 9.33 0 16.326 3.39c4.665 2.26 8.288 5.31 10.87 9.16 2.611 3.81 3.902 8.09 3.873 12.85.029 5.04-1.541 9.25-4.709 12.62-3.139 3.38-7.232 5.52-12.278 6.43v.7c6.63.85 11.676 3.16 15.138 6.91 3.491 3.73 5.222 8.39 5.193 14q.044 7.695-4.445 13.68-4.444 5.985-12.277 9.42c-5.222 2.29-11.207 3.43-17.955 3.43m83.753 0q-10.166 0-18.087-3.3c-5.251-2.23-9.373-5.26-12.366-9.11-2.992-3.84-4.488-8.2-4.488-13.07 0-3.75.85-7.2 2.552-10.34 1.731-3.17 4.078-5.79 7.041-7.88 2.963-2.11 6.278-3.46 9.945-4.04v-.62c-4.811-.97-8.713-3.3-11.705-7-2.993-3.72-4.489-8.05-4.489-12.98 0-4.66 1.364-8.82 4.093-12.45 2.728-3.67 6.469-6.55 11.221-8.63 4.782-2.11 10.21-3.17 16.283-3.17s11.485 1.06 16.238 3.17q7.173 3.165 11.266 8.67c2.728 3.64 4.107 7.78 4.136 12.41-.029 4.96-1.555 9.29-4.576 12.98-3.022 3.7-6.895 6.03-11.618 7v.62c3.608.58 6.88 1.93 9.813 4.04 2.963 2.09 5.31 4.71 7.041 7.88 1.761 3.14 2.655 6.59 2.685 10.34-.03 4.87-1.541 9.23-4.533 13.07-2.992 3.85-7.129 6.88-12.41 9.11q-7.876 3.3-18.042 3.3m0-13.99c3.021 0 5.662-.54 7.921-1.63 2.259-1.11 4.019-2.64 5.281-4.58 1.29-1.96 1.936-4.22 1.936-6.77 0-2.61-.66-4.92-1.98-6.91-1.321-2.03-3.11-3.61-5.369-4.75q-3.389-1.77-7.789-1.77-4.357 0-7.79 1.77c-2.288 1.14-4.092 2.72-5.412 4.75-1.291 1.99-1.937 4.3-1.937 6.91 0 2.55.631 4.81 1.893 6.77 1.261 1.94 3.036 3.47 5.324 4.58 2.289 1.09 4.929 1.63 7.922 1.63m0-40.27c2.523 0 4.767-.51 6.733-1.54 1.965-1.02 3.505-2.45 4.62-4.27 1.115-1.81 1.673-3.91 1.673-6.29 0-2.35-.558-4.4-1.673-6.16-1.115-1.79-2.64-3.18-4.576-4.18-1.937-1.03-4.196-1.54-6.777-1.54-2.553 0-4.812.51-6.777 1.54-1.966 1-3.506 2.39-4.621 4.18-1.086 1.76-1.628 3.81-1.628 6.16 0 2.38.557 4.48 1.672 6.29 1.115 1.82 2.655 3.25 4.621 4.27 1.965 1.03 4.21 1.54 6.733 1.54"/></g><defs><clipPath id="c"><path fill="#fff" d="M262.996 31.639h88.767v81.736h-88.767z"/></clipPath><clipPath id="d"><path fill="#fff" d="M83.705 127.438h204.78v111.618H83.704z"/></clipPath><linearGradient id="b" x1="-2.06" x2="589.924" y1="-38.205" y2="140.955" gradientUnits="userSpaceOnUse"><stop stop-color="#640D99"/><stop offset="1" stop-color="#774099" stop-opacity="0"/></linearGradient><filter id="a" width="552.094" height="535.094" x="-82.547" y="-65.547" color-interpolation-filters="sRGB" filterUnits="userSpaceOnUse"><feFlood flood-opacity="0" result="BackgroundImageFix"/><feGaussianBlur in="BackgroundImageFix" stdDeviation="41.274"/><feComposite in2="SourceAlpha" operator="in" result="effect1_backgroundBlur_4103_36736"/><feBlend in="SourceGraphic" in2="effect1_backgroundBlur_4103_36736" result="shape"/></filter></defs></svg>